<svg width="32" height="29" viewBox="0 0 32 29" fill="none" xmlns="http://www.w3.org/2000/svg">
<g clip-path="url(#clip0_694_16)">
<path d="M31.9466 13.8216C31.764 12.968 31.2544 12.1994 30.5069 11.6502C29.7594 11.1009 28.8215 10.806 27.8572 10.8169H23.4572L17.9279 1.87854C17.5837 1.30992 17.0759 0.83539 16.4579 0.504828C15.8399 0.174266 15.1345 -0.000119833 14.4159 6.1781e-08H9.42522L13.4759 10.8169H9.31322L7.84656 8.82539C7.48278 8.32932 6.98828 7.92224 6.40729 7.64057C5.82629 7.35889 5.17692 7.2114 4.51722 7.21127H0.0358887L2.98656 14.4225L0.053222 21.6338H4.53322C5.19415 21.6341 5.84478 21.4863 6.42663 21.2037C7.00847 20.9211 7.50328 20.5126 7.86656 20.0149L9.31722 18.0282H13.4759L9.42522 28.8451H14.4159C15.1327 28.8452 15.8363 28.6716 16.4532 28.3426C17.0701 28.0136 17.5775 27.5413 17.9226 26.9749L23.4506 18.0282H27.9999C28.5818 18.0285 29.1568 17.9144 29.6848 17.6938C30.2127 17.4732 30.6809 17.1514 31.0567 16.7509C31.4325 16.3503 31.7068 15.8807 31.8605 15.3748C32.0142 14.8689 32.0435 14.3388 31.9466 13.8216ZM29.0132 15.1965C28.8888 15.3298 28.7337 15.4371 28.5588 15.5109C28.3838 15.5848 28.1931 15.6235 27.9999 15.6244H21.8826L15.5866 25.8151C15.4718 26.0047 15.3026 26.1629 15.0965 26.273C14.8906 26.3832 14.6554 26.4414 14.4159 26.4413H13.1386L17.1906 15.6244H7.87722L5.64389 18.6916C5.52242 18.857 5.35744 18.9927 5.16364 19.0867C4.96985 19.1806 4.75327 19.2299 4.53322 19.23H3.87456L5.82789 14.4225L3.86656 9.61502H4.52255C4.7426 9.61519 4.95918 9.66445 5.15297 9.7584C5.34677 9.85235 5.51176 9.98807 5.63322 10.1535L7.88122 13.2207H17.1906L13.1386 2.40376H14.4159C14.6574 2.40378 14.8944 2.46295 15.1015 2.57493C15.3086 2.68691 15.4781 2.8475 15.5919 3.03955L21.8826 13.2207H27.8572C28.1894 13.2096 28.5157 13.3022 28.781 13.4828C29.0463 13.6635 29.2342 13.9211 29.3132 14.2122C29.3476 14.3864 29.3389 14.5652 29.2877 14.736C29.2365 14.9068 29.1442 15.0653 29.0172 15.2002L29.0132 15.1965Z" fill="white"/>
</g>
<defs>
<clipPath id="clip0_694_16">
<rect width="32" height="28.8451" fill="white"/>
</clipPath>
</defs>
</svg>
