<svg width="32" height="29" viewBox="0 0 32 29" fill="none" xmlns="http://www.w3.org/2000/svg">
<g clip-path="url(#clip0_694_14)">
<path d="M30.6667 23.9614C30.313 23.9614 29.9739 24.0876 29.7239 24.3123C29.4738 24.5369 29.3333 24.8417 29.3333 25.1594C29.3333 25.5716 28.424 26.3575 27 26.3575C26.6 26.3701 26.2019 26.3026 25.8345 26.1598C25.4671 26.0171 25.1397 25.8026 24.876 25.532C24.9281 25.4556 24.9851 25.382 25.0467 25.3116C27.2211 23.2625 28.6834 20.6883 29.2547 17.9039C29.4238 17.0662 29.2564 16.2018 28.7825 15.4646C28.3086 14.7274 27.5588 14.1653 26.6667 13.8784V10.7826C26.6667 9.51162 26.1048 8.29269 25.1046 7.39396C24.1044 6.49524 22.7478 5.99034 21.3333 5.99034V4.79227C21.3333 3.52128 20.7714 2.30235 19.7712 1.40362C18.771 0.504899 17.4145 0 16 0C14.5855 0 13.229 0.504899 12.2288 1.40362C11.2286 2.30235 10.6667 3.52128 10.6667 4.79227V5.99034C9.25218 5.99034 7.89562 6.49524 6.89543 7.39396C5.89524 8.29269 5.33333 9.51162 5.33333 10.7826V13.8628C4.43012 14.1432 3.66845 14.7048 3.18615 15.446C2.70386 16.1873 2.53283 17.0592 2.704 17.9039C3.28954 20.6916 4.76613 23.2657 6.95333 25.3116C7.01732 25.3839 7.07653 25.4595 7.13067 25.538C6.86672 25.8095 6.53814 26.0241 6.1693 26.166C5.80046 26.3079 5.40082 26.3733 5 26.3575C3.548 26.3575 2.66667 25.526 2.66667 25.1594C2.66667 24.8417 2.52619 24.5369 2.27614 24.3123C2.02609 24.0876 1.68696 23.9614 1.33333 23.9614C0.979711 23.9614 0.640573 24.0876 0.390524 24.3123C0.140476 24.5369 0 24.8417 0 25.1594C0 27.1075 2.29067 28.7536 5 28.7536C6.34824 28.7646 7.65587 28.3393 8.684 27.5556C9.70947 28.3251 11.0021 28.7482 12.3381 28.7517C13.6742 28.7552 14.9696 28.3389 16 27.5747C17.0342 28.3381 18.3321 28.7538 19.6705 28.7503C21.0089 28.7468 22.3041 28.3243 23.3333 27.5556C24.3553 28.3351 25.6541 28.7601 26.9947 28.7536C29.7093 28.7536 32 27.1075 32 25.1594C32 24.8417 31.8595 24.5369 31.6095 24.3123C31.3594 24.0876 31.0203 23.9614 30.6667 23.9614ZM13.3333 4.79227C13.3333 4.15678 13.6143 3.54731 14.1144 3.09795C14.6145 2.64858 15.2928 2.39614 16 2.39614C16.7072 2.39614 17.3855 2.64858 17.8856 3.09795C18.3857 3.54731 18.6667 4.15678 18.6667 4.79227V5.99034H13.3333V4.79227ZM10.6667 8.38647H21.3333C22.0406 8.38647 22.7189 8.63892 23.219 9.08829C23.719 9.53765 24 10.1471 24 10.7826V13.0829L17.264 11.0965C16.4451 10.8545 15.5615 10.8545 14.7427 11.0965L8 13.0745V10.7826C8 10.1471 8.28095 9.53765 8.78105 9.08829C9.28115 8.63892 9.95942 8.38647 10.6667 8.38647ZM12.3333 26.3575C11.8877 26.3794 11.4433 26.2972 11.0435 26.119C10.6437 25.9407 10.3021 25.6725 10.052 25.3403C9.77427 24.7421 9.39263 24.1873 8.92133 23.6966C7.08321 21.9866 5.83682 19.8341 5.33333 17.5002C5.27177 17.2131 5.32703 16.9157 5.48904 16.6621C5.65105 16.4086 5.90904 16.2158 6.216 16.1188L14.6667 13.6376V25.1594C14.6667 25.5716 13.7573 26.3575 12.3333 26.3575ZM19.6667 26.3575C18.2147 26.3575 17.3333 25.526 17.3333 25.1594V13.6388L25.74 16.1176C26.048 16.2144 26.3071 16.4073 26.4701 16.6613C26.6331 16.9152 26.6891 17.2134 26.628 17.5014C26.1391 19.8322 24.9058 21.9848 23.0787 23.6966C22.6044 24.188 22.2224 24.7456 21.948 25.3475C21.6978 25.6791 21.3559 25.9465 20.956 26.1236C20.556 26.3007 20.1117 26.3813 19.6667 26.3575Z" fill="white"/>
</g>
<defs>
<clipPath id="clip0_694_14">
<rect width="32" height="28.7536" fill="white"/>
</clipPath>
</defs>
</svg>
