<svg width="34" height="29" viewBox="0 0 34 29" fill="none" xmlns="http://www.w3.org/2000/svg">
<g clip-path="url(#clip0_694_18)">
<path d="M33.3714 11.9807C33.3714 8.6776 30.2526 5.99033 26.419 5.99033H23.6381V4.79226C23.6381 2.81066 21.7665 1.19806 19.4667 1.19806H4.17143C1.87158 1.19806 0 2.81066 0 4.79226V8.38647H2.78095V4.79226C2.78095 4.13213 3.40528 3.59419 4.17143 3.59419H19.4667C20.2342 3.59419 20.8571 4.13213 20.8571 4.79226V20.3671H2.78095V15.5749H0V22.7633H2.83796C2.80459 22.961 2.78095 23.1598 2.78095 23.3623C2.78095 25.6746 4.964 27.5555 7.64762 27.5555C10.3312 27.5555 12.5143 25.6746 12.5143 23.3623C12.5143 23.1598 12.4906 22.961 12.4573 22.7633H20.9142C20.8808 22.961 20.8571 23.1598 20.8571 23.3623C20.8571 25.6746 23.0402 27.5555 25.7238 27.5555C28.4074 27.5555 30.5905 25.6746 30.5905 23.3623C30.5905 23.1598 30.5668 22.961 30.5335 22.7633H33.3714V11.9807ZM9.73333 23.3623C9.73333 24.3531 8.79754 25.1594 7.64762 25.1594C6.4977 25.1594 5.5619 24.3531 5.5619 23.3623C5.5619 23.1359 5.61613 22.937 5.69122 22.7633H9.60541C9.6805 22.937 9.73333 23.1359 9.73333 23.3623ZM26.419 8.38647C28.7189 8.38647 30.5905 9.99906 30.5905 11.9807V13.1787H23.6381V8.38647H26.419ZM27.8095 23.3623C27.8095 24.3531 26.8737 25.1594 25.7238 25.1594C24.5739 25.1594 23.6381 24.3531 23.6381 23.3623C23.6381 23.1347 23.6923 22.9358 23.7674 22.7633H27.6802C27.7553 22.9358 27.8095 23.1347 27.8095 23.3623ZM23.6381 20.3671V15.5749H30.5905V20.3671H23.6381ZM11.1739 13.1787H0V10.7826H11.1739L7.67265 7.76587L9.63878 6.0718L14.5305 10.2866C15.615 11.2211 15.615 12.7402 14.5305 13.6747L9.63878 17.8895L7.67265 16.1955L11.1739 13.1787Z" fill="white"/>
</g>
<defs>
<clipPath id="clip0_694_18">
<rect width="33.3714" height="28.7536" fill="white"/>
</clipPath>
</defs>
</svg>
