<svg xmlns="http://www.w3.org/2000/svg" viewBox="0 0 100 100"><defs><style>.cls-1{fill:#fce400;}.cls-2{fill:#010101;}.cls-3{fill:#1d1d1b;}</style></defs><g id="Capa_2" data-name="Capa 2"><g id="Capa_1-2" data-name="Capa 1"><rect class="cls-1" width="100" height="100" rx="5"/><path class="cls-2" d="M53.22,51.2v-16a3.21,3.21,0,0,0-6.42,0V48H37.18a3.21,3.21,0,0,0,0,6.42H50A3.21,3.21,0,0,0,53.22,51.2ZM85.29,19.12a3.21,3.21,0,0,0-3.21,3.21V30A38.49,38.49,0,1,0,36,87.07a3.33,3.33,0,0,0,1.17.22,3.21,3.21,0,0,0,1.16-6.2A32.08,32.08,0,1,1,77.71,35.16H69.25a3.21,3.21,0,0,0,0,6.42h9.63A9.63,9.63,0,0,0,88.5,32V22.33a3.21,3.21,0,0,0-3.21-3.21Z"/><path class="cls-3" d="M68.42,81.71H53.6c0-4.28,1.73-7.24,5.3-10.54l2-1.83c2.14-1.94,2.51-3,2.51-5.51,0-2-.85-3-2.38-3-2.45,0-2.68,2.14-2.72,4.69H53.6v-.92c0-4.45,2.35-7,7.48-7,4.83,0,7.21,2.41,7.21,6.56,0,3.13-1,5.17-3.74,7.65l-2.72,2.52a8,8,0,0,0-2.48,3.54h9.07Z"/><path class="cls-3" d="M69.78,72.7l8-15.06h5.07V72.91h2.31v3.8H82.84v5H78.35v-5H69.78Zm8.57-8.94h-.07l-4.69,9.15h4.76Z"/></g></g></svg>