<svg xmlns="http://www.w3.org/2000/svg" viewBox="0 0 100 100"><defs><style>.cls-1{fill:#fce400;}.cls-2{fill:#010101;}</style></defs><g id="Capa_2" data-name="Capa 2"><g id="Capa_1-2" data-name="Capa 1"><rect class="cls-1" width="100" height="100" rx="5"/><path class="cls-2" d="M80.88,74.29v10.3H19.12V74.29A17.07,17.07,0,0,1,31.74,57.74L50,76,68.26,57.74A17.07,17.07,0,0,1,80.88,74.29ZM70.58,43.5a20.59,20.59,0,0,1-41.16,0C33.09,44.74,40,46.43,50,46.43S66.92,44.74,70.58,43.5ZM55.83,16.13a24.21,24.21,0,0,0-11.66,0L22.55,22.28V32.57L29.41,36v3.43S36.28,42.86,50,42.86s20.59-3.43,20.59-3.43V36l6.86-3.43V22.28Zm1,13.23c0,5.19-5,7.61-6.54,8.23l-.32.12-.31-.15c-1.53-.77-6.55-3.63-6.55-8.2v-5a1.53,1.53,0,0,1,1-1.44L50,21l5.82,1.93a1.53,1.53,0,0,1,1,1.44v5Z"/></g></g></svg>