<svg xmlns="http://www.w3.org/2000/svg" viewBox="0 0 100 100"><defs><style>.cls-1{fill:#fce400;}.cls-2{fill:#010101;}</style></defs><g id="Capa_2" data-name="Capa 2"><g id="Capa_1-2" data-name="Capa 1"><rect class="cls-1" width="100" height="100" rx="5"/><path class="cls-2" d="M46.12,88.63H37.06l9.79-29H30.62L27.12,65a9.67,9.67,0,0,1-8.07,4.34H11.42L18.51,50,11.37,30.68H19A9.63,9.63,0,0,1,27.07,35l3.55,5.33H46.86l-9.8-29h9.06a9.67,9.67,0,0,1,8.49,5L68,40.34H78.61a9.94,9.94,0,0,1,9.89,8A9.7,9.7,0,0,1,79,59.66H68l-13.36,24A9.68,9.68,0,0,1,46.12,88.63Z"/></g></g></svg>