<svg xmlns="http://www.w3.org/2000/svg" viewBox="0 0 100 100"><defs><style>.cls-1{fill:#fce400;}.cls-2{fill:#010101;}</style></defs><g id="Capa_2" data-name="Capa 2"><g id="Capa_1-2" data-name="Capa 1"><rect class="cls-1" width="100" height="100" rx="5"/><path class="cls-2" d="M67,59.11H32.5V50.87H67Zm-.11,13H32.38v-9.3H66.91ZM67,83.8H32.5V75.41H67ZM85.44,44.22a8.8,8.8,0,0,0-3.4-7L55.46,16.44a8.87,8.87,0,0,0-10.93,0L18,37.24a8.81,8.81,0,0,0-3.39,7V85.45H29.32V50a3,3,0,0,1,3-3H67.72a3,3,0,0,1,3,3V85.45H85.44Z"/></g></g></svg>