<svg width="32" height="32" viewBox="0 0 32 32" fill="none" xmlns="http://www.w3.org/2000/svg">
<rect width="32" height="32" rx="10" fill="#FCE400"/>
<g clip-path="url(#clip0_53_41)">
<path d="M5 22.7749V11.8883C5 10.9877 5.54656 10.1799 6.38188 9.84645L15.5909 6.16488C15.8522 6.05832 16.1444 6.05832 16.4091 6.16488L25.6181 9.84645C26.4534 10.1799 27 10.9911 27 11.8883V22.7749C27 23.2321 26.6322 23.5999 26.175 23.5999H24.525C24.0678 23.5999 23.7 23.2321 23.7 22.7749V13.6999C23.7 13.0914 23.2084 12.5999 22.6 12.5999H9.4C8.79156 12.5999 8.3 13.0914 8.3 13.6999V22.7749C8.3 23.2321 7.93219 23.5999 7.475 23.5999H5.825C5.36781 23.5999 5 23.2321 5 22.7749ZM21.775 23.5999H10.225C9.76781 23.5999 9.4 23.2321 9.4 22.7749V20.8499H22.6V22.7749C22.6 23.2321 22.2322 23.5999 21.775 23.5999ZM9.4 19.7499V17.5499H22.6V19.7499H9.4ZM9.4 16.4499V13.6999H22.6V16.4499H9.4Z" fill="black"/>
</g>
<defs>
<clipPath id="clip0_53_41">
<rect width="22" height="17.6" fill="white" transform="translate(5 6)"/>
</clipPath>
</defs>
</svg>
