<svg width="42" height="42" viewBox="0 0 42 42" fill="none" xmlns="http://www.w3.org/2000/svg">
<circle cx="21" cy="21" r="21" fill="#FCE400"/>
<path d="M21 7.66675C13.648 7.66675 7.66666 13.6481 7.66666 21.0001C7.66666 28.3521 13.648 34.3334 21 34.3334C28.352 34.3334 34.3333 28.3521 34.3333 21.0001C34.3333 13.6481 28.352 7.66675 21 7.66675ZM21 31.6667C15.1187 31.6667 10.3333 26.8814 10.3333 21.0001C10.3333 15.1187 15.1187 10.3334 21 10.3334C26.8813 10.3334 31.6667 15.1187 31.6667 21.0001C31.6667 26.8814 26.8813 31.6667 21 31.6667Z" fill="black"/>
<path d="M18.332 23.116L15.2667 20.056L13.384 21.944L18.3347 26.884L27.276 17.9427L25.3907 16.0574L18.332 23.116Z" fill="black"/>
</svg>
