<svg width="20" height="22" viewBox="0 0 20 22" fill="none" xmlns="http://www.w3.org/2000/svg">
<path d="M2.85714 1.375C1.28125 1.375 0 2.6082 0 4.125V17.875C0 19.3918 1.28125 20.625 2.85714 20.625H7.24107V14.3602H4.88393V11H7.24107V9.55195C7.24107 5.80937 9 4.07344 12.8214 4.07344C13.5446 4.07344 14.7946 4.21094 15.308 4.34844V7.39062C15.0402 7.36484 14.5714 7.34766 13.9866 7.34766C12.1116 7.34766 11.3884 8.03086 11.3884 9.80547V11H15.1205L14.4777 14.3602H11.3839V20.625H17.1429C18.7188 20.625 20 19.3918 20 17.875V4.125C20 2.6082 18.7188 1.375 17.1429 1.375H2.85714Z" fill="#FCE400"/>
</svg>
