<svg width="48" height="48" viewBox="0 0 48 48" fill="none" xmlns="http://www.w3.org/2000/svg">
<rect width="48" height="48" rx="7" fill="#FCE400"/>
<path d="M30.9271 8.16675H17.0666C16.7119 8.16675 14.8515 8.26966 13.1035 10.3058C11.3824 12.3087 11.3333 14.2816 11.3333 14.5001V31.9167C11.3333 32.7566 11.6669 33.5621 12.2608 34.1559C12.8547 34.7498 13.6601 35.0834 14.5 35.0834H16.0833L12.9166 39.8334H16.6422L17.6983 38.2501H30.365L31.4369 39.8334H35.0833L31.9166 35.0834H33.5C34.3398 35.0834 35.1453 34.7498 35.7391 34.1559C36.333 33.5621 36.6666 32.7566 36.6666 31.9167V14.5001C36.6682 14.2024 36.616 12.2296 34.8791 10.2805C33.0487 8.22533 31.1392 8.16675 30.9271 8.16675ZM20.8333 11.3334H27.1666V14.5001H20.8333V11.3334ZM16.875 31.9167C16.2449 31.9165 15.6407 31.666 15.1953 31.2203C14.7499 30.7746 14.4998 30.1703 14.5 29.5402C14.5002 28.9101 14.7507 28.3059 15.1964 27.8605C15.6421 27.4151 16.2465 27.165 16.8766 27.1652C17.5067 27.1654 18.1109 27.4159 18.5563 27.8616C19.0017 28.3073 19.2518 28.9116 19.2516 29.5417C19.2514 30.1718 19.0008 30.7761 18.5551 31.2215C18.1095 31.6669 17.5051 31.917 16.875 31.9167ZM31.125 31.9167C30.4949 31.9165 29.8907 31.666 29.4453 31.2203C28.9999 30.7746 28.7498 30.1703 28.75 29.5402C28.7502 28.9101 29.0007 28.3059 29.4464 27.8605C29.8921 27.4151 30.4965 27.165 31.1266 27.1652C31.7567 27.1654 32.3609 27.4159 32.8063 27.8616C33.2517 28.3073 33.5018 28.9116 33.5016 29.5417C33.5014 30.1718 33.2508 30.7761 32.8052 31.2215C32.3595 31.6669 31.7551 31.917 31.125 31.9167ZM33.5 24.0001H14.5V17.6667H33.5V24.0001Z" fill="black"/>
</svg>
