<svg xmlns="http://www.w3.org/2000/svg" viewBox="0 0 100 100"><defs><style>.cls-1{fill:#fce400;}.cls-2{fill:#010101;}</style></defs><g id="Capa_2" data-name="Capa 2"><g id="Capa_1-2" data-name="Capa 1"><rect class="cls-1" width="100" height="100" rx="5"/><path class="cls-2" d="M31.36,12.72a14,14,0,0,0-14,14V64A14,14,0,0,0,29.19,77.8l-6.7,6.7a1.63,1.63,0,0,0,1.15,2.78h5.78a4.61,4.61,0,0,0,3.29-1.37l8-8H59.32l7.95,8a4.65,4.65,0,0,0,3.29,1.37h5.8a1.62,1.62,0,0,0,1.15-2.78l-6.7-6.7A14,14,0,0,0,82.62,64V26.7a14,14,0,0,0-14-14ZM26.7,31.36a4.65,4.65,0,0,1,4.66-4.66H43a4.65,4.65,0,0,1,4.66,4.66v14A4.65,4.65,0,0,1,43,50H31.36a4.65,4.65,0,0,1-4.66-4.66ZM57,26.7H68.64a4.65,4.65,0,0,1,4.66,4.66v14A4.65,4.65,0,0,1,68.64,50H57a4.65,4.65,0,0,1-4.66-4.66v-14A4.65,4.65,0,0,1,57,26.7ZM26.7,64a4.66,4.66,0,1,1,4.66,4.66A4.66,4.66,0,0,1,26.7,64Zm41.94-4.66A4.66,4.66,0,1,1,64,64,4.66,4.66,0,0,1,68.64,59.32Z"/></g></g></svg>