<svg width="20" height="22" viewBox="0 0 20 22" fill="none" xmlns="http://www.w3.org/2000/svg">
<path d="M8.67857 9.09648C8.41857 9.26379 8.19534 9.47875 8.02165 9.72909C7.84796 9.97943 7.72719 10.2603 7.66625 10.5555C7.54318 11.1518 7.67126 11.7708 8.02232 12.2762C8.37338 12.7816 8.91865 13.1321 9.53819 13.2505C10.1577 13.369 10.8008 13.2457 11.3259 12.9078C11.851 12.5699 12.2151 12.0451 12.3382 11.4488C12.4613 10.8525 12.3332 10.2335 11.9821 9.72813C11.6311 9.22271 11.0858 8.87223 10.4663 8.75377C9.84673 8.63531 9.20368 8.75859 8.67857 9.09648ZM15.0313 6.15742C14.7991 5.93398 14.5179 5.75781 14.2098 5.6418C13.4018 5.33672 11.6384 5.34961 10.5 5.3625C10.317 5.3625 10.1473 5.3668 10 5.3668C9.85268 5.3668 9.67857 5.3668 9.49107 5.3625C8.35268 5.34961 6.59821 5.33242 5.79018 5.6418C5.48214 5.75781 5.20536 5.93398 4.96875 6.15742C4.73214 6.38086 4.55357 6.65156 4.43304 6.94805C4.11607 7.72578 4.13393 9.42734 4.14286 10.523C4.14286 10.6992 4.14732 10.8625 4.14732 11C4.14732 11.1375 4.14732 11.3008 4.14286 11.477C4.13393 12.5727 4.11607 14.2742 4.43304 15.052C4.55357 15.3484 4.73661 15.6148 4.96875 15.8426C5.20089 16.0703 5.48214 16.2422 5.79018 16.3582C6.59821 16.6633 8.36161 16.6504 9.5 16.6375C9.68304 16.6375 9.85268 16.6332 10 16.6332C10.1473 16.6332 10.3214 16.6332 10.5089 16.6375C11.6473 16.6504 13.4018 16.6676 14.2098 16.3582C14.5179 16.2422 14.7946 16.066 15.0313 15.8426C15.2679 15.6191 15.4464 15.3484 15.567 15.052C15.8884 14.2785 15.8705 12.5855 15.8571 11.4855C15.8571 11.3051 15.8527 11.1375 15.8527 10.9957C15.8527 10.8539 15.8527 10.6906 15.8571 10.5059C15.8705 9.41016 15.8884 7.71719 15.567 6.93945C15.4464 6.64297 15.2634 6.37656 15.0313 6.14883V6.15742ZM12.0357 8.06953C12.8432 8.58919 13.4031 9.39631 13.5924 10.3133C13.7816 11.2304 13.5845 12.1822 13.0446 12.9594C12.7773 13.3442 12.4338 13.6746 12.0338 13.9317C11.6339 14.1887 11.1852 14.3675 10.7134 14.4576C9.76067 14.6398 8.77178 14.4501 7.96429 13.9305C7.1568 13.4114 6.59662 12.6048 6.40699 11.6882C6.21736 10.7716 6.41381 9.81998 6.95313 9.04277C7.49244 8.26557 8.33044 7.7264 9.28277 7.54388C10.2351 7.36136 11.2238 7.55044 12.0313 8.06953H12.0357ZM13.3393 8.01367C13.2009 7.92344 13.0893 7.79453 13.0223 7.64414C12.9554 7.49375 12.942 7.33047 12.9732 7.16719C13.0045 7.00391 13.0893 6.86211 13.2054 6.74609C13.3214 6.63008 13.4777 6.55273 13.6429 6.52266C13.808 6.49258 13.9821 6.50547 14.1384 6.56992C14.2946 6.63438 14.4286 6.7375 14.5223 6.8707C14.6161 7.00391 14.6652 7.16289 14.6652 7.32617C14.6652 7.43359 14.6429 7.54102 14.6027 7.63984C14.5625 7.73867 14.4955 7.82891 14.4196 7.90625C14.3438 7.98359 14.2455 8.04375 14.1429 8.08672C14.0402 8.12969 13.9286 8.15117 13.817 8.15117C13.6473 8.15117 13.4821 8.10391 13.3438 8.01367H13.3393ZM20 4.125C20 2.6082 18.7188 1.375 17.1429 1.375H2.85714C1.28125 1.375 0 2.6082 0 4.125V17.875C0 19.3918 1.28125 20.625 2.85714 20.625H17.1429C18.7188 20.625 20 19.3918 20 17.875V4.125ZM15.9375 16.7148C15.1027 17.5184 14.0893 17.7719 12.9464 17.8277C11.7679 17.8922 8.23214 17.8922 7.05357 17.8277C5.91071 17.7719 4.89732 17.5184 4.0625 16.7148C3.22768 15.9113 2.96429 14.9359 2.91071 13.8359C2.84375 12.7016 2.84375 9.29844 2.91071 8.16406C2.96875 7.06406 3.22768 6.08867 4.0625 5.28516C4.89732 4.48164 5.91518 4.22813 7.05357 4.17656C8.23214 4.11211 11.7679 4.11211 12.9464 4.17656C14.0893 4.23242 15.1027 4.48164 15.9375 5.28516C16.7723 6.08867 17.0357 7.06406 17.0893 8.16406C17.1562 9.29414 17.1562 12.693 17.0893 13.8316C17.0312 14.9316 16.7723 15.907 15.9375 16.7105V16.7148Z" fill="#FCE400"/>
</svg>
