<svg width="32" height="32" viewBox="0 0 32 32" fill="none" xmlns="http://www.w3.org/2000/svg">
<rect width="32" height="32" rx="10" fill="#FCE400"/>
<path d="M16 6C10.486 6 6 10.486 6 16C6 21.514 10.486 26 16 26C21.514 26 26 21.514 26 16C26 10.486 21.514 6 16 6ZM8 16C8 15.101 8.156 14.238 8.431 13.431L10 15L12 17V19L14 21L15 22V23.931C11.061 23.436 8 20.072 8 16ZM22.33 20.873C21.677 20.347 20.687 20 20 20V19C20 18.4696 19.7893 17.9609 19.4142 17.5858C19.0391 17.2107 18.5304 17 18 17H14V14C14.5304 14 15.0391 13.7893 15.4142 13.4142C15.7893 13.0391 16 12.5304 16 12V11H17C17.5304 11 18.0391 10.7893 18.4142 10.4142C18.7893 10.0391 19 9.53043 19 9V8.589C21.928 9.778 24 12.65 24 16C23.9998 17.7647 23.4123 19.4791 22.33 20.873Z" fill="black"/>
</svg>
