<svg xmlns="http://www.w3.org/2000/svg" viewBox="0 0 100 100"><defs><style>.cls-1{fill:#fce400;}.cls-2{fill:#010101;}</style></defs><g id="Capa_2" data-name="Capa 2"><g id="Capa_1-2" data-name="Capa 1"><rect class="cls-1" width="100" height="100" rx="5"/><path class="cls-2" d="M50,37.76,26.47,45.6V38.23a8.82,8.82,0,0,1,8.82-8.82H64.71a8.82,8.82,0,0,1,8.82,8.82V45.6ZM79.42,76.47c0,1-2,3-5.15,3a6,6,0,0,1-4.76-2.06,32.79,32.79,0,0,0,9.91-23.44v-.16L52.94,44.94V76.47H47.06V44.94L20.58,53.77v.15a32.81,32.81,0,0,0,9.93,23.44,6,6,0,0,1-4.78,2.06c-3.2,0-5.15-2-5.15-3H14.7c0,4.79,5.05,8.83,11,8.83a12.34,12.34,0,0,0,8.09-2.94A12.7,12.7,0,0,0,50,82.4a12.7,12.7,0,0,0,16.18,0,12.32,12.32,0,0,0,8.09,2.94c6,0,11-4,11-8.83ZM61.77,20.58a5.89,5.89,0,0,0-5.89-5.88H44.12a5.89,5.89,0,0,0-5.89,5.88v3H61.77Z"/></g></g></svg>