<svg xmlns="http://www.w3.org/2000/svg" viewBox="0 0 100 100"><defs><style>.cls-1{fill:#fce400;}.cls-2{fill:#010101;}.cls-3{fill:#fcea10;}</style></defs><g id="Capa_2" data-name="Capa 2"><g id="Capa_1-2" data-name="Capa 1"><rect class="cls-1" width="100" height="100" rx="5"/><path class="cls-2" d="M78.32,37.13a8.77,8.77,0,0,0-8.64-7.49H59.16a10.16,10.16,0,1,0-19.34-4.36,10,10,0,0,0,1,4.36H30.32a8.77,8.77,0,0,0-8.64,7.49L15.12,83l0,1.86H84.91V83.45ZM45.64,25.28A4.36,4.36,0,1,1,50,29.64,4.37,4.37,0,0,1,45.64,25.28Z"/><path class="cls-3" d="M38.82,47.32,42.1,45l-1,7.45H37.44L37.52,45H61.3l0,7.45H57.67l-1-7.45L60,47.32ZM50.37,67.78l6.12.59V70.7H42.33V68.37l6-.59ZM45.49,57.21c0-4.06,0-8.16-.12-12.22h8c-.12,4-.12,8.08-.12,12.22v1.23c0,4.1,0,8.2.12,12.26h-8c.12-4,.12-8.08.12-12.22Z"/></g></g></svg>