<svg width="32" height="32" viewBox="0 0 32 32" fill="none" xmlns="http://www.w3.org/2000/svg">
<path d="M25.364 22.636C24.7395 22.0378 24.1318 21.4225 23.5414 20.7907C23.0454 20.2867 22.7467 19.92 22.7467 19.92L19.0134 18.1373C20.508 16.4422 21.3329 14.26 21.3334 12C21.3334 6.85466 17.1467 2.66666 12 2.66666C6.85335 2.66666 2.66669 6.85466 2.66669 12C2.66669 17.1453 6.85335 21.3333 12 21.3333C14.3507 21.3333 16.4934 20.4533 18.1374 19.0147L19.92 22.748C19.92 22.748 20.2867 23.0467 20.7907 23.5427C21.3067 24.0267 21.9854 24.6813 22.636 25.3653L24.4467 27.2213L25.252 28.0827L28.08 25.2547L27.2187 24.4493C26.7134 23.9533 26.0387 23.2947 25.364 22.636ZM12 18.6667C8.32402 18.6667 5.33335 15.676 5.33335 12C5.33335 8.32399 8.32402 5.33332 12 5.33332C15.676 5.33332 18.6667 8.32399 18.6667 12C18.6667 15.676 15.676 18.6667 12 18.6667Z" fill="white"/>
</svg>
