<svg xmlns="http://www.w3.org/2000/svg" viewBox="0 0 100 100"><defs><style>.cls-1{fill:#fce400;}.cls-2{fill:#010101;}</style></defs><g id="Capa_2" data-name="Capa 2"><g id="Capa_1-2" data-name="Capa 1"><rect class="cls-1" width="100" height="100" rx="5"/><path class="cls-2" d="M36.83,76A8,8,0,0,1,37,77.6a8.12,8.12,0,0,1-16.23,0A8,8,0,0,1,21,76ZM50,14.29H20.78A9.75,9.75,0,0,0,11,24V40.26H37.13L29,32.09l4.59-4.59L45,38.92a6.5,6.5,0,0,1,0,9.18L33.55,59.52,29,54.93l8.17-8.18H11V69.48h48.7V24A9.75,9.75,0,0,0,50,14.29ZM66.23,69.48H89V53.25H66.23ZM66.42,76a8,8,0,0,0-.19,1.63,8.12,8.12,0,0,0,16.24,0A8,8,0,0,0,82.28,76Zm6.31-48.7h-6.5V46.75H89V43.51A16.26,16.26,0,0,0,72.73,27.27Z"/></g></g></svg>