<svg width="32" height="32" viewBox="0 0 32 32" fill="none" xmlns="http://www.w3.org/2000/svg">
<rect width="32" height="32" rx="10" fill="#FCE400"/>
<path d="M23.15 12C22.9755 11.6977 22.7249 11.4464 22.4232 11.2709C22.1214 11.0955 21.779 11.0021 21.43 11H19V9C19 8.73478 18.8946 8.48043 18.7071 8.29289C18.5196 8.10536 18.2652 8 18 8H8C7.46957 8 6.96086 8.21071 6.58579 8.58579C6.21071 8.96086 6 9.46957 6 10V20C6.00036 20.3507 6.09294 20.6952 6.26846 20.9988C6.44398 21.3025 6.69626 21.5546 7 21.73C6.9642 22.6583 7.29861 23.5627 7.92967 24.2444C8.56073 24.9261 9.43674 25.3292 10.365 25.365C11.2933 25.4008 12.1977 25.0664 12.8794 24.4353C13.5611 23.8043 13.9642 22.9283 14 22H17.1C17.2106 22.8367 17.6215 23.6047 18.2561 24.161C18.8908 24.7173 19.706 25.024 20.55 25.024C21.394 25.024 22.2092 24.7173 22.8439 24.161C23.4785 23.6047 23.8894 22.8367 24 22C24.5304 22 25.0391 21.7893 25.4142 21.4142C25.7893 21.0391 26 20.5304 26 20V17C25.9984 16.8176 25.9502 16.6386 25.86 16.48L23.15 12ZM19 13H21.43L23.23 16H19V13ZM10.5 23C10.2033 23 9.91332 22.912 9.66664 22.7472C9.41997 22.5824 9.22771 22.3481 9.11418 22.074C9.00065 21.7999 8.97094 21.4983 9.02882 21.2074C9.0867 20.9164 9.22956 20.6491 9.43934 20.4393C9.64912 20.2296 9.91639 20.0867 10.2074 20.0288C10.4983 19.9709 10.7999 20.0007 11.074 20.1142C11.3481 20.2277 11.5824 20.42 11.7472 20.6666C11.912 20.9133 12 21.2033 12 21.5C12 21.8978 11.842 22.2794 11.5607 22.5607C11.2794 22.842 10.8978 23 10.5 23ZM20.5 23C20.2033 23 19.9133 22.912 19.6666 22.7472C19.42 22.5824 19.2277 22.3481 19.1142 22.074C19.0006 21.7999 18.9709 21.4983 19.0288 21.2074C19.0867 20.9164 19.2296 20.6491 19.4393 20.4393C19.6491 20.2296 19.9164 20.0867 20.2074 20.0288C20.4983 19.9709 20.7999 20.0007 21.074 20.1142C21.3481 20.2277 21.5824 20.42 21.7472 20.6666C21.912 20.9133 22 21.2033 22 21.5C22 21.8978 21.842 22.2794 21.5607 22.5607C21.2794 22.842 20.8978 23 20.5 23Z" fill="black"/>
</svg>
