<svg width="20" height="22" viewBox="0 0 20 22" fill="none" xmlns="http://www.w3.org/2000/svg">
<path d="M2.85714 1.375C1.28125 1.375 0 2.6082 0 4.125V17.875C0 19.3918 1.28125 20.625 2.85714 20.625H17.1429C18.7188 20.625 20 19.3918 20 17.875V4.125C20 2.6082 18.7188 1.375 17.1429 1.375H2.85714ZM16.1205 4.98438L11.4866 10.0805L16.9375 17.0156H12.6696L9.33036 12.809L5.50446 17.0156H3.38393L8.33929 11.5629L3.11161 4.98438H7.48661L10.5089 8.83008L14 4.98438H16.1205ZM14.433 15.7953L6.84821 6.14023H5.58482L13.2545 15.7953H14.4286H14.433Z" fill="#FCE400"/>
</svg>
