<svg width="40" height="40" viewBox="0 0 40 40" fill="none" xmlns="http://www.w3.org/2000/svg">
<g clip-path="url(#clip0_803_21)">
<path d="M40 35C40 37.71 37.1367 40 33.75 40C32.072 40.0106 30.4459 39.4193 29.1667 38.3333C27.8797 39.4023 26.2605 39.9895 24.5875 39.9937C22.9145 39.998 21.2923 39.4191 20 38.3567C18.7123 39.4202 17.0933 40 15.4233 39.9957C13.7532 39.9914 12.1372 39.4034 10.855 38.3333C9.56983 39.4237 7.9353 40.0152 6.25 40C2.86333 40 0 37.71 0 35C0 34.558 0.175595 34.134 0.488155 33.8215C0.800716 33.5089 1.22464 33.3333 1.66667 33.3333C2.10869 33.3333 2.53262 33.5089 2.84518 33.8215C3.15774 34.134 3.33333 34.558 3.33333 35C3.33333 35.51 4.435 36.6667 6.25 36.6667C6.75158 36.6892 7.25178 36.5984 7.71345 36.401C8.17511 36.2037 8.58637 35.9048 8.91667 35.5267C8.849 35.4174 8.77498 35.3122 8.695 35.2117C5.961 32.3656 4.11526 28.7847 3.38333 24.9067C3.166 23.7205 3.38467 22.4958 3.99905 21.4581C4.61344 20.4205 5.58214 19.6398 6.72667 19.26L18.3333 15.465V31.6667C18.3333 32.1087 18.5089 32.5326 18.8215 32.8452C19.134 33.1577 19.558 33.3333 20 33.3333C20.442 33.3333 20.8659 33.1577 21.1785 32.8452C21.4911 32.5326 21.6667 32.1087 21.6667 31.6667V15.465L33.2183 19.2567C34.3598 19.6402 35.3249 20.422 35.9371 21.4589C36.5492 22.4959 36.7674 23.7187 36.5517 24.9033C35.8376 28.7767 34.0097 32.3579 31.2917 35.2083C31.2147 35.3063 31.1434 35.4087 31.0783 35.515C31.4094 35.8942 31.8212 36.1945 32.2836 36.3938C32.7459 36.5931 33.2469 36.6863 33.75 36.6667C35.53 36.6667 36.6667 35.5733 36.6667 35C36.6667 34.558 36.8423 34.134 37.1548 33.8215C37.4674 33.5089 37.8913 33.3333 38.3333 33.3333C38.7754 33.3333 39.1993 33.5089 39.5118 33.8215C39.8244 34.134 40 34.558 40 35ZM20 11.6667C20.9277 11.7461 21.8392 11.9583 22.7067 12.2967L33.3333 15.785V12.3333C33.3333 10.8304 32.7363 9.3891 31.6736 8.32639C30.6109 7.26369 29.1696 6.66667 27.6667 6.66667H25V5C25 3.67392 24.4732 2.40215 23.5355 1.46447C22.5979 0.526784 21.3261 0 20 0C18.6739 0 17.4021 0.526784 16.4645 1.46447C15.5268 2.40215 15 3.67392 15 5V6.66667H12.3333C10.8304 6.66667 9.3891 7.26369 8.32639 8.32639C7.26369 9.3891 6.66667 10.8304 6.66667 12.3333V15.7717L17.2983 12.2967C18.1636 11.9568 19.0737 11.7446 20 11.6667Z" fill="white"/>
</g>
<defs>
<clipPath id="clip0_803_21">
<rect width="40" height="40" fill="white"/>
</clipPath>
</defs>
</svg>
