<svg width="40" height="38" viewBox="0 0 40 38" fill="none" xmlns="http://www.w3.org/2000/svg">
<path d="M13.2367 32.0779C13.2933 32.3514 13.3333 32.6317 13.3333 32.9221C13.3333 35.2536 11.4683 37.1429 9.16667 37.1429C6.865 37.1429 5 35.2536 5 32.9221C5 32.6317 5.04 32.3514 5.09667 32.0779H13.2367ZM20 0H5C2.24333 0 0 2.27247 0 5.06494V13.5065H13.3933L9.19667 9.25532L11.5533 6.86805L17.4167 12.8075C18.7167 14.1244 18.7167 16.2652 17.4167 17.5821L11.5533 23.5216L9.19667 21.1343L13.3933 16.8831H0V28.7013H25V5.06494C25 2.27247 22.7567 0 20 0ZM28.3333 28.7013H40V20.2597H28.3333V28.7013ZM28.43 32.0779C28.3733 32.3514 28.3333 32.6317 28.3333 32.9221C28.3333 35.2536 30.1983 37.1429 32.5 37.1429C34.8017 37.1429 36.6667 35.2536 36.6667 32.9221C36.6667 32.6317 36.6267 32.3514 36.57 32.0779H28.4283H28.43ZM31.6667 6.75325H28.3333V16.8831H40V15.1948C40 10.5401 36.2617 6.75325 31.6667 6.75325Z" fill="white"/>
</svg>
