<svg width="40" height="40" viewBox="0 0 40 40" fill="none" xmlns="http://www.w3.org/2000/svg">
<g clip-path="url(#clip0_803_18)">
<path d="M20 23.3333C18.6739 23.3333 17.4021 23.86 16.4645 24.7977C15.5268 25.7354 15 27.0072 15 28.3333V40.0433H25V28.3333C25 27.0072 24.4732 25.7354 23.5355 24.7977C22.5979 23.86 21.3261 23.3333 20 23.3333Z" fill="white"/>
<path d="M22.23 1.38826C21.6179 0.837323 20.8235 0.532471 20 0.532471C19.1765 0.532471 18.3821 0.837323 17.77 1.38826L0 17.3816V34.7149C0 36.1294 0.561903 37.486 1.5621 38.4862C2.56229 39.4864 3.91885 40.0483 5.33333 40.0483H11.6667V28.3333C11.6667 26.1231 12.5446 24.0035 14.1074 22.4407C15.6702 20.8779 17.7899 19.9999 20 19.9999C22.2101 19.9999 24.3298 20.8779 25.8926 22.4407C27.4554 24.0035 28.3333 26.1231 28.3333 28.3333V40.0433H34.6667C36.0812 40.0433 37.4377 39.4814 38.4379 38.4812C39.4381 37.481 40 36.1244 40 34.7099V17.3766L22.23 1.38826Z" fill="white"/>
</g>
<defs>
<clipPath id="clip0_803_18">
<rect width="40" height="40" fill="white"/>
</clipPath>
</defs>
</svg>
