<svg width="40" height="40" viewBox="0 0 40 40" fill="none" xmlns="http://www.w3.org/2000/svg">
<g clip-path="url(#clip0_803_35)">
<path d="M31.4999 27.9599C34.1608 24.4039 35.3758 19.972 34.9004 15.5562C34.425 11.1404 32.2945 7.0686 28.9377 4.16048C25.5809 1.25237 21.247 -0.276167 16.8086 -0.117429C12.3701 0.0413085 8.1565 1.87553 5.01602 5.01602C1.87553 8.1565 0.0413085 12.3701 -0.117429 16.8086C-0.276167 21.247 1.25237 25.5809 4.16048 28.9377C7.0686 32.2945 11.1404 34.425 15.5562 34.9004C19.972 35.3758 24.4039 34.1608 27.9599 31.4999L36.4599 39.9999L39.9999 36.4666L31.4999 27.9599ZM17.4999 29.9999C15.0276 29.9999 12.6109 29.2668 10.5553 27.8933C8.49967 26.5198 6.89751 24.5675 5.95142 22.2835C5.00532 19.9994 4.75778 17.486 5.2401 15.0613C5.72241 12.6365 6.91292 10.4092 8.66108 8.66108C10.4092 6.91292 12.6365 5.72241 15.0613 5.2401C17.486 4.75778 19.9994 5.00532 22.2835 5.95142C24.5675 6.89751 26.5198 8.49967 27.8933 10.5553C29.2668 12.6109 29.9999 15.0276 29.9999 17.4999C29.9968 20.8142 28.6789 23.9918 26.3353 26.3353C23.9918 28.6789 20.8142 29.9968 17.4999 29.9999Z" fill="white"/>
</g>
<defs>
<clipPath id="clip0_803_35">
<rect width="40" height="40" fill="white"/>
</clipPath>
</defs>
</svg>
