<?xml version="1.0" encoding="UTF-8"?>
<svg id="Layer_1" data-name="Layer 1" xmlns="http://www.w3.org/2000/svg" version="1.1" viewBox="0 0 5000 5000">
  <defs>
    <style>
      .cls-1 {
        fill: #1f3241;
      }

      .cls-1, .cls-2, .cls-3, .cls-4, .cls-5, .cls-6, .cls-7, .cls-8, .cls-9, .cls-10, .cls-11, .cls-12, .cls-13, .cls-14, .cls-15, .cls-16, .cls-17, .cls-18, .cls-19, .cls-20, .cls-21, .cls-22, .cls-23, .cls-24, .cls-25, .cls-26, .cls-27, .cls-28, .cls-29 {
        stroke-width: 0px;
      }

      .cls-2 {
        fill: #dbe6fa;
      }

      .cls-3 {
        fill: #9ea9c9;
      }

      .cls-4 {
        fill: #385165;
      }

      .cls-5 {
        fill: #ebf2ff;
      }

      .cls-6 {
        fill: #6eba6e;
      }

      .cls-7 {
        fill: #3a63df;
      }

      .cls-30 {
        isolation: isolate;
      }

      .cls-8 {
        fill: #b0b8cf;
      }

      .cls-9 {
        fill: #3d4449;
      }

      .cls-10 {
        fill: #f04343;
      }

      .cls-11 {
        fill: #ffca6c;
      }

      .cls-12 {
        fill: #ffb63c;
      }

      .cls-13 {
        fill: #bac1ce;
      }

      .cls-14 {
        fill: #ffde9b;
      }

      .cls-15 {
        fill: #181e1e;
      }

      .cls-31 {
        opacity: .3;
      }

      .cls-16 {
        fill: #ff6161;
      }

      .cls-17 {
        fill: #332e2a;
      }

      .cls-18 {
        fill: #c1c4c9;
      }

      .cls-19 {
        fill: #312c29;
      }

      .cls-20 {
        fill: #cbdbf4;
      }

      .cls-21 {
        fill: #2a3134;
      }

      .cls-22 {
        fill: #bbcfef;
      }

      .cls-23 {
        fill: #e63044;
      }

      .cls-24 {
        fill: #e3e7f0;
      }

      .cls-25 {
        fill: #fff;
      }

      .cls-26 {
        fill: #4f91ff;
      }

      .cls-27 {
        fill: #e22525;
      }

      .cls-28 {
        fill: #2d2c2b;
      }

      .cls-29 {
        fill: #4f575f;
      }
    </style>
  </defs>
  <g id="_65" data-name="65">
    <g>
      <g class="cls-30">
        <polygon class="cls-15" points="4537.2 3656.6 4536.8 3793.7 3063.2 4650 3063.6 4512.9 4537.2 3656.6"/>
        <polygon class="cls-20" points="3141.9 4467.5 3141.5 4604.5 3063.2 4650 3063.6 4512.9 3141.9 4467.5"/>
        <polygon class="cls-20" points="4537.2 3656.7 4536.8 3793.7 4458.6 3839.2 4459 3702.1 4537.2 3656.7"/>
        <polygon class="cls-22" points="3063.6 4512.9 3063.2 4650 462.8 3148.6 463.2 3011.6 3063.6 4512.9"/>
        <polygon class="cls-9" points="4537.2 3656.6 3063.6 4512.9 463.2 3011.6 1936.8 2155.3 4537.2 3656.6"/>
      </g>
      <polygon class="cls-5" points="3688.7 3975 3610.5 4020.4 3395.2 3896.1 3473.4 3850.7 3688.7 3975"/>
      <polygon class="cls-5" points="3141.9 4467.5 3063.6 4512.9 463.2 3011.5 541.4 2966.1 3141.9 4467.5"/>
      <polygon class="cls-5" points="4537.2 3656.7 4459 3702.1 1858.5 2200.7 1936.8 2155.3 4537.2 3656.7"/>
    </g>
    <g>
      <g>
        <g>
          <path class="cls-29" d="M986.5,2691c-5,2.9-8.4,8.6-9.4,16.7l-26.9,228.8,111.5-64.8,26.9-228.8c.9-8.1,4.4-13.8,9.4-16.7l-111.5,64.8Z"/>
          <g class="cls-30">
            <polygon class="cls-1" points="1023.6 2997.8 1118.1 2942.9 1113.9 2946.2 1019.4 3001.1 1023.6 2997.8"/>
            <polygon class="cls-1" points="1005.5 2976.9 1100 2922 1105 2920.1 1010.5 2975 1005.5 2976.9"/>
            <polygon class="cls-9" points="1043.9 3026.7 1138.4 2971.8 1135.1 2976.4 1040.6 3031.3 1043.9 3026.7"/>
            <polygon class="cls-1" points="989.9 2943.5 1084.4 2888.6 1090.1 2888.1 995.6 2943 989.9 2943.5"/>
            <polygon class="cls-9" points="1066.5 3052.6 1161 2997.7 1158.7 3003.4 1064.2 3058.3 1066.5 3052.6"/>
            <polygon class="cls-29" points="978.4 2909.6 1072.9 2854.7 1079 2855.7 984.5 2910.6 978.4 2909.6"/>
            <polygon class="cls-9" points="1090.7 3074.7 1185.2 3019.8 1184 3026.5 1089.5 3081.4 1090.7 3074.7"/>
            <polygon class="cls-29" points="971.1 2876.3 1065.6 2821.4 1072 2823.8 977.5 2878.7 971.1 2876.3"/>
            <polygon class="cls-9" points="1115.8 3092.4 1210.3 3037.5 1210.2 3044.9 1115.7 3099.8 1115.8 3092.4"/>
            <polygon class="cls-29" points="970.1 2823.2 1064.6 2768.3 1071 2773.3 976.5 2828.2 970.1 2823.2"/>
            <polygon class="cls-9" points="1140.9 3105.1 1235.4 3050.2 1236.5 3058.2 1142 3113.1 1140.9 3105.1"/>
            <path class="cls-1" d="M1213.6,3004.7c-31.5,18.3-63,36.6-94.5,54.9-62.1-35.9-112.6-121.9-114.2-193.8l94.5-54.9c1.6,71.9,52,157.9,114.2,193.8Z"/>
            <path class="cls-4" d="M1119.2,3046.1c-55.6-32.1-100.8-109-102.4-173.4l94.5-54.9c1.6,64.4,46.8,141.3,102.4,173.4-4.4,2.6-91.4,53.1-94.5,54.9Z"/>
            <path class="cls-18" d="M1134.4,2873.5c8.5,24.2,22.2,47.9,39,67.5l-94.5,54.9c-16.8-19.5-30.5-43.2-39-67.5,28.3-16.5,66.1-38.4,94.5-54.9Z"/>
            <polygon class="cls-29" points="976.5 2797.4 1071 2742.5 1077 2748.6 982.5 2803.5 976.5 2797.4"/>
            <path class="cls-18" d="M1030.4,2880.6l94.5-54.9c.3,9.8,1.7,19.9,4.2,30.1l-94.5,54.9c-2.5-10.2-4-20.3-4.2-30.1Z"/>
            <polygon class="cls-9" points="1165.5 3112.3 1260 3057.4 1262.2 3065.7 1167.7 3120.6 1165.5 3112.3"/>
            <path class="cls-18" d="M1091.6,3009.3l94.5-54.9c8.7,8.3,17.9,15.4,27.6,21l-94.5,54.9c-9.7-5.6-18.9-12.7-27.6-21Z"/>
            <path class="cls-1" d="M1132.8,2741.5c-19.8,11.5-32.4,35.5-33.4,69.5l-94.5,54.9c1-34,13.6-58,33.4-69.5,28.3-16.5,66.1-38.4,94.5-54.9Z"/>
            <path class="cls-4" d="M1141.2,2755.8c-17.7,10.3-28.9,31.6-29.9,61.9l-94.5,54.9c1-30.3,12.2-51.7,29.9-61.9,28.3-16.5,66.1-38.4,94.5-54.9Z"/>
            <path class="cls-18" d="M1129.2,2800.6c-2.5,7.3-4,15.6-4.3,25l-94.5,54.9c.3-9.4,1.8-17.7,4.3-25,31.5-18.3,63-36.6,94.5-54.9Z"/>
            <polygon class="cls-1" points="1039.9 2928.4 1134.4 2873.5 1178.7 2883.1 1084.2 2938 1039.9 2928.4"/>
            <polygon class="cls-18" points="1034.7 2910.7 1129.2 2855.8 1170.4 2854.8 1075.9 2909.7 1034.7 2910.7"/>
            <polygon class="cls-1" points="1034.8 2855.4 1129.3 2800.5 1170.5 2849 1076 2903.9 1034.8 2855.4"/>
            <path class="cls-18" d="M1129.2,2800.6c-227.9,132.2,30.5-18.3,0-.2,0,0,0,.1,0,.2Z"/>
            <polygon class="cls-29" points="987.1 2775.8 1081.6 2720.9 1087.2 2727.8 992.7 2782.8 987.1 2775.8"/>
            <polygon class="cls-1" points="1092.9 2953 1187.4 2898.1 1173.3 2940.9 1078.8 2995.8 1092.9 2953"/>
            <path class="cls-1" d="M1084.2,2938l94.5-54.9c.7.1,1.5.4,2.2.9l-94.5,54.9c-.7-.4-1.4-.7-2.2-.9Z"/>
            <polygon class="cls-9" points="1188.6 3114.1 1283.1 3059.2 1286.3 3067.5 1191.8 3122.4 1188.6 3114.1"/>
            <path class="cls-1" d="M1213.6,3004.7c31.9,18.4,60.7,20.1,81.6,8l-94.5,54.9c-20.8,12.1-49.7,10.4-81.6-8,31.5-18.3,63-36.6,94.5-54.9Z"/>
            <path class="cls-4" d="M1213.7,2991.2c28.6,16.5,54.5,18,73.2,7.2l-94.5,54.9c-18.7,10.9-44.6,9.3-73.2-7.2,10.3-6,86.5-50.3,94.5-54.9Z"/>
            <path class="cls-18" d="M1119.2,3030.3l94.5-54.9c9.6,5.6,18.9,9.2,27.6,10.9l-94.5,54.9c-8.7-1.7-18-5.3-27.6-10.9Z"/>
            <path class="cls-15" d="M1092.9,2953l-14,42.9c-16.8-19.5-30.5-43.2-39-67.5l44.4,9.6c5.4,1.1,10.4,9.8,8.6,15Z"/>
            <path class="cls-1" d="M1086.4,2938.9l94.5-54.9c4.4,2.6,8,9.7,6.5,14.1l-94.5,54.9c1.5-4.5-2-11.6-6.5-14.1Z"/>
            <polygon class="cls-18" points="1113.2 2974.3 1207.7 2919.4 1186.1 2954.4 1091.6 3009.3 1113.2 2974.3"/>
            <path class="cls-18" d="M1114.5,2973.1l94.5-54.9c-.5.3-.9.7-1.3,1.3l-94.5,54.9c.3-.6.8-1,1.3-1.3Z"/>
            <path class="cls-18" d="M1172.2,2854.4l-94.5,54.9c-.5.3-1.1.5-1.8.5l94.5-54.9c.7,0,1.3-.2,1.8-.5Z"/>
            <path class="cls-1" d="M1172.2,2854.3l-94.5,54.9c.4-.2.7-.5,1-.8l94.5-54.9c-.3.3-.6.6-1,.8Z"/>
            <path class="cls-15" d="M1034.8,2855.4c42.1,50.1,42.1,48.5,43.9,53.1-.7.8-1.6,1.3-2.8,1.3l-41.2,1c-4.7-19-6.2-37,.2-55.3Z"/>
            <path class="cls-1" d="M1076,2903.9l94.5-54.9c1.2,1.4,2.1,2.9,2.7,4.5l-94.5,54.9c-.6-1.6-1.5-3.1-2.7-4.5Z"/>
            <path class="cls-1" d="M1114.5,2973.1l94.5-54.9c1.3-.8,3.1-.5,4.9.5l-94.5,54.9c-1.8-1-3.6-1.3-4.9-.5Z"/>
            <polygon class="cls-1" points="1125.5 2981.4 1220 2926.5 1241.3 2986.3 1146.8 3041.2 1125.5 2981.4"/>
            <path class="cls-1" d="M1119.3,2973.6l94.5-54.9c2.4,1.4,4.8,4.2,6.1,7.8l-94.5,54.9c-1.3-3.6-3.7-6.4-6.1-7.8Z"/>
            <polygon class="cls-18" points="1040.2 2843.8 1134.6 2788.9 1179 2830.5 1084.5 2885.4 1040.2 2843.8"/>
            <polygon class="cls-1" points="1079.3 2821.4 1173.8 2766.5 1187.7 2825.5 1093.2 2880.4 1079.3 2821.4"/>
            <path class="cls-18" d="M1179,2830.5c.7.7,1.4,1.2,2.1,1.6-31.5,18.3-63,36.6-94.5,54.9-.7-.4-1.4-.9-2.1-1.6,31.5-18.3,63-36.6,94.5-54.9Z"/>
            <path class="cls-18" d="M1181.1,2832.1h0c-31.5,18.3-63,36.6-94.5,54.9h0c31.5-18.3,63-36.6,94.5-54.9Z"/>
            <polygon class="cls-18" points="1145.8 2983.6 1240.3 2928.6 1254.2 2987.6 1159.7 3042.5 1145.8 2983.6"/>
            <path class="cls-18" d="M1056.4,2827.4l94.5-54.9c-6.5,3.8-12,9.3-16.2,16.4l-94.5,54.9c4.2-7.1,9.7-12.6,16.2-16.4Z"/>
            <path class="cls-18" d="M1181.1,2832.1c1.9,1.1,3.6,1.2,4.8.4l-94.5,54.9c-1.2.7-3,.6-4.8-.4,31.5-18.3,63-36.6,94.5-54.9Z"/>
            <path class="cls-18" d="M1242.1,2921.6c-1.7,1-2.5,3.5-1.7,7.1l-94.5,54.9c-.8-3.5,0-6.1,1.7-7.1,28.3-16.5,66.1-38.4,94.5-54.9Z"/>
            <path class="cls-18" d="M1277.2,2981.6l-94.5,54.9c-6.7,3.9-14.5,5.9-23.1,6l94.5-54.9c8.6,0,16.4-2.1,23.1-6Z"/>
            <path class="cls-1" d="M1185.9,2832.5l-94.5,54.9c1.7-1,2.5-3.5,1.7-7.1l94.5-54.9c.8,3.6,0,6.1-1.7,7.1Z"/>
            <path class="cls-1" d="M1147.6,2976.5l94.5-54.9c1.2-.7,2.9-.6,4.8.4l-94.5,54.9c-1.9-1.1-3.6-1.2-4.8-.4Z"/>
            <path class="cls-1" d="M1152.4,2976.9l94.5-54.9c.7.4,1.4,1,2.2,1.7l-94.5,54.9c-.7-.7-1.5-1.2-2.2-1.7Z"/>
            <path class="cls-1" d="M1056.4,2827.4l94.5-54.9c6.7-3.9,14.4-5.9,23-6l-94.5,54.9c-8.5,0-16.3,2.1-23,6Z"/>
            <path class="cls-15" d="M1079.3,2821.4l13.8,58.9c1.7,7.1-3.3,10.1-8.7,5l-44.3-41.6c8.6-14.4,22.4-22.3,39.2-22.4Z"/>
            <path class="cls-18" d="M1254.8,2900.6c.6,1.5,1.5,3,2.7,4.5l-94.5,54.9c124.9-72.7,125.9-73.2,0,0-1.2-1.4-2.1-2.9-2.7-4.4,28.3-16.5,66.1-38.4,94.5-54.9Z"/>
            <polygon class="cls-1" points="1154.5 2978.6 1249 2923.7 1293.4 2965.3 1198.9 3020.2 1154.5 2978.6"/>
            <path class="cls-1" d="M1277.2,2981.6l-94.5,54.9c6.5-3.8,12-9.3,16.2-16.3l94.5-54.9c-4.2,7.1-9.7,12.6-16.2,16.3Z"/>
            <path class="cls-15" d="M1154.5,2978.6l44.4,41.6c-8.6,14.4-22.4,22.2-39.2,22.3l-13.8-58.9c-1.6-7.1,3.4-10,8.7-5Z"/>
            <path class="cls-18" d="M1255.8,2899.8c-.4.2-.7.5-1,.9l-94.5,54.9c.3-.4.6-.7,1-.9,28.3-16.5,66.1-38.4,94.5-54.9Z"/>
            <path class="cls-18" d="M1219,2835.9l-94.5,54.9c-1.3.8-3.1.5-4.9-.5-2.4-1.4-4.8-4.2-6.1-7.8l94.5-54.9c1.3,3.6,3.7,6.4,6.1,7.8,1.8,1,3.5,1.3,4.9.5Z"/>
            <path class="cls-1" d="M1161.3,2954.7l94.5-54.9c.5-.3,1.1-.5,1.8-.5l-94.5,54.9c-.7,0-1.3.2-1.8.5Z"/>
            <path class="cls-1" d="M1219,2835.9l-94.5,54.9c.5-.3.9-.7,1.3-1.3l94.5-54.9c-.3.6-.8,1-1.3,1.3Z"/>
            <polygon class="cls-18" points="1092.2 2822.8 1186.7 2767.8 1208.1 2827.6 1113.6 2882.5 1092.2 2822.8"/>
            <path class="cls-18" d="M1247.2,2870.2c-31.5,18.3-63,36.6-94.5,54.9,0,0,0,0,0,0,31.5-18.3,63-36.6,94.5-54.9,0,0,0,0,0,0Z"/>
            <path class="cls-18" d="M1247.2,2870.2c.7.4,1.4.7,2.1.8-19.1,11.1-59.4,34.5-94.5,54.9-.7-.2-1.4-.4-2.1-.8,31.5-18.3,63-36.6,94.5-54.9Z"/>
            <path class="cls-18" d="M1240.7,2856.1c-1.5,4.5,2,11.6,6.5,14.2-31.5,18.3-63,36.6-94.5,54.9-4.5-2.6-8-9.7-6.5-14.2,28.3-16.5,66.1-38.4,94.5-54.9Z"/>
            <polygon class="cls-18" points="1163 2960 1257.5 2905.1 1298.7 2953.6 1204.2 3008.6 1163 2960"/>
            <path class="cls-1" d="M1092.2,2822.8l94.5-54.9c8.7,1.7,18,5.3,27.6,10.9l-94.5,54.9c-9.7-5.6-19-9.2-27.6-10.9Z"/>
            <path class="cls-1" d="M1208.6,2983.4l94.5-54.9c-.3,9.4-1.8,17.9-4.4,25.1l-94.5,54.9c2.6-7.3,4.1-15.7,4.4-25.1Z"/>
            <path class="cls-18" d="M1046.7,2810.7l94.5-54.9c18.7-10.9,44.6-9.3,73.2,7.2l-94.5,54.9c-28.6-16.5-54.5-18-73.2-7.2Z"/>
            <polygon class="cls-1" points="1163.1 2954.2 1257.6 2899.3 1298.9 2898.4 1204.4 2953.3 1163.1 2954.2"/>
            <path class="cls-1" d="M1204.4,2953.3l94.5-54.9c2.5,10.2,3.9,20.3,4.2,30.1l-94.5,54.9c-.3-9.8-1.7-19.9-4.2-30.1Z"/>
            <polygon class="cls-1" points="1147.5 2854.7 1241.9 2799.7 1220.3 2834.7 1125.8 2889.6 1147.5 2854.7"/>
            <path class="cls-15" d="M1147.5,2854.7l-21.7,34.9c-2.9,4.7-10-.7-12.2-7.1l-21.4-59.8c20.3,4.1,40.2,17.5,55.3,31.9Z"/>
            <polygon class="cls-18" points="1154.8 2926 1249.3 2871.1 1293.6 2880.7 1199.1 2935.6 1154.8 2926"/>
            <polygon class="cls-18" points="1160.2 2868.1 1254.7 2813.2 1240.7 2856.1 1146.2 2911 1160.2 2868.1"/>
            <path class="cls-1" d="M1160.2,2868.1l94.5-54.9c16.8,19.5,30.5,43.2,39,67.5l-94.5,54.9c-8.5-24.3-22.2-48-39-67.5Z"/>
            <polygon class="cls-29" points="1001.9 2759.1 1096.4 2704.1 1101.3 2711.8 1006.8 2766.7 1001.9 2759.1"/>
            <polygon class="cls-9" points="1209.7 3110.1 1304.2 3055.2 1308.3 3063.3 1213.8 3118.2 1209.7 3110.1"/>
            <polygon class="cls-9" points="1020.2 2747.7 1114.7 2692.8 1118.8 2700.9 1024.3 2755.8 1020.2 2747.7"/>
            <polygon class="cls-9" points="1228 3100.6 1322.5 3045.7 1327.4 3053.3 1232.9 3108.2 1228 3100.6"/>
            <polygon class="cls-21" points="1024.3 2755.8 1118.8 2700.9 1123.8 2699 1029.3 2753.9 1024.3 2755.8"/>
            <polygon class="cls-21" points="1232.2 3097.2 1326.7 3042.3 1322.5 3045.7 1228 3100.6 1232.2 3097.2"/>
            <polygon class="cls-9" points="1041.4 2742 1135.9 2687.1 1139.2 2695.5 1044.7 2750.4 1041.4 2742"/>
            <polygon class="cls-9" points="1242.9 3085.8 1337.4 3030.9 1343.1 3038 1248.6 3092.9 1242.9 3085.8"/>
            <polygon class="cls-21" points="1044.7 2750.4 1139.2 2695.5 1144.9 2695 1050.4 2749.9 1044.7 2750.4"/>
            <polygon class="cls-21" points="1246.3 3081.2 1340.8 3026.3 1337.4 3030.9 1242.9 3085.8 1246.3 3081.2"/>
            <polygon class="cls-9" points="1065.1 2742.4 1159.6 2687.4 1161.8 2695.7 1067.3 2750.6 1065.1 2742.4"/>
            <polygon class="cls-21" points="1067.3 2750.6 1161.8 2695.7 1168.1 2696.7 1073.6 2751.6 1067.3 2750.6"/>
            <polygon class="cls-9" points="1254.2 3066.3 1348.7 3011.4 1354.8 3017.5 1260.3 3072.4 1254.2 3066.3"/>
            <polygon class="cls-21" points="1256.5 3060.5 1351 3005.5 1348.7 3011.4 1254.2 3066.3 1256.5 3060.5"/>
            <path class="cls-18" d="M1286.8,2998.3l-94.5,54.9c17.7-10.3,28.9-31.6,30-61.9l94.5-54.9c-1,30.2-12.3,51.6-30,61.9Z"/>
            <path class="cls-1" d="M1119.8,2833.7l94.5-54.9c9.6,5.6,18.9,12.7,27.6,21l-94.5,54.9c-8.7-8.3-18-15.4-27.6-21Z"/>
            <path class="cls-4" d="M1038.3,2796.4l94.5-54.9c20.9-12.1,49.7-10.4,81.6,8l-94.5,54.9c-31.9-18.4-60.7-20.1-81.6-8Z"/>
            <path class="cls-4" d="M1295.2,3012.7l-94.5,54.9c19.8-11.5,32.4-35.5,33.4-69.4l94.5-54.9c-1,34-13.6,57.9-33.4,69.4Z"/>
            <path class="cls-1" d="M1012.4,2751.7c95.4-55.2,95.3-55.8,102.3-58.9l-94.5,54.9c-2.7,1.2-5.3,2.5-7.8,3.9Z"/>
            <polygon class="cls-9" points="1090.5 2748.4 1185 2693.5 1186.1 2701.6 1091.6 2756.5 1090.5 2748.4"/>
            <polygon class="cls-21" points="1091.6 2756.5 1186.1 2701.6 1192.6 2704 1098.1 2758.9 1091.6 2756.5"/>
            <polygon class="cls-9" points="1261.3 3042.6 1355.8 2987.7 1362.3 2992.7 1267.8 3047.6 1261.3 3042.6"/>
            <polygon class="cls-21" points="1262.6 3035.8 1357.1 2980.9 1355.8 2987.7 1261.3 3042.6 1262.6 3035.8"/>
            <polygon class="cls-21" points="1116.7 2767.8 1211.2 2712.9 1217.8 2716.7 1123.3 2771.6 1116.7 2767.8"/>
            <path class="cls-18" d="M1119.8,2817.9l94.5-54.9c55.6,32.1,100.8,109,102.5,173.5l-94.5,54.9c-1.7-64.5-46.8-141.3-102.5-173.5Z"/>
            <polygon class="cls-21" points="1261.5 2985.2 1356 2930.3 1357.2 2938.6 1262.7 2993.5 1261.5 2985.2"/>
            <path class="cls-4" d="M1119.9,2804.4l94.5-54.9c62.1,35.9,112.6,121.9,114.3,193.8l-94.5,54.9c-1.7-72-52.1-158-114.3-193.8Z"/>
            <polygon class="cls-21" points="1141.8 2784.2 1236.3 2729.2 1242.9 2734.4 1148.4 2789.3 1141.8 2784.2"/>
            <polygon class="cls-21" points="1254.5 2953.4 1349 2898.5 1351.2 2906.9 1256.7 2961.8 1254.5 2953.4"/>
            <polygon class="cls-21" points="1243.4 2920.9 1337.9 2866 1341.2 2874.5 1246.7 2929.4 1243.4 2920.9"/>
            <polygon class="cls-21" points="1228.6 2889 1323.1 2834 1327.3 2842.2 1232.8 2897.2 1228.6 2889"/>
            <path class="cls-15" d="M1269,3040.8l-6.4-5-1.2,6.8,6.4,5c-1.3,6.8-3,13.1-5.2,19l-6.1-6.1-2.3,5.9,6.1,6.1c-2.4,5.8-5.2,11-8.4,15.8l-5.6-7-3.3,4.6,5.7,7.1c-3.5,4.5-7.3,8.6-11.5,12l-5-7.7-4.2,3.3,4.9,7.6c-4.4,3.2-9.1,5.9-14.1,8l-4.1-8.1-5,2,4.1,8.1c-5.1,1.8-10.5,3.1-16.2,3.8l-3.3-8.4-5.7.5,3.2,8.3c-5.7.3-11.7.2-17.9-.8l-2.2-8.3-6.2-1,2.2,8.3c-6.2-1.1-12.6-2.8-19.1-5.1l-1.1-8-6.5-2.4,1.1,8c-6.5-2.6-13-5.8-19.7-9.5v-7.4s-6.6-3.8-6.6-3.8v7.4c-6.7-4-13.2-8.4-19.7-13.2l1.1-6.7-6.5-5.1-1.1,6.7c-6.6-5.2-12.9-10.9-19.1-16.9l2.3-5.7-6.2-6.1-2.3,5.7c-6.2-6.2-12.1-13-17.9-19.9l3.2-4.6-5.7-7.1-3.3,4.6c-5.7-7.3-11.1-14.8-16.1-22.5l4.2-3.3-5-7.8-4.2,3.3c-4.9-7.9-9.6-15.9-14-24.2l5-1.9-4.2-8.2-5,1.9c-4.1-8.3-7.9-16.7-11.4-25.2l5.7-.5-3.3-8.4-5.6.5c-3.2-8.4-6-16.9-8.3-25.4l6.1,1-2.2-8.5-6.1-.9c-2.2-8.4-3.9-16.7-5.1-24.9l6.4,2.4-1.1-8.2-6.4-2.4c-2-16.4-2.1-29.5.1-44.9l6.4,5,1.2-6.9-6.4-5c1.3-6.8,3-13.1,5.2-18.9l6.1,6.1,2.3-5.9-6.1-6.1c2.3-5.8,5.2-11,8.4-15.8l5.6,6.9,3.3-4.6-5.7-7.1c3.5-4.5,7.3-8.5,11.5-12l4.9,7.6,4.3-3.3-5-7.7c4.4-3.2,9.1-5.9,14.1-8l4.1,8.1,5-2-4.1-8.1c5.1-1.8,10.5-3,16.2-3.8l3.3,8.4,5.7-.5-3.2-8.3c5.8-.3,11.7-.2,17.9.8l2.2,8.3,6.2,1-2.2-8.3c6.2,1.1,12.5,2.8,19.1,5.1l1.1,8,6.5,2.4-1.1-8c6.5,2.6,13,5.8,19.7,9.4v7.5s6.6,3.8,6.6,3.8v-7.5c6.7,4,13.2,8.4,19.7,13.3l-1.1,6.7,6.5,5.1,1.1-6.7c6.5,5.2,12.9,10.9,19,17l-2.2,5.7,6.2,6.2,2.3-5.7c6.2,6.2,12.2,12.9,17.9,19.9l-3.2,4.6,5.7,7.1,3.3-4.6c5.7,7.3,11.1,14.7,16.1,22.4l-4.2,3.3,5,7.8,4.2-3.3c4.9,7.9,9.6,16,14,24.2l-5,1.9,4.2,8.2,5-1.9c4.1,8.3,7.9,16.7,11.3,25.2l-5.7.5,3.3,8.4,5.7-.5c3.1,8.4,6,16.9,8.3,25.4l-6.1-.9,2.2,8.5,6.1.9c2.2,8.4,3.9,16.7,5.1,24.9l-6.4-2.4,1.2,8.3,6.4,2.4c1.9,15.4,2.2,29.5-.1,44.9ZM1234.1,2998.1c-1.6-71.9-52-157.9-114.2-193.8-62.1-35.9-112.8-8.3-115,61.5,1.6,71.9,52,157.9,114.2,193.8,62.1,35.9,112.9,8.3,115-61.5"/>
            <path class="cls-15" d="M1160.2,2868.1c16.8,19.5,30.5,43.2,39,67.5l-44.3-9.6c-5.4-1.1-10.4-9.9-8.6-15l14-42.9Z"/>
            <path class="cls-18" d="M1119.8,2817.9c55.6,32.1,100.8,109,102.5,173.5-2.1,62.2-47.6,86.8-103.2,54.7-55.6-32.1-100.8-109-102.5-173.5,2.1-62.3,47.6-86.8,103.2-54.7ZM1079.3,2821.4c-16.8,0-30.6,7.9-39.2,22.4l44.3,41.6c5.4,5.1,10.4,2.1,8.7-5l-13.8-58.9M1199.1,2935.6c-8.5-24.3-22.2-48-39-67.5l-14,42.9c-1.8,5.2,3.3,13.9,8.6,15l44.3,9.6M1159.7,3042.5c16.9,0,30.7-7.9,39.2-22.3l-44.4-41.6c-5.3-5.1-10.3-2.2-8.7,5l13.8,58.9M1039.9,2928.4c8.5,24.2,22.2,47.9,39,67.5l14-42.9c1.7-5.2-3.3-13.9-8.6-15l-44.4-9.6M1119.2,3030.3c9.6,5.6,18.9,9.2,27.6,10.9l-21.3-59.7c-2.3-6.5-9.4-11.7-12.3-7.1l-21.6,34.9c8.7,8.3,17.9,15.4,27.6,21M1119.8,2833.7c-9.7-5.6-19-9.2-27.6-10.9l21.4,59.8c2.3,6.5,9.4,11.7,12.2,7.1l21.7-34.9c-8.7-8.3-18-15.4-27.6-21M1204.2,3008.6c6.4-18.3,4.8-36.4.2-55.3l-41.3.9c-1.2,0-2.1.5-2.8,1.4,1.8,4.5,2.8,4.1,43.9,53M1030.4,2880.6c.3,9.8,1.7,19.9,4.2,30.1l41.2-1c1.2,0,2.1-.5,2.8-1.3-1.7-4.5-1.8-3-43.9-53-2.6,7.3-4.1,15.7-4.4,25.2"/>
            <path class="cls-29" d="M1119.9,2804.4c62.1,35.9,112.6,121.9,114.3,193.8-2.1,69.7-52.9,97.3-115,61.4-62.1-35.9-112.6-121.9-114.2-193.8,2.1-69.7,52.9-97.3,115-61.5ZM1222.3,2991.3c-1.6-64.5-46.8-141.3-102.4-173.4-55.6-32.1-101-7.5-103.1,54.8,1.6,64.4,46.8,141.3,102.4,173.4,55.6,32.1,101,7.5,103.1-54.7"/>
            <path class="cls-15" d="M1113.2,2974.3l-21.6,34.9c14.9,14.3,34.9,27.9,55.2,31.9l-21.3-59.7c-2.3-6.5-9.4-11.7-12.3-7.1Z"/>
            <path class="cls-1" d="M1226.7,3112.2c2.1-1.2,4.2-2.6,6.2-4l94.5-54.9c-5,3.7-105.2,61.6-100.7,58.9Z"/>
            <path class="cls-29" d="M1025.2,2745.7l94.5-54.9c5.1-1.8,10.5-3,16.2-3.8l-94.5,54.9c-5.7.7-11.1,1.9-16.2,3.8Z"/>
            <path class="cls-29" d="M1248.6,3092.9l94.5-54.9c-3.5,4.5-7.3,8.6-11.5,12l-94.5,54.9c4.2-3.5,8-7.5,11.5-12Z"/>
            <path class="cls-29" d="M1047.2,2741.6l94.5-54.9c5.8-.3,11.7-.2,17.9.8l-94.5,54.9c-6.2-.9-12.2-1.1-17.9-.8Z"/>
            <path class="cls-29" d="M1260.3,3072.4l94.5-54.9c-2.4,5.8-5.2,11-8.4,15.8l-94.5,54.9c3.2-4.8,6-10,8.4-15.8Z"/>
            <path class="cls-15" d="M1204.4,2953.3c4.6,18.9,6.2,37-.2,55.3-42.8-50.9-42.1-48.5-43.9-53,.7-.8,1.6-1.3,2.8-1.3l41.3-.9Z"/>
            <path class="cls-29" d="M1071.3,2743.4l94.5-54.9c6.2,1.1,12.5,2.8,19.1,5.1l-94.5,54.9c-6.6-2.3-12.9-4-19.1-5.1Z"/>
            <path class="cls-29" d="M1267.8,3047.6l94.5-54.9c-1.3,6.8-3,13.1-5.2,19l-94.5,54.9c2.2-5.9,4-12.2,5.2-19Z"/>
            <polygon class="cls-9" points="1116.7 2760.3 1211.2 2705.4 1211.2 2712.9 1116.7 2767.8 1116.7 2760.3"/>
            <path class="cls-29" d="M1097,2750.9l94.5-54.9c6.5,2.6,13,5.8,19.7,9.4l-94.5,54.9c-6.7-3.7-13.2-6.9-19.7-9.4Z"/>
            <polygon class="cls-9" points="1262.7 2993.5 1357.2 2938.6 1363.6 2940.9 1269.1 2995.9 1262.7 2993.5"/>
            <path class="cls-29" d="M1363.6,2940.9l-94.5,54.9c1.9,15.4,2.2,29.5-.1,44.9l94.5-54.9c2.3-15.4,2-29.5.1-44.9Z"/>
            <polygon class="cls-9" points="1143 2777.4 1237.5 2722.5 1236.3 2729.2 1141.8 2784.2 1143 2777.4"/>
            <path class="cls-29" d="M1123.3,2764.1l94.5-54.9c6.7,4,13.2,8.4,19.7,13.3l-94.5,54.9c-6.5-4.9-13-9.3-19.7-13.3Z"/>
            <polygon class="cls-21" points="1166.3 2805.2 1260.8 2750.3 1267 2756.4 1172.5 2811.4 1166.3 2805.2"/>
            <polygon class="cls-9" points="1256.7 2961.8 1351.2 2906.9 1357.3 2907.8 1262.8 2962.7 1256.7 2961.8"/>
            <path class="cls-29" d="M1262.8,2962.7l94.5-54.9c2.2,8.4,3.9,16.7,5.1,24.9l-94.5,54.9c-1.2-8.2-3-16.5-5.1-24.9Z"/>
            <polygon class="cls-9" points="1168.6 2799.5 1263.1 2744.6 1260.8 2750.3 1166.3 2805.2 1168.6 2799.5"/>
            <path class="cls-29" d="M1149.5,2782.5l94.5-54.9c6.5,5.2,12.9,10.9,19,17l-94.5,54.9c-6.2-6.1-12.5-11.7-19-17Z"/>
            <polygon class="cls-21" points="1189.4 2830.2 1283.9 2775.3 1289.6 2782.3 1195.1 2837.2 1189.4 2830.2"/>
            <polygon class="cls-21" points="1210.4 2858.4 1304.9 2803.5 1309.9 2811.2 1215.4 2866.2 1210.4 2858.4"/>
            <path class="cls-29" d="M1252.4,2928.9l94.5-54.9c3.1,8.4,6,16.9,8.3,25.4l-94.5,54.9c-2.3-8.5-5.1-16.9-8.3-25.4Z"/>
            <polygon class="cls-9" points="1246.7 2929.4 1341.2 2874.5 1346.8 2874 1252.4 2928.9 1246.7 2929.4"/>
            <polygon class="cls-9" points="1192.7 2825.6 1287.2 2770.7 1283.9 2775.3 1189.4 2830.2 1192.7 2825.6"/>
            <path class="cls-29" d="M1174.8,2805.7l94.5-54.9c6.2,6.2,12.2,12.9,17.9,19.9l-94.5,54.9c-5.7-7-11.7-13.7-17.9-19.9Z"/>
            <path class="cls-29" d="M1237.8,2895.2l94.5-54.9c4.1,8.3,7.9,16.7,11.3,25.2l-94.5,54.9c-3.4-8.5-7.2-16.9-11.3-25.2Z"/>
            <polygon class="cls-9" points="1232.8 2897.2 1327.3 2842.2 1332.2 2840.3 1237.8 2895.2 1232.8 2897.2"/>
            <path class="cls-29" d="M1198.4,2832.6l94.5-54.9c5.7,7.3,11.1,14.7,16.1,22.4l-94.5,54.9c-5.1-7.7-10.5-15.1-16.1-22.4Z"/>
            <polygon class="cls-9" points="1214.6 2855.1 1309.1 2800.2 1304.9 2803.5 1210.4 2858.4 1214.6 2855.1"/>
            <path class="cls-29" d="M1219.6,2862.8l94.5-54.9c4.9,7.9,9.6,16,14,24.2l-94.5,54.9c-4.3-8.2-9-16.3-14-24.2Z"/>
          </g>
          <g class="cls-30">
            <polygon class="cls-1" points="1328.3 3173.7 1422.8 3118.8 1418.6 3122.1 1324.1 3177 1328.3 3173.7"/>
            <polygon class="cls-1" points="1310.2 3152.8 1404.7 3097.9 1409.7 3096 1315.2 3150.9 1310.2 3152.8"/>
            <polygon class="cls-9" points="1348.6 3202.6 1443.1 3147.7 1439.8 3152.3 1345.3 3207.2 1348.6 3202.6"/>
            <polygon class="cls-1" points="1294.6 3119.4 1389.1 3064.5 1394.8 3064 1300.3 3118.9 1294.6 3119.4"/>
            <polygon class="cls-9" points="1371.2 3228.5 1465.7 3173.6 1463.4 3179.3 1368.9 3234.2 1371.2 3228.5"/>
            <polygon class="cls-29" points="1283.1 3085.5 1377.6 3030.6 1383.7 3031.6 1289.2 3086.5 1283.1 3085.5"/>
            <polygon class="cls-9" points="1395.4 3250.6 1489.9 3195.7 1488.7 3202.4 1394.2 3257.3 1395.4 3250.6"/>
            <polygon class="cls-29" points="1275.8 3052.2 1370.3 2997.3 1376.7 2999.7 1282.2 3054.6 1275.8 3052.2"/>
            <polygon class="cls-9" points="1420.5 3268.3 1515 3213.4 1514.9 3220.8 1420.4 3275.7 1420.5 3268.3"/>
            <polygon class="cls-29" points="1274.8 2999.1 1369.3 2944.2 1375.7 2949.2 1281.2 3004.1 1274.8 2999.1"/>
            <polygon class="cls-9" points="1445.6 3281 1540.1 3226.1 1541.2 3234.1 1446.7 3289 1445.6 3281"/>
            <path class="cls-1" d="M1518.3,3180.6c-31.5,18.3-63,36.6-94.5,54.9-62.1-35.9-112.6-121.9-114.2-193.8l94.5-54.9c1.6,71.9,52,157.9,114.2,193.8Z"/>
            <path class="cls-4" d="M1423.9,3222c-55.6-32.1-100.8-109-102.4-173.4l94.5-54.9c1.6,64.4,46.8,141.3,102.4,173.4-4.4,2.6-91.4,53.1-94.5,54.9Z"/>
            <path class="cls-18" d="M1439.1,3049.4c8.5,24.2,22.2,47.9,39,67.5l-94.5,54.9c-16.8-19.5-30.5-43.2-39-67.5,28.3-16.5,66.1-38.4,94.5-54.9Z"/>
            <polygon class="cls-29" points="1281.2 2973.3 1375.7 2918.4 1381.7 2924.5 1287.3 2979.4 1281.2 2973.3"/>
            <path class="cls-18" d="M1335.1,3056.4l94.5-54.9c.3,9.8,1.7,19.9,4.2,30.1l-94.5,54.9c-2.5-10.2-4-20.3-4.2-30.1Z"/>
            <polygon class="cls-9" points="1470.2 3288.2 1564.7 3233.3 1566.9 3241.6 1472.4 3296.5 1470.2 3288.2"/>
            <path class="cls-18" d="M1396.3,3185.2l94.5-54.9c8.7,8.3,17.9,15.4,27.6,21l-94.5,54.9c-9.7-5.6-18.9-12.7-27.6-21Z"/>
            <path class="cls-1" d="M1437.5,2917.3c-19.8,11.5-32.4,35.5-33.4,69.5l-94.5,54.9c1-34,13.6-58,33.4-69.5,28.3-16.5,66.1-38.4,94.5-54.9Z"/>
            <path class="cls-4" d="M1445.9,2931.7c-17.7,10.3-28.9,31.6-29.9,61.9l-94.5,54.9c1-30.3,12.2-51.7,29.9-61.9,28.3-16.5,66.1-38.4,94.5-54.9Z"/>
            <path class="cls-18" d="M1434,2976.5c-2.5,7.3-4,15.6-4.3,25l-94.5,54.9c.3-9.4,1.8-17.7,4.3-25,31.5-18.3,63-36.6,94.5-54.9Z"/>
            <polygon class="cls-1" points="1344.6 3104.3 1439.1 3049.4 1483.4 3059 1388.9 3113.9 1344.6 3104.3"/>
            <polygon class="cls-18" points="1339.4 3086.6 1433.9 3031.7 1475.1 3030.7 1380.6 3085.6 1339.4 3086.6"/>
            <polygon class="cls-1" points="1339.5 3031.3 1434 2976.3 1475.2 3024.9 1380.7 3079.8 1339.5 3031.3"/>
            <path class="cls-18" d="M1434,2976.5c-10.3,6-70.8,41.1-94.4,54.7l94.5-54.9c0,0,0,.1,0,.2Z"/>
            <polygon class="cls-29" points="1291.8 2951.7 1386.3 2896.8 1391.9 2903.7 1297.4 2958.6 1291.8 2951.7"/>
            <polygon class="cls-1" points="1397.6 3128.9 1492.1 3074 1478 3116.8 1383.6 3171.7 1397.6 3128.9"/>
            <path class="cls-1" d="M1388.9,3113.9l94.5-54.9c.7.1,1.5.4,2.2.9l-94.5,54.9c-.7-.4-1.4-.7-2.2-.9Z"/>
            <polygon class="cls-9" points="1493.3 3290 1587.8 3235 1591 3243.4 1496.5 3298.3 1493.3 3290"/>
            <path class="cls-1" d="M1518.3,3180.6c31.9,18.4,60.7,20.1,81.6,8l-94.5,54.9c-20.8,12.1-49.7,10.4-81.6-8,31.5-18.3,63-36.6,94.5-54.9Z"/>
            <path class="cls-4" d="M1518.4,3167.1c28.6,16.5,54.5,18,73.2,7.2l-94.5,54.9c-18.7,10.9-44.6,9.3-73.2-7.2,10.3-6,86.5-50.3,94.5-54.9Z"/>
            <path class="cls-18" d="M1423.9,3206.2l94.5-54.9c9.6,5.6,18.9,9.2,27.6,10.9l-94.5,54.9c-8.7-1.7-18-5.3-27.6-10.9Z"/>
            <path class="cls-15" d="M1397.6,3128.9l-14,42.9c-16.8-19.5-30.5-43.2-39-67.5l44.4,9.6c5.4,1.1,10.4,9.8,8.6,15Z"/>
            <path class="cls-1" d="M1391.1,3114.7l94.5-54.9c4.4,2.6,8,9.7,6.5,14.1l-94.5,54.9c1.5-4.5-2-11.6-6.5-14.1Z"/>
            <polygon class="cls-18" points="1417.9 3150.2 1512.4 3095.3 1490.8 3130.3 1396.3 3185.2 1417.9 3150.2"/>
            <path class="cls-18" d="M1419.2,3149l94.5-54.9c-.5.3-.9.7-1.3,1.3l-94.5,54.9c.3-.6.8-1,1.3-1.3Z"/>
            <path class="cls-18" d="M1476.9,3030.2l-94.5,54.9c-.5.3-1.1.5-1.8.5l94.5-54.9c.7,0,1.3-.2,1.8-.5Z"/>
            <path class="cls-1" d="M1476.9,3030.2l-94.5,54.9c.4-.2.7-.5,1-.8l94.5-54.9c-.3.3-.6.6-1,.8Z"/>
            <path class="cls-15" d="M1339.5,3031.3c42.1,50.1,42.1,48.5,43.9,53.1-.7.8-1.6,1.3-2.8,1.3l-41.2,1c-4.7-19-6.2-37,.2-55.3Z"/>
            <path class="cls-1" d="M1380.7,3079.8l94.5-54.9c1.2,1.4,2.1,2.9,2.7,4.5l-94.5,54.9c-.6-1.6-1.5-3.1-2.7-4.5Z"/>
            <path class="cls-1" d="M1419.2,3149l94.5-54.9c1.3-.8,3.1-.5,4.9.5l-94.5,54.9c-1.8-1-3.6-1.3-4.9-.5Z"/>
            <polygon class="cls-1" points="1430.2 3157.3 1524.7 3102.4 1546 3162.1 1451.5 3217.1 1430.2 3157.3"/>
            <path class="cls-1" d="M1424.1,3149.5l94.5-54.9c2.4,1.4,4.8,4.2,6.1,7.8l-94.5,54.9c-1.3-3.6-3.7-6.4-6.1-7.8Z"/>
            <polygon class="cls-18" points="1344.9 3019.7 1439.3 2964.8 1483.7 3006.4 1389.2 3061.3 1344.9 3019.7"/>
            <polygon class="cls-1" points="1384 2997.3 1478.5 2942.4 1492.4 3001.3 1397.9 3056.3 1384 2997.3"/>
            <path class="cls-18" d="M1483.7,3006.4c.7.7,1.4,1.2,2.1,1.6-31.5,18.3-63,36.6-94.5,54.9-.7-.4-1.4-.9-2.1-1.6,31.5-18.3,63-36.6,94.5-54.9Z"/>
            <path class="cls-18" d="M1485.8,3008h0c-31.5,18.3-63,36.6-94.5,54.9h0c31.5-18.3,63-36.6,94.5-54.9Z"/>
            <polygon class="cls-18" points="1450.5 3159.4 1545 3104.5 1558.9 3163.5 1464.4 3218.4 1450.5 3159.4"/>
            <path class="cls-18" d="M1361.1,3003.3l94.5-54.9c-6.5,3.8-12,9.3-16.2,16.4l-94.5,54.9c4.2-7.1,9.7-12.6,16.2-16.4Z"/>
            <path class="cls-18" d="M1485.8,3008c1.9,1.1,3.6,1.2,4.8.4l-94.5,54.9c-1.2.7-3,.6-4.8-.4,31.5-18.3,63-36.6,94.5-54.9Z"/>
            <path class="cls-18" d="M1546.8,3097.5c-1.7,1-2.5,3.5-1.7,7.1l-94.5,54.9c-.8-3.5,0-6.1,1.7-7.1,28.3-16.5,66.1-38.4,94.5-54.9Z"/>
            <path class="cls-18" d="M1581.9,3157.5l-94.5,54.9c-6.7,3.9-14.5,5.9-23.1,6l94.5-54.9c8.6,0,16.4-2.1,23.1-6Z"/>
            <path class="cls-1" d="M1490.6,3008.4l-94.5,54.9c1.7-1,2.5-3.5,1.7-7.1l94.5-54.9c.8,3.6,0,6.1-1.7,7.1Z"/>
            <path class="cls-1" d="M1452.3,3152.4l94.5-54.9c1.2-.7,2.9-.6,4.8.4l-94.5,54.9c-1.9-1.1-3.6-1.2-4.8-.4Z"/>
            <path class="cls-1" d="M1457.1,3152.8l94.5-54.9c.7.4,1.4,1,2.2,1.7l-94.5,54.9c-.7-.7-1.5-1.2-2.2-1.7Z"/>
            <path class="cls-1" d="M1361.1,3003.3l94.5-54.9c6.7-3.9,14.4-5.9,23-6l-94.5,54.9c-8.5,0-16.3,2.1-23,6Z"/>
            <path class="cls-15" d="M1384,2997.3l13.8,58.9c1.7,7.1-3.3,10.1-8.7,5l-44.3-41.6c8.6-14.4,22.4-22.3,39.2-22.4Z"/>
            <path class="cls-18" d="M1559.5,3076.5c.6,1.5,1.5,3,2.7,4.5l-94.5,54.9c122.5-71.2,128.4-74.7,0,0-1.2-1.4-2.1-2.9-2.7-4.4,28.3-16.5,66.1-38.4,94.5-54.9Z"/>
            <polygon class="cls-1" points="1459.2 3154.5 1553.7 3099.6 1598.1 3141.2 1503.6 3196.1 1459.2 3154.5"/>
            <path class="cls-1" d="M1581.9,3157.5l-94.5,54.9c6.5-3.8,12-9.3,16.2-16.3l94.5-54.9c-4.2,7.1-9.7,12.6-16.2,16.3Z"/>
            <path class="cls-15" d="M1459.2,3154.5l44.4,41.6c-8.6,14.4-22.4,22.2-39.2,22.3l-13.8-58.9c-1.6-7.1,3.4-10,8.7-5Z"/>
            <path class="cls-18" d="M1560.5,3075.6c-.4.2-.7.5-1,.9l-94.5,54.9c.3-.4.6-.7,1-.9,28.3-16.5,66.1-38.4,94.5-54.9Z"/>
            <path class="cls-18" d="M1523.7,3011.8l-94.5,54.9c-1.3.8-3.1.5-4.9-.5-2.4-1.4-4.8-4.2-6.1-7.8l94.5-54.9c1.3,3.6,3.7,6.4,6.1,7.8,1.8,1,3.5,1.3,4.9.5Z"/>
            <path class="cls-1" d="M1466,3130.6l94.5-54.9c.5-.3,1.1-.5,1.8-.5l-94.5,54.9c-.7,0-1.3.2-1.8.5Z"/>
            <path class="cls-1" d="M1523.7,3011.8l-94.5,54.9c.5-.3.9-.7,1.3-1.3l94.5-54.9c-.3.6-.8,1-1.3,1.3Z"/>
            <polygon class="cls-18" points="1396.9 2998.7 1491.4 2943.7 1512.8 3003.5 1418.3 3058.4 1396.9 2998.7"/>
            <path class="cls-18" d="M1551.9,3046.1c-31.5,18.3-63,36.6-94.5,54.9h0c31.5-18.3,63-36.6,94.5-54.9t0,0Z"/>
            <path class="cls-18" d="M1551.9,3046.1c.7.4,1.4.7,2.1.8-43.4,25.2-54.2,31.5-94.5,54.9-.7-.2-1.4-.4-2.1-.8,31.5-18.3,63-36.6,94.5-54.9Z"/>
            <path class="cls-18" d="M1545.4,3031.9c-1.5,4.5,2,11.6,6.5,14.2-31.5,18.3-63,36.6-94.5,54.9-4.5-2.6-8-9.7-6.5-14.2,28.3-16.5,66.1-38.4,94.5-54.9Z"/>
            <polygon class="cls-18" points="1467.7 3135.9 1562.2 3081 1603.4 3129.5 1508.9 3184.4 1467.7 3135.9"/>
            <path class="cls-1" d="M1396.9,2998.7l94.5-54.9c8.7,1.7,18,5.3,27.6,10.9l-94.5,54.9c-9.7-5.6-19-9.2-27.6-10.9Z"/>
            <path class="cls-1" d="M1513.3,3159.3l94.5-54.9c-.3,9.4-1.8,17.9-4.4,25.1l-94.5,54.9c2.6-7.3,4.1-15.7,4.4-25.1Z"/>
            <path class="cls-18" d="M1351.4,2986.6l94.5-54.9c18.7-10.9,44.6-9.3,73.2,7.2l-94.5,54.9c-28.6-16.5-54.5-18-73.2-7.2Z"/>
            <polygon class="cls-1" points="1467.8 3130.1 1562.3 3075.2 1603.6 3074.2 1509.1 3129.2 1467.8 3130.1"/>
            <path class="cls-1" d="M1509.1,3129.2l94.5-54.9c2.5,10.2,3.9,20.3,4.2,30.1l-94.5,54.9c-.3-9.8-1.7-19.9-4.2-30.1Z"/>
            <polygon class="cls-1" points="1452.2 3030.6 1546.7 2975.6 1525 3010.6 1430.5 3065.5 1452.2 3030.6"/>
            <path class="cls-15" d="M1452.2,3030.6l-21.7,34.9c-2.9,4.7-10-.7-12.2-7.1l-21.4-59.8c20.3,4.1,40.2,17.5,55.3,31.9Z"/>
            <polygon class="cls-18" points="1459.5 3101.9 1554 3047 1598.3 3056.6 1503.8 3111.5 1459.5 3101.9"/>
            <polygon class="cls-18" points="1464.9 3044 1559.4 2989.1 1545.4 3031.9 1450.9 3086.9 1464.9 3044"/>
            <path class="cls-1" d="M1464.9,3044l94.5-54.9c16.8,19.5,30.5,43.2,39,67.5l-94.5,54.9c-8.5-24.3-22.2-48-39-67.5Z"/>
            <polygon class="cls-29" points="1306.6 2935 1401.1 2880 1406 2887.7 1311.5 2942.6 1306.6 2935"/>
            <polygon class="cls-9" points="1514.4 3286 1608.9 3231.1 1613 3239.2 1518.5 3294.1 1514.4 3286"/>
            <polygon class="cls-9" points="1324.9 2923.6 1419.4 2868.7 1423.5 2876.8 1329 2931.7 1324.9 2923.6"/>
            <polygon class="cls-9" points="1532.7 3276.5 1627.2 3221.5 1632.1 3229.2 1537.6 3284.1 1532.7 3276.5"/>
            <polygon class="cls-21" points="1329 2931.7 1423.5 2876.8 1428.5 2874.8 1334 2929.8 1329 2931.7"/>
            <polygon class="cls-21" points="1536.9 3273.1 1631.4 3218.2 1627.2 3221.5 1532.7 3276.5 1536.9 3273.1"/>
            <polygon class="cls-9" points="1346.1 2917.9 1440.6 2863 1443.9 2871.4 1349.4 2926.3 1346.1 2917.9"/>
            <polygon class="cls-9" points="1547.6 3261.7 1642.1 3206.8 1647.8 3213.8 1553.3 3268.8 1547.6 3261.7"/>
            <polygon class="cls-21" points="1349.4 2926.3 1443.9 2871.4 1449.6 2870.9 1355.1 2925.8 1349.4 2926.3"/>
            <polygon class="cls-21" points="1551 3257.1 1645.5 3202.1 1642.1 3206.8 1547.6 3261.7 1551 3257.1"/>
            <polygon class="cls-9" points="1369.8 2918.3 1464.3 2863.3 1466.5 2871.6 1372 2926.5 1369.8 2918.3"/>
            <polygon class="cls-21" points="1372 2926.5 1466.5 2871.6 1472.8 2872.6 1378.3 2927.5 1372 2926.5"/>
            <polygon class="cls-9" points="1558.9 3242.2 1653.4 3187.3 1659.5 3193.4 1565 3248.3 1558.9 3242.2"/>
            <polygon class="cls-21" points="1561.2 3236.3 1655.7 3181.4 1653.4 3187.3 1558.9 3242.2 1561.2 3236.3"/>
            <path class="cls-18" d="M1591.5,3174.2l-94.5,54.9c17.7-10.3,28.9-31.6,30-61.9l94.5-54.9c-1,30.2-12.3,51.6-30,61.9Z"/>
            <path class="cls-1" d="M1424.5,3009.6l94.5-54.9c9.6,5.6,18.9,12.7,27.6,21l-94.5,54.9c-8.7-8.3-18-15.4-27.6-21Z"/>
            <path class="cls-4" d="M1343,2972.3l94.5-54.9c20.9-12.1,49.7-10.4,81.6,8l-94.5,54.9c-31.9-18.4-60.7-20.1-81.6-8Z"/>
            <path class="cls-4" d="M1599.9,3188.6l-94.5,54.9c19.8-11.5,32.4-35.5,33.4-69.4l94.5-54.9c-1,34-13.6,57.9-33.4,69.4Z"/>
            <path class="cls-1" d="M1317.1,2927.5c95.4-55.2,95.3-55.8,102.3-58.9l-94.5,54.9c-2.7,1.2-5.3,2.5-7.8,3.9Z"/>
            <polygon class="cls-9" points="1395.2 2924.3 1489.7 2869.4 1490.8 2877.5 1396.3 2932.4 1395.2 2924.3"/>
            <polygon class="cls-21" points="1396.3 2932.4 1490.8 2877.5 1497.3 2879.9 1402.8 2934.8 1396.3 2932.4"/>
            <polygon class="cls-9" points="1566 3218.5 1660.5 3163.6 1667 3168.6 1572.5 3223.5 1566 3218.5"/>
            <polygon class="cls-21" points="1567.3 3211.7 1661.8 3156.7 1660.5 3163.6 1566 3218.5 1567.3 3211.7"/>
            <polygon class="cls-21" points="1421.4 2943.7 1515.9 2888.8 1522.5 2892.6 1428 2947.5 1421.4 2943.7"/>
            <path class="cls-18" d="M1424.6,2993.8l94.5-54.9c55.6,32.1,100.8,109,102.5,173.5l-94.5,54.9c-1.7-64.5-46.8-141.3-102.5-173.5Z"/>
            <polygon class="cls-21" points="1566.2 3161.1 1660.7 3106.2 1661.9 3114.5 1567.4 3169.4 1566.2 3161.1"/>
            <path class="cls-4" d="M1424.6,2980.2l94.5-54.9c62.1,35.9,112.6,121.9,114.3,193.8l-94.5,54.9c-1.7-72-52.1-158-114.3-193.8Z"/>
            <polygon class="cls-21" points="1446.5 2960 1541 2905.1 1547.6 2910.3 1453.1 2965.2 1446.5 2960"/>
            <polygon class="cls-21" points="1559.2 3129.3 1653.7 3074.3 1655.9 3082.8 1561.4 3137.7 1559.2 3129.3"/>
            <polygon class="cls-21" points="1548.1 3096.8 1642.6 3041.9 1645.9 3050.4 1551.4 3105.3 1548.1 3096.8"/>
            <polygon class="cls-21" points="1533.3 3064.8 1627.8 3009.9 1632 3018.1 1537.5 3073 1533.3 3064.8"/>
            <path class="cls-15" d="M1573.7,3216.6l-6.4-5-1.2,6.8,6.4,5c-1.3,6.8-3,13.1-5.2,19l-6.1-6.1-2.3,5.9,6.1,6.1c-2.4,5.8-5.2,11-8.4,15.8l-5.6-7-3.3,4.6,5.7,7.1c-3.5,4.5-7.3,8.6-11.5,12l-5-7.7-4.2,3.3,4.9,7.6c-4.4,3.2-9.1,5.9-14.1,8l-4.1-8.1-5,2,4.1,8.1c-5.1,1.8-10.5,3.1-16.2,3.8l-3.3-8.4-5.7.5,3.2,8.3c-5.7.3-11.7.2-17.9-.8l-2.2-8.3-6.2-1,2.2,8.3c-6.2-1.1-12.6-2.8-19.1-5.1l-1.1-8-6.5-2.4,1.1,8c-6.5-2.6-13-5.8-19.7-9.5v-7.4s-6.6-3.8-6.6-3.8v7.4c-6.7-4-13.2-8.4-19.7-13.2l1.1-6.7-6.5-5.1-1.1,6.7c-6.6-5.2-12.9-10.9-19.1-16.9l2.3-5.7-6.2-6.1-2.3,5.7c-6.2-6.2-12.1-13-17.9-19.9l3.2-4.6-5.7-7.1-3.3,4.6c-5.7-7.3-11.1-14.8-16.1-22.5l4.2-3.3-5-7.8-4.2,3.3c-4.9-7.9-9.6-15.9-14-24.2l5-1.9-4.2-8.2-5,1.9c-4.1-8.3-7.9-16.7-11.4-25.2l5.7-.5-3.3-8.4-5.6.5c-3.2-8.4-6-16.9-8.3-25.4l6.1,1-2.2-8.5-6.1-.9c-2.2-8.4-3.9-16.7-5.1-24.9l6.4,2.4-1.1-8.2-6.4-2.4c-2-16.4-2.1-29.5.1-44.9l6.4,5,1.2-6.9-6.4-5c1.3-6.8,3-13.1,5.2-18.9l6.1,6.1,2.3-5.9-6.1-6.1c2.3-5.8,5.2-11,8.4-15.8l5.6,6.9,3.3-4.6-5.7-7.1c3.5-4.5,7.3-8.5,11.5-12l4.9,7.6,4.3-3.3-5-7.7c4.4-3.2,9.1-5.9,14.1-8l4.1,8.1,5-2-4.1-8.1c5.1-1.8,10.5-3,16.2-3.8l3.3,8.4,5.7-.5-3.2-8.3c5.8-.3,11.7-.2,17.9.8l2.2,8.3,6.2,1-2.2-8.3c6.2,1.1,12.5,2.8,19.1,5.1l1.1,8,6.5,2.4-1.1-8c6.5,2.6,13,5.8,19.7,9.4v7.5s6.6,3.8,6.6,3.8v-7.5c6.7,4,13.2,8.4,19.7,13.3l-1.1,6.7,6.5,5.1,1.1-6.7c6.5,5.2,12.9,10.9,19,17l-2.2,5.7,6.2,6.2,2.3-5.7c6.2,6.2,12.2,12.9,17.9,19.9l-3.2,4.6,5.7,7.1,3.3-4.6c5.7,7.3,11.1,14.7,16.1,22.4l-4.2,3.3,5,7.8,4.2-3.3c4.9,7.9,9.6,16,14,24.2l-5,1.9,4.2,8.2,5-1.9c4.1,8.3,7.9,16.7,11.3,25.2l-5.7.5,3.3,8.4,5.7-.5c3.1,8.4,6,16.9,8.3,25.4l-6.1-.9,2.2,8.5,6.1.9c2.2,8.4,3.9,16.7,5.1,24.9l-6.4-2.4,1.2,8.3,6.4,2.4c1.9,15.4,2.2,29.5-.1,44.9ZM1538.8,3174c-1.6-71.9-52-157.9-114.2-193.8-62.1-35.9-112.8-8.3-115,61.5,1.6,71.9,52,157.9,114.2,193.8,62.1,35.9,112.9,8.3,115-61.5"/>
            <path class="cls-15" d="M1464.9,3044c16.8,19.5,30.5,43.2,39,67.5l-44.3-9.6c-5.4-1.1-10.4-9.9-8.6-15l14-42.9Z"/>
            <path class="cls-18" d="M1424.6,2993.8c55.6,32.1,100.8,109,102.5,173.5-2.1,62.2-47.6,86.8-103.2,54.7-55.6-32.1-100.8-109-102.5-173.5,2.1-62.3,47.6-86.8,103.2-54.7ZM1384,2997.3c-16.8,0-30.6,7.9-39.2,22.4l44.3,41.6c5.4,5.1,10.4,2.1,8.7-5l-13.8-58.9M1503.8,3111.5c-8.5-24.3-22.2-48-39-67.5l-14,42.9c-1.8,5.2,3.3,13.9,8.6,15l44.3,9.6M1464.4,3218.4c16.9,0,30.7-7.9,39.2-22.3l-44.4-41.6c-5.3-5.1-10.3-2.2-8.7,5l13.8,58.9M1344.6,3104.3c8.5,24.2,22.2,47.9,39,67.5l14-42.9c1.7-5.2-3.3-13.9-8.6-15l-44.4-9.6M1423.9,3206.2c9.6,5.6,18.9,9.2,27.6,10.9l-21.3-59.7c-2.3-6.5-9.4-11.7-12.3-7.1l-21.6,34.9c8.7,8.3,17.9,15.4,27.6,21M1424.5,3009.6c-9.7-5.6-19-9.2-27.6-10.9l21.4,59.8c2.3,6.5,9.4,11.7,12.2,7.1l21.7-34.9c-8.7-8.3-18-15.4-27.6-21M1508.9,3184.4c6.4-18.3,4.8-36.4.2-55.3l-41.3.9c-1.2,0-2.1.5-2.8,1.4,1.8,4.5,2.8,4.1,43.9,53M1335.1,3056.4c.3,9.8,1.7,19.9,4.2,30.1l41.2-1c1.2,0,2.1-.5,2.8-1.3-1.7-4.5-1.8-3-43.9-53-2.6,7.3-4.1,15.7-4.4,25.2"/>
            <path class="cls-29" d="M1424.6,2980.2c62.1,35.9,112.6,121.9,114.3,193.8-2.1,69.7-52.9,97.3-115,61.4-62.1-35.9-112.6-121.9-114.2-193.8,2.1-69.7,52.9-97.3,115-61.5ZM1527,3167.2c-1.6-64.5-46.8-141.3-102.4-173.4-55.6-32.1-101-7.5-103.1,54.8,1.6,64.4,46.8,141.3,102.4,173.4,55.6,32.1,101,7.5,103.1-54.7"/>
            <path class="cls-15" d="M1417.9,3150.2l-21.6,34.9c14.9,14.3,34.9,27.9,55.2,31.9l-21.3-59.7c-2.3-6.5-9.4-11.7-12.3-7.1Z"/>
            <path class="cls-1" d="M1531.4,3288.1c2.1-1.2,4.2-2.6,6.2-4l94.5-54.9c-5,3.7-105.2,61.6-100.7,58.9Z"/>
            <path class="cls-29" d="M1329.9,2921.6l94.5-54.9c5.1-1.8,10.5-3,16.2-3.8l-94.5,54.9c-5.7.7-11.1,1.9-16.2,3.8Z"/>
            <path class="cls-29" d="M1553.3,3268.8l94.5-54.9c-3.5,4.5-7.3,8.6-11.5,12l-94.5,54.9c4.2-3.5,8-7.5,11.5-12Z"/>
            <path class="cls-29" d="M1351.9,2917.5l94.5-54.9c5.8-.3,11.7-.2,17.9.8l-94.5,54.9c-6.2-.9-12.2-1.1-17.9-.8Z"/>
            <path class="cls-29" d="M1565,3248.3l94.5-54.9c-2.4,5.8-5.2,11-8.4,15.8l-94.5,54.9c3.2-4.8,6-10,8.4-15.8Z"/>
            <path class="cls-15" d="M1509.1,3129.2c4.6,18.9,6.2,37-.2,55.3-42.8-50.9-42.1-48.5-43.9-53,.7-.8,1.6-1.3,2.8-1.3l41.3-.9Z"/>
            <path class="cls-29" d="M1376,2919.3l94.5-54.9c6.2,1.1,12.5,2.8,19.1,5.1l-94.5,54.9c-6.6-2.3-12.9-4-19.1-5.1Z"/>
            <path class="cls-29" d="M1572.5,3223.5l94.5-54.9c-1.3,6.8-3,13.1-5.2,19l-94.5,54.9c2.2-5.9,4-12.2,5.2-19Z"/>
            <polygon class="cls-9" points="1421.4 2936.2 1515.9 2881.3 1515.9 2888.8 1421.4 2943.7 1421.4 2936.2"/>
            <path class="cls-29" d="M1401.7,2926.8l94.5-54.9c6.5,2.6,13,5.8,19.7,9.4l-94.5,54.9c-6.7-3.7-13.2-6.9-19.7-9.4Z"/>
            <polygon class="cls-9" points="1567.4 3169.4 1661.9 3114.5 1668.3 3116.8 1573.8 3171.8 1567.4 3169.4"/>
            <path class="cls-29" d="M1668.3,3116.8l-94.5,54.9c1.9,15.4,2.2,29.5-.1,44.9l94.5-54.9c1-6.8,1.6-14,1.7-21.5-.1-7.7-.6-15.4-1.6-23.4Z"/>
            <polygon class="cls-9" points="1447.7 2953.3 1542.2 2898.4 1541 2905.1 1446.5 2960 1447.7 2953.3"/>
            <path class="cls-29" d="M1428,2940l94.5-54.9c6.7,4,13.2,8.4,19.7,13.3l-94.5,54.9c-6.5-4.9-13-9.3-19.7-13.3Z"/>
            <polygon class="cls-21" points="1471 2981.1 1565.5 2926.2 1571.7 2932.3 1477.2 2987.3 1471 2981.1"/>
            <polygon class="cls-9" points="1561.4 3137.7 1655.9 3082.8 1662 3083.7 1567.5 3138.6 1561.4 3137.7"/>
            <path class="cls-29" d="M1567.5,3138.6l94.5-54.9c2.2,8.4,3.9,16.7,5.1,24.9l-94.5,54.9c-1.2-8.2-3-16.5-5.1-24.9Z"/>
            <polygon class="cls-9" points="1473.3 2975.4 1567.8 2920.5 1565.5 2926.2 1471 2981.1 1473.3 2975.4"/>
            <path class="cls-29" d="M1454.2,2958.4l94.5-54.9c6.5,5.2,12.9,10.9,19,17l-94.5,54.9c-6.2-6.1-12.5-11.7-19-17Z"/>
            <polygon class="cls-21" points="1494.1 3006.1 1588.6 2951.1 1594.3 2958.2 1499.8 3013.1 1494.1 3006.1"/>
            <polygon class="cls-21" points="1515.1 3034.3 1609.6 2979.4 1614.6 2987.1 1520.1 3042.1 1515.1 3034.3"/>
            <path class="cls-29" d="M1557.1,3104.8l94.5-54.9c3.1,8.4,6,16.9,8.3,25.4l-94.5,54.9c-2.3-8.5-5.1-16.9-8.3-25.4Z"/>
            <polygon class="cls-9" points="1551.4 3105.3 1645.9 3050.4 1651.6 3049.9 1557.1 3104.8 1551.4 3105.3"/>
            <polygon class="cls-9" points="1497.4 3001.5 1591.9 2946.6 1588.6 2951.1 1494.1 3006.1 1497.4 3001.5"/>
            <path class="cls-29" d="M1479.5,2981.6l94.5-54.9c6.2,6.2,12.2,12.9,17.9,19.9l-94.5,54.9c-5.7-7-11.7-13.7-17.9-19.9Z"/>
            <path class="cls-29" d="M1542.5,3071.1l94.5-54.9c4.1,8.3,7.9,16.7,11.3,25.2l-94.5,54.9c-3.4-8.5-7.2-16.9-11.3-25.2Z"/>
            <polygon class="cls-9" points="1537.5 3073 1632 3018.1 1637 3016.2 1542.5 3071.1 1537.5 3073"/>
            <path class="cls-29" d="M1503.1,3008.5l94.5-54.9c5.7,7.3,11.1,14.7,16.1,22.4l-94.5,54.9c-5.1-7.7-10.5-15.1-16.1-22.4Z"/>
            <polygon class="cls-9" points="1519.3 3031 1613.8 2976 1609.6 2979.4 1515.1 3034.3 1519.3 3031"/>
            <path class="cls-29" d="M1524.3,3038.7l94.5-54.9c4.9,7.9,9.6,16,14,24.2l-94.5,54.9c-4.3-8.2-9-16.3-14-24.2Z"/>
          </g>
          <g class="cls-30">
            <path class="cls-29" d="M1720.1,3004.8c-3.1-31.6-25.1-66.8-51.2-81.8l-547.4-316c-14.3-8.2-27.4-9.1-36.8-3.6l-111.5,64.8c9.5-5.5,22.6-4.7,36.8,3.6l547.4,316c26.1,15.1,48.1,50.2,51.2,81.8l25.8,261.9,111.5-64.8-25.8-261.9Z"/>
            <path class="cls-15" d="M1557.4,2987.8c26.1,15.1,48.1,50.2,51.2,81.8l25.8,261.9-18.8-10.9-25.5-259.1c-2-20.2-16-42.6-32.7-52.2l-547.4-316c-16.7-9.6-30.8-3.5-32.9,14.4l-26.9,228.8-18.8-10.9,27.2-231.3c3.3-27.9,25.4-37.6,51.5-22.5l547.4,316Z"/>
          </g>
        </g>
        <g class="cls-30">
          <polygon class="cls-17" points="2499.3 3663.2 2499.2 3691.4 2379 3761.3 2379.1 3733.1 2499.3 3663.2"/>
          <g>
            <polygon class="cls-15" points="2379.1 3733.1 2379 3761.3 1634.4 3331.4 1631.6 3301.5 2379.1 3733.1"/>
            <line class="cls-15" x1="2379" y1="3761.3" x2="1634.4" y2="3331.4"/>
          </g>
          <polygon class="cls-29" points="2499.3 3663.2 2379.1 3733.1 1631.6 3301.5 1751.8 3231.6 2499.3 3663.2"/>
        </g>
        <g>
          <g>
            <g>
              <g class="cls-30">
                <path class="cls-24" d="M1762.1,3139.9c-43.9,25.3-79.3,86.8-79.1,137.3.1,47.2,29,52.6,33.6,57.1-14.2-8.3-23.1-25.9-23.1-51-.1-50.4,35.2-111.9,79.1-137.3,22.1-12.8,42.1-13.9,56.6-5.5-5.7-1.7-25.4-24.7-67.1-.6Z"/>
                <path class="cls-3" d="M1772.6,3146c43.9-25.3,79.7-4.9,79.8,45.5.1,50.5-35.4,111.8-79.3,137.2s-79.5,5.1-79.7-45.4c-.1-50.4,35.2-111.9,79.1-137.3Z"/>
              </g>
              <g class="cls-30">
                <path class="cls-24" d="M1835,3150.6c-13.7-8-32.8-6.9-53.8,5.2-41.7,24.1-75.3,82.5-75.2,130.4,0,23.8,8.5,40.5,22,48.4l195.9,113.8c-13.5-7.9-21.9-24.6-22-48.4-.1-47.9,33.5-106.3,75.2-130.4,21-12.1,40-13.2,53.8-5.2l-195.9-113.8Z"/>
                <path class="cls-24" d="M1835,3150.6c-13.7-8-32.8-6.9-53.8,5.2-41.7,24.1-75.3,82.5-75.2,130.4,0,23.8,8.5,40.5,22,48.4l195.9,113.8c-13.5-7.9-21.9-24.6-22-48.4-.1-47.9,33.5-106.3,75.2-130.4,21-12.1,40-13.2,53.8-5.2l-195.9-113.8Z"/>
                <path class="cls-3" d="M1977.1,3269.7c41.7-24.1,75.7-4.7,75.8,43.2.1,47.9-33.6,106.2-75.3,130.3-41.7,24.1-75.5,4.8-75.7-43.1-.1-47.9,33.5-106.3,75.2-130.4Z"/>
              </g>
            </g>
            <g>
              <g class="cls-30">
                <path class="cls-24" d="M1918.5,3230.6c-43.9,25.3-79.3,86.8-79.1,137.3.1,47.2,29,52.6,33.6,57.1-14.2-8.3-23.1-25.9-23.1-51-.1-50.4,35.2-111.9,79.1-137.3,22.1-12.8,42.1-13.9,56.6-5.5-5.7-1.7-25.4-24.7-67.1-.6Z"/>
                <path class="cls-3" d="M1929,3236.7c43.9-25.3,79.7-4.9,79.8,45.5.1,50.5-35.4,111.8-79.3,137.2-43.9,25.3-79.5,5.1-79.7-45.4-.1-50.4,35.2-111.9,79.1-137.3Z"/>
              </g>
              <g class="cls-30">
                <path class="cls-24" d="M1991.4,3241.3c-13.7-8-32.8-6.9-53.8,5.2-41.7,24.1-75.3,82.5-75.2,130.4,0,23.8,8.5,40.5,22,48.4l195.9,113.8c-13.5-7.9-21.9-24.6-22-48.4-.1-47.9,33.5-106.3,75.2-130.4,21-12.1,40-13.2,53.8-5.2l-195.9-113.8Z"/>
                <path class="cls-24" d="M1991.4,3241.3c-13.7-8-32.8-6.9-53.8,5.2-41.7,24.1-75.3,82.5-75.2,130.4,0,23.8,8.5,40.5,22,48.4l195.9,113.8c-13.5-7.9-21.9-24.6-22-48.4-.1-47.9,33.5-106.3,75.2-130.4,21-12.1,40-13.2,53.8-5.2l-195.9-113.8Z"/>
                <path class="cls-3" d="M2133.5,3360.3c41.7-24.1,75.7-4.7,75.8,43.2.1,47.9-33.6,106.2-75.3,130.3-41.7,24.1-75.5,4.8-75.7-43.1-.1-47.9,33.5-106.3,75.2-130.4Z"/>
              </g>
            </g>
            <g>
              <g class="cls-30">
                <path class="cls-8" d="M1918.5,3230.6c-43.9,25.3-79.3,86.8-79.1,137.3.1,47.2,29,52.6,33.6,57.1-14.2-8.3-23.1-25.9-23.1-51-.1-50.4,35.2-111.9,79.1-137.3,22.1-12.8,42.1-13.9,56.6-5.5-5.7-1.7-25.4-24.7-67.1-.6Z"/>
                <path class="cls-3" d="M1929,3236.7c43.9-25.3,79.7-4.9,79.8,45.5.1,50.5-35.4,111.8-79.3,137.2-43.9,25.3-79.5,5.1-79.7-45.4-.1-50.4,35.2-111.9,79.1-137.3Z"/>
              </g>
              <g class="cls-30">
                <path class="cls-24" d="M1991.4,3241.3c-13.7-8-32.8-6.9-53.8,5.2-41.7,24.1-75.3,82.5-75.2,130.4,0,23.8,8.5,40.5,22,48.4l195.9,113.8c-13.5-7.9-21.9-24.6-22-48.4-.1-47.9,33.5-106.3,75.2-130.4,21-12.1,40-13.2,53.8-5.2l-195.9-113.8Z"/>
                <path class="cls-24" d="M1991.4,3241.3c-13.7-8-32.8-6.9-53.8,5.2-41.7,24.1-75.3,82.5-75.2,130.4,0,23.8,8.5,40.5,22,48.4l195.9,113.8c-13.5-7.9-21.9-24.6-22-48.4-.1-47.9,33.5-106.3,75.2-130.4,21-12.1,40-13.2,53.8-5.2l-195.9-113.8Z"/>
                <path class="cls-3" d="M2133.5,3360.3c41.7-24.1,75.7-4.7,75.8,43.2.1,47.9-33.6,106.2-75.3,130.3-41.7,24.1-75.5,4.8-75.7-43.1-.1-47.9,33.5-106.3,75.2-130.4Z"/>
              </g>
            </g>
            <g>
              <g class="cls-30">
                <path class="cls-24" d="M2075,3321.2c-43.9,25.3-79.3,86.8-79.1,137.3,0,25.1,8.9,42.7,23.1,51l10.5,6.1c-14.2-8.3-23.1-25.9-23.1-51-.1-50.4,35.2-111.9,79.1-137.3,22.1-12.8,42.1-13.9,56.6-5.5-5.7-1.7-25.4-24.7-67.1-.6Z"/>
                <path class="cls-3" d="M2085.5,3327.3c43.9-25.3,79.7-4.9,79.8,45.5.1,50.5-35.4,111.8-79.3,137.2-43.9,25.3-79.5,5.1-79.7-45.4-.1-50.4,35.2-111.9,79.1-137.3Z"/>
              </g>
              <g class="cls-30">
                <path class="cls-24" d="M2147.9,3331.9c-13.7-8-32.8-6.9-53.8,5.2-41.7,24.1-75.3,82.5-75.2,130.4,0,23.8,8.5,40.5,22,48.4l195.9,113.8c-13.5-7.9-21.9-24.6-22-48.4-.1-47.9,33.5-106.3,75.2-130.4,21-12.1,40-13.2,53.8-5.2l-195.9-113.8Z"/>
                <path class="cls-3" d="M2290,3451c41.7-24.1,75.7-4.7,75.8,43.2.1,47.9-33.6,106.2-75.3,130.3-41.7,24.1-75.5,4.8-75.7-43.1-.1-47.9,33.5-106.3,75.2-130.4Z"/>
              </g>
            </g>
            <g>
              <g class="cls-30">
                <path class="cls-8" d="M2075,3321.2c-43.9,25.3-79.3,86.8-79.1,137.3,0,25.1,8.9,42.7,23.1,51l10.5,6.1c-14.2-8.3-23.1-25.9-23.1-51-.1-50.4,35.2-111.9,79.1-137.3,22.1-12.8,42.1-13.9,56.6-5.5-5.7-1.7-25.4-24.7-67.1-.6Z"/>
                <path class="cls-3" d="M2085.5,3327.3c43.9-25.3,79.7-4.9,79.8,45.5.1,50.5-35.4,111.8-79.3,137.2-43.9,25.3-79.5,5.1-79.7-45.4-.1-50.4,35.2-111.9,79.1-137.3Z"/>
              </g>
              <g class="cls-30">
                <path class="cls-24" d="M2147.9,3331.9c-13.7-8-32.8-6.9-53.8,5.2-41.7,24.1-75.3,82.5-75.2,130.4,0,23.8,8.5,40.5,22,48.4l195.9,113.8c-13.5-7.9-21.9-24.6-22-48.4-.1-47.9,33.5-106.3,75.2-130.4,21-12.1,40-13.2,53.8-5.2l-195.9-113.8Z"/>
                <path class="cls-3" d="M2290,3451c41.7-24.1,75.7-4.7,75.8,43.2.1,47.9-33.6,106.2-75.3,130.3-41.7,24.1-75.5,4.8-75.7-43.1-.1-47.9,33.5-106.3,75.2-130.4Z"/>
              </g>
            </g>
            <g>
              <g class="cls-30">
                <path class="cls-8" d="M2231.5,3411.8c-43.9,25.3-79.3,86.8-79.1,137.3.1,47.2,29,52.6,33.6,57.1-14.2-8.3-23.1-25.9-23.1-51-.1-50.4,35.2-111.9,79.1-137.3,22.1-12.8,42.1-13.9,56.6-5.5-5.7-1.7-25.4-24.7-67.1-.6Z"/>
                <path class="cls-3" d="M2242,3417.9c43.9-25.3,79.7-4.9,79.8,45.5.1,50.5-35.4,111.8-79.3,137.2-43.9,25.3-79.5,5.1-79.7-45.4-.1-50.4,35.2-111.9,79.1-137.3Z"/>
              </g>
              <g class="cls-30">
                <path class="cls-24" d="M2304.3,3422.6c-13.7-8-32.8-6.9-53.8,5.2-41.7,24.1-75.3,82.5-75.2,130.4,0,23.8,8.5,40.5,22,48.4l139.4,81c-13.5-7.9-21.9-24.6-22-48.4-.1-47.9,33.5-106.3,75.2-130.4,21-12.1,40-13.2,53.8-5.2l-139.4-81Z"/>
                <path class="cls-3" d="M2390,3508.8c41.7-24.1,75.7-4.7,75.8,43.2.1,47.9-33.6,106.2-75.3,130.3-41.7,24.1-75.5,4.8-75.7-43.1-.1-47.9,33.5-106.3,75.2-130.4Z"/>
              </g>
            </g>
          </g>
          <g class="cls-30">
            <path class="cls-8" d="M2443,3498.2c-14.5-8.4-34.5-7.2-56.6,5.5-43.9,25.3-79.3,86.8-79.1,137.3.1,47.2,29,52.6,33.6,57.1-14.2-8.3-23.1-25.9-23.1-51-.1-50.4,35.2-111.9,79.1-137.3,22.1-12.8,42.1-13.9,56.6-5.5l-10.5-6.1Z"/>
            <path class="cls-3" d="M2396.9,3509.8c43.9-25.3,79.7-4.9,79.8,45.5.1,50.5-35.4,111.8-79.3,137.2-43.9,25.3-79.5,5.1-79.7-45.4-.1-50.4,35.2-111.9,79.1-137.3Z"/>
          </g>
        </g>
        <g class="cls-30">
          <polygon class="cls-15" points="2378.4 3312.4 2349.1 3295.4 2349.9 3744.5 2379.2 3761.5 2378.4 3312.4"/>
          <polygon class="cls-19" points="2499.2 3242.7 2470 3225.7 2349.1 3295.4 2378.4 3312.4 2499.2 3242.7"/>
          <polygon class="cls-29" points="2378.4 3312.4 2379.2 3761.5 2500 3691.7 2499.2 3242.7 2378.4 3312.4"/>
        </g>
        <path class="cls-29" d="M3452.8,2810.4l-895,550.1-1648.8-952.1,919.5-535.1c152.7,88.1-577.8-333.3,1624.4,937.1Z"/>
      </g>
      <g>
        <path class="cls-9" d="M2530.6,3344.4l1.2,159.3c-81.4-47.1,293.9,169.9-793.5-458.6l-55.4-32.2c-79.2-45.7,287,165.6-774.6-447.1l.7-157.4,1621.6,936.1Z"/>
        <path class="cls-16" d="M1065.9,2553c16.7,9.7,30.2,33,30.1,52,0,19-13.6,26.5-30.3,16.8l-86.3-49.8c-16.5-9.5-30-32.6-29.9-51.6,0-19,13.6-26.7,30.1-17.2l86.3,49.8Z"/>
      </g>
    </g>
    <g class="cls-30">
      <polygon class="cls-11" points="3276.2 1684.8 3273.3 2708.5 2366.4 3235.5 2369.3 2211.8 3276.2 1684.8"/>
      <polygon class="cls-12" points="2369.3 2211.8 2366.4 3235.5 917.6 2399.1 920.5 1375.4 2369.3 2211.8"/>
      <polygon class="cls-14" points="3276.2 1684.8 2369.3 2211.8 920.5 1375.4 1827.5 848.3 3276.2 1684.8"/>
    </g>
    <g>
      <polygon class="cls-21" points="2532.9 2745.4 3428.7 2224.8 3427.4 2880.1 2531.7 3400.6 2532.9 2745.4"/>
      <g>
        <g>
          <polygon class="cls-22" points="2575.7 3494.8 2854.1 3333 2853.8 3713.7 2575.4 3875.5 2575.7 3494.8"/>
          <polygon class="cls-20" points="2575.7 3494.8 2575.4 3875.5 2530.6 3849.7 2530.9 3469.3 2575.7 3494.8"/>
        </g>
        <g class="cls-30">
          <polygon class="cls-1" points="2643.7 3932.8 2744.8 3874 2740.3 3877.5 2639.2 3936.3 2643.7 3932.8"/>
          <polygon class="cls-1" points="2624.3 3910.4 2725.4 3851.6 2730.8 3849.6 2629.6 3908.4 2624.3 3910.4"/>
          <polygon class="cls-9" points="2665.4 3963.7 2766.5 3904.9 2763 3909.9 2661.9 3968.7 2665.4 3963.7"/>
          <polygon class="cls-1" points="2607.6 3874.7 2708.7 3815.9 2714.8 3815.3 2613.7 3874.1 2607.6 3874.7"/>
          <polygon class="cls-9" points="2689.6 3991.4 2790.7 3932.6 2788.3 3938.7 2687.1 3997.5 2689.6 3991.4"/>
          <polygon class="cls-29" points="2595.3 3838.4 2696.5 3779.7 2703 3780.7 2601.8 3839.5 2595.3 3838.4"/>
          <polygon class="cls-9" points="2715.5 4015 2816.6 3956.3 2815.3 3963.5 2714.2 4022.2 2715.5 4015"/>
          <polygon class="cls-29" points="2587.5 3802.7 2688.6 3744 2695.5 3746.6 2594.4 3805.3 2587.5 3802.7"/>
          <polygon class="cls-9" points="2742.3 4034 2843.4 3975.2 2843.4 3983.1 2742.3 4041.9 2742.3 4034"/>
          <polygon class="cls-29" points="2586.4 3745.9 2687.5 3687.2 2694.4 3692.5 2593.3 3751.3 2586.4 3745.9"/>
          <polygon class="cls-9" points="2769.2 4047.6 2870.4 3988.8 2871.5 3997.4 2770.4 4056.2 2769.2 4047.6"/>
          <path class="cls-1" d="M2847,3940.1c-33.7,19.6-67.4,39.2-101.1,58.8-66.5-38.4-120.4-130.4-122.2-207.4l101.1-58.8c1.7,77,55.7,169,122.2,207.4Z"/>
          <path class="cls-4" d="M2745.9,3984.4c-59.5-34.4-107.8-116.7-109.6-185.6l101.1-58.8c1.7,68.9,50.1,151.2,109.6,185.6-4.5,2.6-97.8,56.8-101.1,58.8Z"/>
          <path class="cls-18" d="M2762.2,3799.7c9.1,25.9,23.7,51.3,41.7,72.2l-101.1,58.8c-18-20.9-32.6-46.3-41.7-72.2,30.3-17.6,70.8-41.1,101.1-58.8Z"/>
          <polygon class="cls-29" points="2593.3 3718.3 2694.4 3659.6 2700.9 3666.1 2599.8 3724.9 2593.3 3718.3"/>
          <path class="cls-18" d="M2651,3807.3l101.1-58.8c.3,10.5,1.9,21.3,4.5,32.2l-101.1,58.8c-2.7-10.9-4.2-21.8-4.5-32.2Z"/>
          <polygon class="cls-9" points="2795.5 4055.3 2896.6 3996.5 2899 4005.4 2797.9 4064.2 2795.5 4055.3"/>
          <path class="cls-18" d="M2716.4,3945.1l101.1-58.8c9.3,8.9,19.2,16.5,29.5,22.5l-101.1,58.8c-10.4-6-20.3-13.6-29.5-22.5Z"/>
          <path class="cls-1" d="M2760.6,3658.5c-21.2,12.3-34.6,38-35.7,74.3l-101.1,58.8c1.1-36.4,14.5-62,35.7-74.3,30.3-17.6,70.8-41.1,101.1-58.8Z"/>
          <path class="cls-4" d="M2769.5,3673.8c-18.9,11-31,33.9-32,66.3l-101.1,58.8c1.1-32.4,13.1-55.3,32-66.3,30.3-17.6,70.8-41.1,101.1-58.8Z"/>
          <path class="cls-18" d="M2756.7,3721.8c-2.7,7.8-4.3,16.7-4.6,26.8l-101.1,58.8c.4-10.1,1.9-19,4.6-26.8,33.7-19.6,67.4-39.2,101.1-58.8Z"/>
          <polygon class="cls-1" points="2661.1 3858.5 2762.2 3799.7 2809.7 3810 2708.6 3868.8 2661.1 3858.5"/>
          <polygon class="cls-18" points="2655.5 3839.5 2756.6 3780.8 2800.8 3779.7 2699.6 3838.5 2655.5 3839.5"/>
          <polygon class="cls-1" points="2655.7 3780.4 2756.8 3721.6 2800.9 3773.6 2699.8 3832.3 2655.7 3780.4"/>
          <path class="cls-18" d="M2756.7,3721.8c-25.5,14.8-75.8,43.9-101,58.6l101.1-58.8c0,0,0,.1,0,.2Z"/>
          <polygon class="cls-29" points="2604.7 3695.2 2705.8 3636.5 2711.8 3643.9 2610.7 3702.6 2604.7 3695.2"/>
          <polygon class="cls-1" points="2717.8 3884.8 2818.9 3826 2803.9 3871.9 2702.8 3930.7 2717.8 3884.8"/>
          <path class="cls-1" d="M2708.6,3868.8l101.1-58.8c.8.2,1.6.5,2.3.9l-101.1,58.8c-.8-.4-1.5-.8-2.3-.9Z"/>
          <polygon class="cls-9" points="2820.3 4057.2 2921.4 3998.4 2924.8 4007.3 2823.7 4066.1 2820.3 4057.2"/>
          <path class="cls-1" d="M2847,3940.1c34.1,19.7,65,21.5,87.3,8.6l-101.1,58.8c-22.3,13-53.2,11.1-87.3-8.6,33.7-19.6,67.4-39.2,101.1-58.8Z"/>
          <path class="cls-4" d="M2847.1,3925.7c30.6,17.7,58.3,19.3,78.3,7.7l-101.1,58.8c-20,11.6-47.7,10-78.3-7.7,11-6.4,92.5-53.8,101.1-58.8Z"/>
          <path class="cls-18" d="M2746,3967.5l101.1-58.8c10.3,6,20.2,9.8,29.5,11.6l-101.1,58.8c-9.3-1.8-19.2-5.7-29.5-11.6Z"/>
          <path class="cls-15" d="M2717.8,3884.8l-15,45.9c-18-20.9-32.6-46.3-41.7-72.2l47.5,10.3c5.7,1.2,11.1,10.5,9.3,16Z"/>
          <path class="cls-1" d="M2710.9,3869.7l101.1-58.8c4.8,2.7,8.5,10.3,6.9,15.1l-101.1,58.8c1.6-4.8-2.2-12.4-6.9-15.1Z"/>
          <polygon class="cls-18" points="2739.6 3907.7 2840.7 3848.9 2817.6 3886.3 2716.4 3945.1 2739.6 3907.7"/>
          <path class="cls-18" d="M2740.9,3906.3l101.1-58.8c-.5.3-1,.7-1.3,1.4l-101.1,58.8c.4-.6.8-1,1.3-1.4Z"/>
          <path class="cls-18" d="M2802.7,3779.3l-101.1,58.8c-.5.3-1.2.5-1.9.5l101.1-58.8c.8,0,1.4-.2,1.9-.5Z"/>
          <path class="cls-1" d="M2802.7,3779.2l-101.1,58.8c.4-.2.7-.5,1-.9l101.1-58.8c-.3.4-.6.6-1,.9Z"/>
          <path class="cls-15" d="M2655.7,3780.4c46.5,55.3,45,51.8,47,56.8-.7.8-1.7,1.4-3,1.4l-44.1,1c-5-20.3-6.7-39.6.2-59.2Z"/>
          <path class="cls-1" d="M2699.8,3832.3l101.1-58.8c1.2,1.5,2.2,3.1,2.9,4.8l-101.1,58.8c-.7-1.7-1.6-3.3-2.9-4.8Z"/>
          <path class="cls-1" d="M2740.9,3906.3l101.1-58.8c1.4-.8,3.3-.6,5.2.5l-101.1,58.8c-1.9-1.1-3.8-1.4-5.2-.5Z"/>
          <polygon class="cls-1" points="2752.7 3915.2 2853.8 3856.5 2876.6 3920.4 2775.5 3979.2 2752.7 3915.2"/>
          <path class="cls-1" d="M2746.1,3906.8l101.1-58.8c2.6,1.5,5.2,4.5,6.5,8.4l-101.1,58.8c-1.4-3.9-4-6.9-6.5-8.4Z"/>
          <polygon class="cls-18" points="2661.4 3768 2762.5 3709.2 2809.9 3753.7 2708.8 3812.5 2661.4 3768"/>
          <polygon class="cls-1" points="2703.3 3744 2804.4 3685.3 2819.2 3748.3 2718.1 3807.1 2703.3 3744"/>
          <path class="cls-18" d="M2809.9,3753.7c.8.7,1.5,1.3,2.3,1.7-33.7,19.6-67.4,39.2-101.1,58.8-.7-.4-1.5-1-2.3-1.7,33.7-19.6,67.4-39.2,101.1-58.8Z"/>
          <path class="cls-18" d="M2812.2,3755.4h0c-33.7,19.6-67.4,39.2-101.1,58.8h0c33.7-19.6,67.4-39.2,101.1-58.8Z"/>
          <polygon class="cls-18" points="2774.5 3917.5 2875.6 3858.8 2890.4 3921.8 2789.3 3980.6 2774.5 3917.5"/>
          <path class="cls-18" d="M2678.7,3750.4l101.1-58.8c-7,4-12.8,9.9-17.3,17.6l-101.1,58.8c4.5-7.6,10.4-13.5,17.3-17.6Z"/>
          <path class="cls-18" d="M2812.2,3755.4c2,1.2,3.9,1.3,5.2.5l-101.1,58.8c-1.3.8-3.2.7-5.2-.5,33.7-19.6,67.4-39.2,101.1-58.8Z"/>
          <path class="cls-18" d="M2877.5,3851.2c-1.8,1.1-2.7,3.7-1.9,7.5l-101.1,58.8c-.9-3.8,0-6.5,1.9-7.5,30.3-17.6,70.8-41.1,101.1-58.8Z"/>
          <path class="cls-18" d="M2915.1,3915.4l-101.1,58.8c-7.2,4.2-15.5,6.4-24.7,6.4l101.1-58.8c9.2,0,17.5-2.2,24.7-6.4Z"/>
          <path class="cls-1" d="M2817.4,3755.9l-101.1,58.8c1.8-1.1,2.7-3.8,1.8-7.6l101.1-58.8c.9,3.8,0,6.5-1.8,7.6Z"/>
          <path class="cls-1" d="M2776.4,3910l101.1-58.8c1.3-.8,3.1-.7,5.1.5l-101.1,58.8c-2-1.1-3.8-1.2-5.1-.5Z"/>
          <path class="cls-1" d="M2781.5,3910.4l101.1-58.8c.8.4,1.5,1,2.3,1.8l-101.1,58.8c-.8-.7-1.6-1.3-2.3-1.8Z"/>
          <path class="cls-1" d="M2678.7,3750.4l101.1-58.8c7.2-4.2,15.5-6.3,24.6-6.4l-101.1,58.8c-9.1,0-17.4,2.2-24.6,6.4Z"/>
          <path class="cls-15" d="M2703.3,3744l14.8,63.1c1.8,7.6-3.6,10.8-9.3,5.4l-47.4-44.5c9.2-15.5,23.9-23.9,41.9-23.9Z"/>
          <path class="cls-18" d="M2891.1,3828.8c.6,1.6,1.6,3.3,2.9,4.8l-101.1,58.8c133.7-77.7,134.8-78.3,0,0-1.3-1.5-2.2-3.2-2.8-4.7,30.3-17.6,70.8-41.1,101.1-58.8Z"/>
          <polygon class="cls-1" points="2783.8 3912.2 2884.9 3853.4 2932.4 3898 2831.3 3956.7 2783.8 3912.2"/>
          <path class="cls-1" d="M2915.1,3915.4l-101.1,58.8c6.9-4,12.8-9.9,17.3-17.5l101.1-58.8c-4.5,7.6-10.4,13.5-17.3,17.5Z"/>
          <path class="cls-15" d="M2783.8,3912.2l47.5,44.5c-9.2,15.4-23.9,23.8-42,23.9l-14.8-63.1c-1.7-7.6,3.6-10.8,9.3-5.3Z"/>
          <path class="cls-18" d="M2892.2,3827.8c-.4.2-.8.6-1.1,1l-101.1,58.8c.3-.4.6-.7,1.1-1,30.3-17.6,70.8-41.1,101.1-58.8Z"/>
          <path class="cls-18" d="M2852.8,3759.6l-101.1,58.8c-1.4.8-3.3.6-5.2-.5-2.6-1.5-5.2-4.5-6.5-8.4l101.1-58.8c1.4,3.9,3.9,6.9,6.5,8.4,1.9,1.1,3.8,1.4,5.2.5Z"/>
          <path class="cls-1" d="M2791,3886.6l101.1-58.8c.6-.3,1.2-.5,2-.5l-101.1,58.8c-.7,0-1.4.2-2,.5Z"/>
          <path class="cls-1" d="M2852.8,3759.6l-101.1,58.8c.5-.3,1-.7,1.3-1.4l101.1-58.8c-.4.6-.8,1.1-1.3,1.4Z"/>
          <polygon class="cls-18" points="2717.1 3745.5 2818.2 3686.7 2841.1 3750.7 2740 3809.4 2717.1 3745.5"/>
          <path class="cls-18" d="M2882.9,3796.3c-33.7,19.6-67.4,39.2-101.1,58.8,0,0,0,0,0,0,33.7-19.6,67.4-39.2,101.1-58.8h0Z"/>
          <path class="cls-18" d="M2882.9,3796.3c.7.4,1.5.7,2.3.9-33.5,19.5-54.2,31.5-101.1,58.8-.8-.2-1.5-.5-2.3-.9,33.7-19.6,67.4-39.2,101.1-58.8Z"/>
          <path class="cls-18" d="M2876,3781.1c-1.6,4.8,2.2,12.4,7,15.2-33.7,19.6-67.4,39.2-101.1,58.8-4.8-2.8-8.6-10.4-7-15.2,30.3-17.6,70.8-41.1,101.1-58.8Z"/>
          <polygon class="cls-18" points="2792.9 3892.3 2894 3833.6 2938 3885.5 2836.9 3944.3 2792.9 3892.3"/>
          <path class="cls-1" d="M2717.1,3745.5l101.1-58.8c9.3,1.9,19.2,5.7,29.6,11.7l-101.1,58.8c-10.4-6-20.3-9.8-29.6-11.7Z"/>
          <path class="cls-1" d="M2841.6,3917.4l101.1-58.8c-.4,10.1-2,19.1-4.7,26.9l-101.1,58.8c2.7-7.8,4.3-16.8,4.7-26.9Z"/>
          <path class="cls-18" d="M2668.4,3732.6l101.1-58.8c20-11.6,47.7-10,78.3,7.7l-101.1,58.8c-30.6-17.7-58.3-19.3-78.3-7.7Z"/>
          <polygon class="cls-1" points="2793 3886.1 2894.1 3827.3 2938.3 3826.3 2837.1 3885.1 2793 3886.1"/>
          <path class="cls-1" d="M2837.1,3885.1l101.1-58.8c2.6,10.9,4.2,21.7,4.5,32.3l-101.1,58.8c-.3-10.5-1.9-21.3-4.5-32.3Z"/>
          <polygon class="cls-1" points="2776.2 3779.6 2877.3 3720.8 2854.2 3758.2 2753 3817 2776.2 3779.6"/>
          <path class="cls-15" d="M2776.2,3779.6l-23.2,37.4c-3.1,5.1-10.7-.8-13.1-7.5l-22.9-64c21.7,4.4,43,18.7,59.1,34.1Z"/>
          <polygon class="cls-18" points="2784.1 3855.9 2885.2 3797.2 2932.6 3807.4 2831.5 3866.2 2784.1 3855.9"/>
          <polygon class="cls-18" points="2789.8 3794 2890.9 3735.2 2876 3781.1 2774.8 3839.8 2789.8 3794"/>
          <path class="cls-1" d="M2789.8,3794l101.1-58.8c18,20.9,32.6,46.3,41.7,72.2l-101.1,58.8c-9.1-26-23.7-51.4-41.7-72.2Z"/>
          <polygon class="cls-29" points="2620.5 3677.3 2721.6 3618.5 2726.8 3626.7 2625.7 3685.5 2620.5 3677.3"/>
          <polygon class="cls-9" points="2842.8 4052.9 2943.9 3994.2 2948.3 4002.8 2847.2 4061.6 2842.8 4052.9"/>
          <polygon class="cls-9" points="2640 3665.1 2741.1 3606.4 2745.6 3615.1 2644.4 3673.8 2640 3665.1"/>
          <polygon class="cls-9" points="2862.4 4042.7 2963.5 3984 2968.8 3992.1 2867.7 4050.9 2862.4 4042.7"/>
          <polygon class="cls-21" points="2644.4 3673.8 2745.6 3615.1 2750.9 3613 2649.8 3671.7 2644.4 3673.8"/>
          <polygon class="cls-21" points="2866.9 4039.2 2968 3980.4 2963.5 3984 2862.4 4042.7 2866.9 4039.2"/>
          <polygon class="cls-9" points="2662.7 3659 2763.9 3600.3 2767.4 3609.3 2666.3 3668 2662.7 3659"/>
          <polygon class="cls-9" points="2878.4 4026.9 2979.5 3968.1 2985.6 3975.7 2884.5 4034.5 2878.4 4026.9"/>
          <polygon class="cls-21" points="2666.3 3668 2767.4 3609.3 2773.5 3608.7 2672.4 3667.5 2666.3 3668"/>
          <polygon class="cls-21" points="2882 4022 2983.1 3963.2 2979.5 3968.1 2878.4 4026.9 2882 4022"/>
          <polygon class="cls-9" points="2688.1 3659.4 2789.2 3600.7 2791.6 3609.5 2690.5 3668.3 2688.1 3659.4"/>
          <polygon class="cls-21" points="2690.5 3668.3 2791.6 3609.5 2798.3 3610.6 2697.2 3669.4 2690.5 3668.3"/>
          <polygon class="cls-9" points="2890.4 4006.1 2991.5 3947.3 2998.1 3953.8 2897 4012.6 2890.4 4006.1"/>
          <polygon class="cls-21" points="2892.9 3999.8 2994 3941 2991.5 3947.3 2890.4 4006.1 2892.9 3999.8"/>
          <path class="cls-18" d="M2925.4,3933.3l-101.1,58.8c18.9-11,31-33.8,32.1-66.2l101.1-58.8c-1.1,32.4-13.2,55.2-32.1,66.2Z"/>
          <path class="cls-1" d="M2746.7,3757.2l101.1-58.8c10.3,6,20.3,13.6,29.5,22.4l-101.1,58.8c-9.3-8.9-19.2-16.5-29.5-22.4Z"/>
          <path class="cls-4" d="M2659.4,3717.2l101.1-58.8c22.3-13,53.2-11.1,87.3,8.5l-101.1,58.8c-34.1-19.7-65-21.5-87.3-8.5Z"/>
          <path class="cls-4" d="M2934.3,3948.7l-101.1,58.8c21.2-12.3,34.6-38,35.8-74.3l101.1-58.8c-1.1,36.3-14.6,62-35.8,74.3Z"/>
          <path class="cls-1" d="M2631.7,3669.4c102.1-59.1,102-59.7,109.5-63l-101.1,58.8c-2.9,1.2-5.6,2.7-8.3,4.2Z"/>
          <polygon class="cls-9" points="2715.2 3665.9 2816.3 3607.2 2817.5 3615.8 2716.4 3674.5 2715.2 3665.9"/>
          <polygon class="cls-21" points="2716.4 3674.5 2817.5 3615.8 2824.5 3618.3 2723.4 3677.1 2716.4 3674.5"/>
          <polygon class="cls-9" points="2898.1 3980.7 2999.2 3921.9 3006.1 3927.3 2905 3986 2898.1 3980.7"/>
          <polygon class="cls-21" points="2899.4 3973.4 3000.5 3914.6 2999.2 3921.9 2898.1 3980.7 2899.4 3973.4"/>
          <polygon class="cls-21" points="2743.3 3686.6 2844.4 3627.9 2851.5 3632 2750.4 3690.7 2743.3 3686.6"/>
          <path class="cls-18" d="M2746.7,3740.3l101.1-58.8c59.5,34.4,107.8,116.6,109.7,185.6l-101.1,58.8c-1.8-69-50.1-151.2-109.7-185.6Z"/>
          <polygon class="cls-21" points="2898.3 3919.3 2999.4 3860.5 3000.6 3869.4 2899.5 3928.1 2898.3 3919.3"/>
          <path class="cls-4" d="M2746.7,3725.8l101.1-58.8c66.5,38.4,120.4,130.4,122.3,207.4l-101.1,58.8c-1.8-77-55.8-169-122.3-207.4Z"/>
          <polygon class="cls-21" points="2770.2 3704.1 2871.3 3645.4 2878.3 3650.9 2777.2 3709.6 2770.2 3704.1"/>
          <polygon class="cls-21" points="2890.8 3885.2 2991.9 3826.5 2994.3 3835.5 2893.2 3894.3 2890.8 3885.2"/>
          <polygon class="cls-21" points="2878.9 3850.5 2980 3791.8 2983.5 3800.8 2882.4 3859.5 2878.9 3850.5"/>
          <polygon class="cls-21" points="2863 3816.3 2964.1 3757.5 2968.6 3766.3 2867.5 3825.1 2863 3816.3"/>
          <path class="cls-15" d="M2906.2,3978.7l-6.8-5.3-1.3,7.3,6.9,5.4c-1.4,7.3-3.3,14-5.6,20.3l-6.5-6.5-2.4,6.3,6.5,6.5c-2.5,6.2-5.6,11.8-9,16.9l-6-7.5-3.6,4.9,6.1,7.6c-3.7,4.8-7.8,9.2-12.3,12.9l-5.3-8.2-4.5,3.6,5.3,8.2c-4.7,3.4-9.7,6.3-15,8.6l-4.4-8.6-5.4,2.1,4.4,8.6c-5.5,2-11.3,3.3-17.4,4.1l-3.5-9-6.1.6,3.4,8.9c-6.1.3-12.5.2-19.2-.8l-2.4-8.9-6.6-1.1,2.4,8.9c-6.7-1.2-13.5-3-20.5-5.5l-1.2-8.6-7-2.6,1.2,8.6c-7-2.8-14-6.2-21.1-10.2v-7.9s-7.1-4.1-7.1-4.1v7.9c-7.2-4.3-14.2-9-21.1-14.2l1.2-7.2-6.9-5.5-1.2,7.2c-7-5.6-13.8-11.6-20.4-18.1l2.4-6.1-6.7-6.6-2.4,6.1c-6.6-6.6-13-13.9-19.1-21.3l3.5-4.9-6.1-7.6-3.6,4.9c-6.1-7.8-11.8-15.8-17.3-24.1l4.5-3.5-5.4-8.3-4.5,3.5c-5.3-8.4-10.3-17.1-14.9-25.9l5.3-2-4.5-8.8-5.3,2.1c-4.4-8.8-8.5-17.8-12.2-27l6.1-.6-3.5-9-6,.5c-3.4-9-6.4-18.1-8.8-27.2l6.5,1-2.4-9-6.5-1c-2.3-9-4.1-17.9-5.5-26.7l6.9,2.6-1.2-8.8-6.9-2.6c-2.1-17.5-2.3-31.6.1-48l6.9,5.4,1.3-7.4-6.9-5.4c1.4-7.2,3.3-14,5.6-20.2l6.5,6.5,2.4-6.3-6.5-6.5c2.5-6.2,5.5-11.8,9-16.9l6,7.4,3.6-4.9-6.1-7.6c3.8-4.8,7.8-9.1,12.3-12.8l5.3,8.2,4.6-3.6-5.3-8.2c4.7-3.4,9.7-6.3,15-8.6l4.4,8.7,5.4-2.1-4.4-8.7c5.5-2,11.3-3.2,17.4-4l3.5,9,6.1-.6-3.4-8.9c6.2-.4,12.6-.2,19.2.8l2.4,8.9,6.7,1.1-2.4-8.9c6.6,1.1,13.4,3,20.5,5.4l1.2,8.6,7,2.6-1.1-8.6c6.9,2.7,13.9,6.2,21.1,10.1v8s7.1,4.1,7.1,4.1v-8c7.1,4.3,14.1,9,21.1,14.2l-1.2,7.2,7,5.5,1.2-7.2c7,5.6,13.8,11.6,20.4,18.1l-2.4,6.1,6.6,6.6,2.4-6.1c6.7,6.7,13,13.8,19.1,21.3l-3.5,4.9,6.1,7.6,3.6-4.9c6.1,7.8,11.8,15.7,17.3,24l-4.5,3.6,5.4,8.3,4.5-3.6c5.3,8.4,10.3,17.1,14.9,25.9l-5.3,2.1,4.5,8.8,5.3-2c4.4,8.8,8.5,17.8,12.1,26.9l-6.1.6,3.5,9,6-.5c3.4,9,6.4,18.1,8.8,27.2l-6.5-1,2.4,9,6.5,1c2.3,9,4.2,17.8,5.5,26.6l-6.9-2.6,1.3,8.8,6.8,2.6c2.1,16.5,2.4,31.6-.1,48ZM2868.9,3933.1c-1.7-77-55.7-169-122.2-207.4-66.5-38.4-120.7-8.9-123,65.8,1.7,77,55.7,169,122.2,207.4,66.5,38.4,120.8,8.9,123-65.8"/>
          <path class="cls-15" d="M2789.8,3794c18,20.9,32.6,46.3,41.7,72.2l-47.4-10.3c-5.7-1.2-11.1-10.6-9.3-16.1l15-45.9Z"/>
          <path class="cls-18" d="M2746.7,3740.3c59.5,34.4,107.8,116.6,109.7,185.6-2.3,66.6-50.9,92.9-110.4,58.6-59.5-34.4-107.8-116.7-109.7-185.6,2.3-66.6,50.9-92.9,110.4-58.6ZM2703.3,3744c-18,0-32.8,8.5-41.9,23.9l47.4,44.5c5.7,5.4,11.1,2.3,9.3-5.4l-14.8-63.1M2831.5,3866.2c-9.1-26-23.7-51.4-41.7-72.2l-15,45.9c-1.9,5.5,3.5,14.9,9.3,16.1l47.4,10.3M2789.3,3980.6c18.1,0,32.8-8.5,42-23.9l-47.5-44.5c-5.7-5.4-11-2.3-9.3,5.3l14.8,63.1M2661.1,3858.5c9.1,25.9,23.7,51.3,41.7,72.2l15-45.9c1.9-5.6-3.5-14.9-9.3-16l-47.5-10.3M2746,3967.5c10.3,6,20.2,9.8,29.5,11.6l-22.8-63.9c-2.5-6.9-10.1-12.5-13.1-7.6l-23.1,37.4c9.3,8.9,19.2,16.5,29.5,22.5M2746.7,3757.2c-10.4-6-20.3-9.8-29.6-11.7l22.9,64c2.5,6.9,10.1,12.5,13.1,7.5l23.2-37.4c-9.3-8.9-19.2-16.5-29.5-22.4M2836.9,3944.3c6.9-19.6,5.1-38.9.2-59.2l-44.2,1c-1.3,0-2.3.5-3,1.5,1.8,4.7,1.4,2.5,46.9,56.7M2651,3807.3c.3,10.5,1.9,21.3,4.5,32.2l44.1-1c1.3,0,2.3-.5,3-1.4-1.8-4.9-2.5-3.8-46.9-56.8-2.7,7.8-4.3,16.8-4.7,26.9"/>
          <path class="cls-29" d="M2746.7,3725.8c66.5,38.4,120.4,130.4,122.3,207.4-2.3,74.6-56.6,104.1-123.1,65.7-66.5-38.4-120.4-130.4-122.2-207.4,2.3-74.6,56.6-104.1,123-65.8ZM2856.3,3925.8c-1.8-69-50.1-151.2-109.6-185.6-59.5-34.4-108.1-8.1-110.3,58.6,1.7,68.9,50.1,151.2,109.6,185.6,59.5,34.4,108.1,8,110.3-58.6"/>
          <path class="cls-15" d="M2739.6,3907.7l-23.1,37.4c15.9,15.3,37.4,29.9,59.1,34.1l-22.8-63.9c-2.5-6.9-10.1-12.5-13.1-7.6Z"/>
          <path class="cls-1" d="M2861.1,4055.2c2.3-1.3,4.5-2.8,6.6-4.3l101.1-58.8c-5.4,4-112.2,65.7-107.7,63.1Z"/>
          <path class="cls-29" d="M2645.4,3663l101.1-58.8c5.5-2,11.3-3.2,17.4-4l-101.1,58.8c-6.1.8-11.9,2-17.4,4Z"/>
          <path class="cls-29" d="M2884.5,4034.5l101.1-58.8c-3.7,4.8-7.8,9.2-12.3,12.9l-101.1,58.8c4.5-3.7,8.5-8,12.3-12.9Z"/>
          <path class="cls-29" d="M2668.9,3658.6l101.1-58.8c6.2-.4,12.6-.2,19.2.8l-101.1,58.8c-6.6-1-13-1.2-19.2-.8Z"/>
          <path class="cls-29" d="M2897,4012.6l101.1-58.8c-2.5,6.2-5.6,11.8-9,16.9l-101.1,58.8c3.4-5.1,6.5-10.7,9-16.9Z"/>
          <path class="cls-15" d="M2837.1,3885.1c4.9,20.2,6.7,39.6-.2,59.2-46.5-55.3-45-51.8-47-56.7.7-.9,1.7-1.4,3-1.4l44.2-1Z"/>
          <path class="cls-29" d="M2694.8,3660.5l101.1-58.8c6.6,1.1,13.4,3,20.5,5.4l-101.1,58.8c-7-2.5-13.8-4.3-20.5-5.4Z"/>
          <path class="cls-29" d="M2905,3986l101.1-58.8c-1.4,7.3-3.3,14-5.6,20.3l-101.1,58.8c2.4-6.3,4.2-13,5.6-20.3Z"/>
          <polygon class="cls-9" points="2743.3 3678.6 2844.4 3619.9 2844.4 3627.9 2743.3 3686.6 2743.3 3678.6"/>
          <path class="cls-29" d="M2722.2,3668.5l101.1-58.8c6.9,2.7,13.9,6.2,21.1,10.1l-101.1,58.8c-7.2-3.9-14.2-7.4-21.1-10.1Z"/>
          <polygon class="cls-9" points="2899.5 3928.1 3000.6 3869.4 3007.5 3871.9 2906.4 3930.7 2899.5 3928.1"/>
          <path class="cls-29" d="M3007.5,3871.9l-101.1,58.8c2,16.4,2.4,31.5-.1,48l101.1-58.8c2.5-16.4,2.2-31.5.1-48Z"/>
          <polygon class="cls-9" points="2771.4 3697 2872.6 3638.2 2871.3 3645.4 2770.2 3704.1 2771.4 3697"/>
          <path class="cls-29" d="M2750.4,3682.7l101.1-58.8c7.1,4.3,14.1,9,21.1,14.2l-101.1,58.8c-6.9-5.3-13.9-9.9-21.1-14.2Z"/>
          <polygon class="cls-21" points="2796.4 3726.7 2897.5 3667.9 2904.2 3674.5 2803 3733.3 2796.4 3726.7"/>
          <polygon class="cls-9" points="2893.2 3894.3 2994.3 3835.5 3000.8 3836.5 2899.7 3895.2 2893.2 3894.3"/>
          <path class="cls-29" d="M2899.7,3895.2l101.1-58.8c2.3,9,4.2,17.8,5.5,26.6l-101.1,58.8c-1.3-8.8-3.2-17.7-5.5-26.6Z"/>
          <polygon class="cls-9" points="2798.8 3720.6 2899.9 3661.8 2897.5 3667.9 2796.4 3726.7 2798.8 3720.6"/>
          <path class="cls-29" d="M2778.4,3702.4l101.1-58.8c7,5.6,13.8,11.6,20.4,18.1l-101.1,58.8c-6.6-6.5-13.4-12.5-20.4-18.1Z"/>
          <polygon class="cls-21" points="2821.1 3753.4 2922.2 3694.6 2928.3 3702.2 2827.2 3761 2821.1 3753.4"/>
          <polygon class="cls-21" points="2843.6 3783.6 2944.7 3724.8 2950 3733.1 2848.9 3791.9 2843.6 3783.6"/>
          <path class="cls-29" d="M2888.5,3859.1l101.1-58.8c3.4,9,6.4,18.1,8.8,27.2l-101.1,58.8c-2.5-9-5.5-18.1-8.8-27.2Z"/>
          <polygon class="cls-9" points="2882.4 3859.5 2983.5 3800.8 2989.6 3800.3 2888.5 3859.1 2882.4 3859.5"/>
          <polygon class="cls-9" points="2824.6 3748.5 2925.7 3689.7 2922.2 3694.6 2821.1 3753.4 2824.6 3748.5"/>
          <path class="cls-29" d="M2805.5,3727.2l101.1-58.8c6.7,6.7,13,13.8,19.1,21.3l-101.1,58.8c-6.1-7.5-12.5-14.6-19.1-21.3Z"/>
          <path class="cls-29" d="M2872.8,3823l101.1-58.8c4.4,8.8,8.5,17.8,12.1,26.9l-101.1,58.8c-3.7-9.1-7.7-18.1-12.1-26.9Z"/>
          <polygon class="cls-9" points="2867.5 3825.1 2968.6 3766.3 2974 3764.3 2872.8 3823 2867.5 3825.1"/>
          <path class="cls-29" d="M2830.7,3756l101.1-58.8c6.1,7.8,11.8,15.7,17.3,24l-101.1,58.8c-5.4-8.3-11.2-16.2-17.3-24Z"/>
          <polygon class="cls-9" points="2848 3780 2949.1 3721.3 2944.7 3724.8 2843.6 3783.6 2848 3780"/>
          <path class="cls-29" d="M2853.4,3788.3l101.1-58.8c5.3,8.4,10.3,17.1,14.9,25.9l-101.1,58.8c-4.6-8.8-9.7-17.5-14.9-25.9Z"/>
        </g>
        <g>
          <g class="cls-30">
            <path class="cls-29" d="M4064,2749.3l-21.8-12.7c-2.2-1.3-3.6-4-3.6-8l21.8,12.7c0,4,1.4,6.7,3.6,8Z"/>
            <path class="cls-29" d="M4142.1,2527.3l21.8,12.7c-2.2-1.3-5.4-1.1-8.8.9l-21.8-12.7c3.5-2,6.6-2.2,8.8-.9Z"/>
            <polygon class="cls-29" points="4123.9 2558.9 4102 2546.2 4133.2 2528.2 4155 2540.9 4123.9 2558.9"/>
            <polygon class="cls-29" points="4060.4 2741.3 4038.5 2728.6 4038.2 2597.6 4060 2610.3 4060.4 2741.3"/>
            <polygon class="cls-29" points="4072.3 2588.7 4050.4 2576 4081.6 2558 4103.5 2570.7 4072.3 2588.7"/>
            <path class="cls-29" d="M4060,2610.3l-21.8-12.7c0-8,5.4-17.7,12.3-21.6l21.8,12.7c-6.8,4-12.3,13.6-12.3,21.6Z"/>
            <polygon class="cls-9" points="4103.5 2570.7 4081.6 2558 4081.5 2498.6 4103.3 2511.2 4103.5 2570.7"/>
            <path class="cls-21" d="M4123.6,2476.4l.2,82.5,31.2-18c7-4,12.5-.7,12.5,7.3l.4,130.9c0,7.9-5.4,17.3-12.1,21.2l-83.4,48.1c-6.5,3.8-12,.6-12.1-7.2l-.4-130.9c0-8,5.4-17.7,12.3-21.6l31.2-18-.2-59.4-80.5,46.5v-23.1c0,0,100.8-58.2,100.8-58.2Z"/>
            <polygon class="cls-9" points="4022.8 2557.7 4001 2545 4000.9 2521.9 4022.7 2534.6 4022.8 2557.7"/>
            <polygon class="cls-29" points="4022.7 2534.6 4000.9 2521.9 4101.8 2463.7 4123.6 2476.4 4022.7 2534.6"/>
          </g>
          <g>
            <polygon class="cls-23" points="4028.3 2544.3 4020.6 2539.8 4020.6 2530.9 4028.2 2535.3 4028.3 2544.3"/>
            <polygon class="cls-6" points="2532.5 3298.1 3452.3 2763.5 3823.4 2977.8 2903.6 3512.4 2532.5 3298.1"/>
            <polygon class="cls-6" points="2534.1 3229.8 3453.9 2695.3 3648.9 2807.8 2729 3342.3 2534.1 3229.8"/>
            <path class="cls-6" d="M2729,3342.3l919.8-534.6c2.5,1.4,5,2.8,7.5,4.2,85.6,49.4,140.4,122.9,167.1,165.8l-919.8,534.6c-42.9-68.9-103.4-130.9-174.6-170Z"/>
            <path class="cls-6" d="M2913.9,3529.8l919.8-534.6c6,10.7,8.9,16.8,9,17.1l-919.8,534.6c-.1-.3-3-6.4-9-17.1Z"/>
            <polygon class="cls-6" points="2914 3518.3 3833.8 2983.8 3833.8 2995.2 2913.9 3529.8 2914 3518.3"/>
            <polygon class="cls-6" points="2903.6 3512.4 3823.4 2977.8 3833.8 2983.8 2914 3518.3 2903.6 3512.4"/>
            <polygon class="cls-9" points="4104.3 3360.5 4106 3542.5 3183.3 4076.5 3184.1 3895.4 4104.3 3360.5"/>
            <path class="cls-20" d="M3185.9,3796.3l-654.1-357.4c0-4.6,4.7-314.1,4.4-294.4,3.9-532.7,3.7-512.3,5.3-517.7v-.7c0-1.5.8-3,.8-3.8,3.7-9,12.7-14.2,34.4-2.2l454.1,282c3,1.5,52.4,31.4,71.1,113.7.6,4.6,43.4,363.6,41.9,350.9,1.7,15.2,17.3,115.1,42.2,429.5Z"/>
            <path class="cls-5" d="M3031.1,2902.1l919.8-534.6c2.6,1.6,52.2,31.4,70.1,113.8l-919.8,534.6c-17.9-82.5-67.5-112.3-70.1-113.8Z"/>
            <polygon class="cls-20" points="3184.5 3794.6 3183.3 4076.5 2995.1 3992.1 2942 3729.6 2531.8 3503.7 2531.7 3438.9 3184.5 3794.6"/>
            <path class="cls-2" d="M4104.1,3360.3l-920.2,535.1-23.8-389.8-59.1-489.6c92.5-53.7-338.1,196.4,920.2-534.4l82.8,878.7Z"/>
            <g>
              <path class="cls-7" d="M2689.5,3101.2c-4.1-2-8.2-5.1-12.3-10.2-20.4-17.4-35.8-48-35.8-74.6l.9-276.6-20.8-11.9-1,304.5c0,26.6,15.3,57.2,35.8,74.6,4.1,5.1,8.2,8.2,12.3,10.2,34.3,19.8,343.2,198.1,323.9,187h1c1-2,1-3.1,1-6.1l-3-22.4c-4.5-2.6-306.6-177-302.1-174.4Z"/>
              <path class="cls-26" d="M2991.5,3275.6c-153.6-89.4-286.8-165.7-291.3-168.1-13.6-7.7-17.6-9.2-23.2-16.6-20.4-17.7-35.3-48.2-35.3-74.7,0-4.6.7-294.1.7-276.4,227,130,278.3,161.2,274.4,158.9,4.5,2.2,19.1,15.7,25.8,29.2,7.2,19.7,7.4,35.3,9.5,47.5l39.4,300.2Z"/>
            </g>
            <path class="cls-29" d="M3838.7,3355.1c9.9-5.7,16.1,2.5,12,14.7l-32.9,94.6c-6.5,19.5-20.4,37.4-35.9,49.1l-301.2,173.9c-15,5.9-28.7,4-35.6-7.8l-33-56.5c-4.5-7.3,1.6-22.6,11.6-28.3l415-239.6Z"/>
            <path class="cls-13" d="M3631.4,3504.4c14-8.1,25-1.1,25.1,14.7,0,16.1-10.9,35.4-24.9,43.5-14,8.1-25.4,1.6-25.4-14.5,0-15.7,11.2-35.6,25.2-43.7Z"/>
            <g>
              <polygon class="cls-11" points="3248.3 3902.5 3248.5 3992.7 3393.2 3909.1 3393.1 3819 3248.3 3902.5"/>
              <polygon class="cls-11" points="3924.4 3511.7 3924.6 3601.9 4069.4 3518.3 4069.2 3428.2 3924.4 3511.7"/>
            </g>
          </g>
          <g class="cls-30">
            <path class="cls-29" d="M2955.6,3389.2l-21.8-12.7c-2.2-1.3-3.6-4-3.6-8l21.8,12.7c0,4,1.4,6.7,3.6,8Z"/>
            <path class="cls-29" d="M3033.7,3167.2l21.8,12.7c-2.2-1.3-5.4-1.1-8.8.9l-21.8-12.7c3.5-2,6.6-2.2,8.8-.9Z"/>
            <polygon class="cls-29" points="3015.5 3198.8 2993.7 3186.1 3024.8 3168.1 3046.7 3180.8 3015.5 3198.8"/>
            <polygon class="cls-29" points="2952 3381.2 2930.2 3368.5 2929.8 3237.5 2951.6 3250.2 2952 3381.2"/>
            <polygon class="cls-29" points="2963.9 3228.6 2942.1 3215.9 2973.3 3197.9 2995.1 3210.6 2963.9 3228.6"/>
            <path class="cls-29" d="M2951.6,3250.2l-21.8-12.7c0-8,5.4-17.7,12.3-21.6l21.8,12.7c-6.8,4-12.3,13.6-12.3,21.6Z"/>
            <path class="cls-21" d="M3095.9,3069.8v23.1c0,0-80.6,46.6-80.6,46.6l.2,59.4,31.2-18c7-4,12.5-.7,12.5,7.3l.4,130.9c0,7.9-5.4,17.3-12.1,21.2l-83.4,48.1c-6.5,3.8-12,.6-12.1-7.2l-.4-130.9c0-8,5.4-17.7,12.3-21.6l31.2-18-.2-82.5,101-58.3Z"/>
            <polygon class="cls-9" points="2995.1 3210.6 2973.3 3197.9 2973 3115.4 2994.9 3128.1 2995.1 3210.6"/>
            <polygon class="cls-29" points="2994.9 3128.1 2973 3115.4 3074.1 3057.1 3095.9 3069.8 2994.9 3128.1"/>
          </g>
        </g>
        <path class="cls-28" d="M2867.8,3067.3"/>
        <polygon class="cls-3" points="3752.4 3682 3752.4 3631.9 3536.9 3756.3 3539.2 3756.3 3539.2 3805.1 3752.4 3682"/>
        <g class="cls-31">
          <path class="cls-25" d="M2890.3,2883.1l-190.1,224.1c-13.6-7.7-17.5-8.9-23.1-16.3-20.4-17.7-35.3-48.2-35.3-74.7v-88.3l108-127,51.6,29.9,80.8,47.5,8.1,4.8Z"/>
          <path class="cls-25" d="M2952.1,2975.5l-157.6,185.4c-4.5-2.5-63.6-35.8-59.1-33.3l188.1-222.7c8.1,4.8,14.3,13.6,19,23.1,7.2,19.7,7.4,35.3,9.5,47.5Z"/>
        </g>
        <g>
          <polygon class="cls-7" points="3956.9 2566.1 3998.2 3001.1 3196.5 3466.5 3200.9 3503 4031.4 3020.8 3986.6 2548.8 3956.9 2566.1"/>
          <polygon class="cls-7" points="4031.4 3020.1 3986.6 2548.8 3956.9 2566.1 3998.2 3000.4 3639.5 3209.2 3643 3246.3 4031.4 3020.1"/>
          <path class="cls-26" d="M3998.1,3001.1c-4.6,2.7-865.3,502.1-801.7,465.2-.6-4.6-52.3-432.9-51.8-428.4,4.6-2.7,866.6-503.7,812.2-472,.4,4.5,44,464.7,41.2,435.2Z"/>
        </g>
        <path class="cls-12" d="M3315.8,3673.3c25.4-14.7,46-2.9,46.1,25.8,0,29.2-20.4,64.7-45.8,79.4-25,14.4-45.6,2.6-45.7-26.5,0-28.7,20.4-64.2,45.4-78.6Z"/>
        <path class="cls-11" d="M3301.3,3664.8c-39.2,22.7-61.2,91.2-31.9,108.2l14.5,8.4c-8.3-4.8-13.4-15-13.5-29.6-.1-45.2,48.6-99,78.2-81.8l-14.5-8.4c-8.4-4.9-20-4.2-32.8,3.2Z"/>
        <path class="cls-12" d="M4012.4,3284.7c25.4-14.7,46-2.9,46.1,25.8,0,29.2-20.4,64.7-45.8,79.4-25,14.4-45.6,2.6-45.7-26.5,0-28.7,20.4-64.2,45.4-78.6Z"/>
        <path class="cls-11" d="M3997.9,3276.3c-39.2,22.7-61.2,91.2-31.9,108.2l14.5,8.4c-8.3-4.8-13.4-15-13.5-29.6-.1-45.2,48.6-99,78.2-81.8l-14.5-8.4c-8.4-4.9-20-4.2-32.8,3.2Z"/>
      </g>
      <g class="cls-31">
        <polygon class="cls-25" points="3928.6 2589.7 3687.8 3180.9 3571.4 3248.3 3815.2 2648.3 3927.9 2582.5 3928.6 2589.7"/>
        <path class="cls-25" d="M3757.3,2681.6l-243.5,600.1c-4.6,2.7-322.1,187.3-317.4,184.6l-1.7-12.6,237-582.7,325.6-189.4Z"/>
      </g>
      <polygon class="cls-9" points="2532.9 2745.4 2531.7 3400.6 2397.1 3322.9 2398.4 2667.7 2532.9 2745.4"/>
      <polygon class="cls-29" points="2398.4 2667.7 3294.1 2147.1 3428.7 2224.8 2532.9 2745.4 2398.4 2667.7"/>
      <path class="cls-5" d="M2548.4,2614.9l919.8-534.6c5.2-3,13.8-2.8,27.8,5l-919.8,534.6c-14-7.8-22.5-8-27.8-5Z"/>
      <polygon class="cls-5" points="2576.2 2619.8 3496 2085.3 3950.9 2367.6 3031.1 2902.1 2576.2 2619.8"/>
      <path class="cls-20" d="M2795.5,2756l-218.9-135.9c-21.7-12-30.7-6.7-34.4,2.2,0,.8-.8,2.3-.8,3.8v.7c-1.5,5.2-.7,11.2-.7,12l-.8,16.5c-.7,92.3-2.2,284.2-2.1,272.5l87-198.1,170.6,26.3Z"/>
    </g>
    <g>
      <g>
        <polygon class="cls-9" points="1874.3 2665.7 1907.3 2749.3 1888.7 2738.5 1888.5 2822.9 1859.3 2806.1 1859.5 2721.7 1840.9 2711 1874.3 2665.7"/>
        <polygon class="cls-9" points="1962 2716.3 1994.9 2799.8 1976.4 2789.1 1976.2 2873.6 1947 2856.7 1947.2 2772.3 1928.5 2761.5 1962 2716.3"/>
      </g>
      <path class="cls-9" d="M2018.3,2941l-215.9-124.7c-2.1-1.2-3.4-3.4-3.4-5.8l.7-223.8c0-5.2,5.6-8.4,10.1-5.8l215.3,124.3c2.1,1.2,3.4,3.4,3.4,5.8v224.2c0,5.1-5.5,8.4-10.1,5.8ZM1812.5,2806.6l202.4,116.9v-208.6l-201.8-116.6-.6,208.3Z"/>
      <path class="cls-9" d="M2307.6,3108.5l-215.9-124.7c-2.1-1.2-3.4-3.4-3.4-5.8l.7-223.8c0-5,5.4-8.5,10.1-5.8l215.3,124.3c2.1,1.2,3.4,3.4,3.4,5.8v224.2c0,5.1-5.5,8.4-10.1,5.8ZM2101.8,2974.1l202.4,116.9v-208.6l-201.8-116.6-.6,208.3Z"/>
      <path class="cls-9" d="M2159.4,2818.8l-.2,71.1c0,22.5,12.9,48.5,30.1,61.7l-.2,30.1c-12.1-5.6-21.2-5-21.2,1.7l53.3,30.8c0-6.7-9.1-17.7-21.1-26.1l.2-30.1c7.9,3.1,14.7,2.4,20-1,6.3-4.7,10.4-13.4,10.4-25.9l.2-71.1-71.5-41.3Z"/>
    </g>
    <path class="cls-11" d="M2324.2,1452.8c92.1,53.2,92.9,139.1,1.6,192.1-91.5,53.2-239.8,53-331.9-.2-91.9-53-92.3-138.8-.8-192,91.3-53,239.3-53,331.1,0Z"/>
    <g class="cls-30">
      <path class="cls-10" d="M2173.1,604.7l145.7,84.7c36.2,21.1,58.7,65.9,58.9,129.5.4,128.1-89.7,284.2-201.3,348.6l-145.7-84.7c111.5-64.4,201.6-220.5,201.3-348.6-.2-63.7-22.7-108.5-58.9-129.5Z"/>
      <path class="cls-27" d="M2032.8,1181.6l-145.7-84.7c36.7,21.3,87.5,18.3,143.6-14.1l145.7,84.7c-56.1,32.4-106.9,35.4-143.6,14.1Z"/>
      <path class="cls-10" d="M2305.9,376.3l145.7,84.7c-70.8-41.1-168.9-35.3-277.1,27.1l-145.7-84.7c108.2-62.5,206.3-68.3,277.1-27.1Z"/>
      <path class="cls-16" d="M2174.6,488.1c215-124.2,390-24.5,390.7,222.6.7,247.1-368.1,868.1-387.5,900.8-19.5-10.2-390.6-204.1-391.3-451.2-.7-247.2,173-548.1,388.1-672.2ZM2176.5,1167.5c111.5-64.4,201.6-220.5,201.3-348.6-.4-128.2-91.1-179.8-202.6-115.5-111.5,64.4-201.6,220.4-201.2,348.6.4,128.1,91.1,179.8,202.5,115.4"/>
      <path class="cls-27" d="M2142.2,1591.8l-145.7-84.7c-97.1-56.4-355.1-225.5-355.7-431.5-.7-247.2,173-548.1,388.1-672.2l145.7,84.7c-215,124.2-388.8,425.1-388.1,672.2.6,206,258.7,375.1,355.7,431.5Z"/>
    </g>
  </g>
</svg>