<svg xmlns="http://www.w3.org/2000/svg" viewBox="0 0 100 100"><defs><style>.cls-1{fill:#fce400;}.cls-2{fill:#010101;}</style></defs><g id="Capa_2" data-name="Capa 2"><g id="Capa_1-2" data-name="Capa 1"><rect class="cls-1" width="100" height="100" rx="5"/><path class="cls-2" d="M50,14.71H21.13a9.64,9.64,0,0,0-9.63,9.62V69.25H59.63V24.33A9.64,9.64,0,0,0,50,14.71ZM37.65,51.33a6.41,6.41,0,0,1-9.07,0L20,42.75l4.54-4.53,8.57,8.57L46.58,33.32l4.54,4.54ZM81.9,75.67a7.69,7.69,0,0,1,.18,1.6,8,8,0,0,1-16,0,7.69,7.69,0,0,1,.19-1.6ZM37,75.67a7.69,7.69,0,0,1,.19,1.6,8,8,0,1,1-16,0,7.69,7.69,0,0,1,.18-1.6ZM88.5,43.58v3.21H66V27.54h6.42A16.06,16.06,0,0,1,88.5,43.58ZM66,53.21H88.5v16H66Z"/></g></g></svg>