<svg xmlns="http://www.w3.org/2000/svg" viewBox="0 0 100 100"><defs><style>.cls-1{fill:#fce400;}.cls-2{fill:#010101;}</style></defs><g id="Capa_2" data-name="Capa 2"><g id="Capa_1-2" data-name="Capa 1"><rect class="cls-1" width="100" height="100" rx="5"/><path class="cls-2" d="M75.42,20,50,11.6,24.58,20A9.61,9.61,0,0,0,18,29.14V50C18,74.05,47.44,87.35,48.7,87.9l1.13.5L51,88c1.27-.42,31-10.59,31-38V29.14A9.61,9.61,0,0,0,75.42,20Zm-24,36.32a6,6,0,0,1-4.27,1.77H47a6,6,0,0,1-4.3-1.92l-7.38-7.68L40,44.08l7.18,7.49L63.74,35l4.52,4.53Z"/></g></g></svg>