<svg xmlns="http://www.w3.org/2000/svg" viewBox="0 0 100 100"><defs><style>.cls-1{fill:#fce400;}.cls-2{fill:#010101;}</style></defs><g id="Capa_2" data-name="Capa 2"><g id="Capa_1-2" data-name="Capa 1"><rect class="cls-1" width="100" height="100" rx="5"/><path class="cls-2" d="M56.35,34A6.36,6.36,0,1,1,50,27.69,6.35,6.35,0,0,1,56.35,34ZM65.73,49.8,50,65.19,34.29,49.82a22.25,22.25,0,1,1,31.46,0l0,0ZM62.71,34A12.72,12.72,0,1,0,50,46.76,12.71,12.71,0,0,0,62.71,34ZM81.36,45.53,76.8,44a28.51,28.51,0,0,1-6.58,10.3L50,74.09,29.84,54.39a28.61,28.61,0,0,1-7.69-13.9A9.45,9.45,0,0,0,11.89,49c0,.31,0,.61,0,.92v31l25.38,7.25,25.49-6.35L88.15,88V54.65a9.53,9.53,0,0,0-6.79-9.12Z"/></g></g></svg>