<svg xmlns="http://www.w3.org/2000/svg" viewBox="0 0 100 100"><defs><style>.cls-1{fill:#fce400;}.cls-2{fill:#010101;}</style></defs><g id="Capa_2" data-name="Capa 2"><g id="Capa_1-2" data-name="Capa 1"><rect class="cls-1" width="100" height="100" rx="5"/><path class="cls-2" d="M43.58,21.12H11.5V14.71H43.58Zm-6.41,6.42H11.5V34H37.17ZM30.75,40.38H11.5v6.41H30.75ZM50,14.71V27.54H43.58V40.38H37.17V53.21H11.5v16H59.63V24.33A9.64,9.64,0,0,0,50,14.71ZM74.06,85.29a8,8,0,0,0,8-8,7.69,7.69,0,0,0-.18-1.6H66.22a8.43,8.43,0,0,0-.18,1.6,8,8,0,0,0,8,8m-44.92,0a8,8,0,0,0,8-8,7.69,7.69,0,0,0-.18-1.6H21.31a7.69,7.69,0,0,0-.18,1.6,8,8,0,0,0,8,8M66,69.25H88.5v-16H66Zm6.42-41.71H66V46.79H88.5V43.58A16.06,16.06,0,0,0,72.46,27.54Z"/></g></g></svg>