<svg xmlns="http://www.w3.org/2000/svg" viewBox="0 0 100 100"><defs><style>.cls-1{fill:#fce400;}.cls-2{fill:#010101;}</style></defs><g id="Capa_2" data-name="Capa 2"><g id="Capa_1-2" data-name="Capa 1"><rect class="cls-1" width="100" height="100" rx="5"/><path class="cls-2" d="M46.77,53.23h6.46v6.46H46.77Zm0-3.23h6.46V40.32H46.77Zm31.35,4.7,10.41,5.85L79,77.44l-10.3-5.79a29.08,29.08,0,0,1-9,5.45V88.75H40.31V77.45A28.78,28.78,0,0,1,30.67,72L21,77.44l-9.5-16.89L21,55.21a29,29,0,0,1-.48-5.27A29.62,29.62,0,0,1,21,44.79l-9.49-5.34L21,22.57,30.58,28a28.83,28.83,0,0,1,9.73-5.54V11.25H59.69V22.78a29,29,0,0,1,9.13,5.53L79,22.57l9.5,16.88L78.13,45.3A29,29,0,0,1,78.51,50a30.14,30.14,0,0,1-.39,4.75Zm-8.75,8.22L50,29.7,30.62,62.92Z"/></g></g></svg>