<svg xmlns="http://www.w3.org/2000/svg" viewBox="0 0 100 100"><defs><style>.cls-1{fill:#fce400;}.cls-2{fill:#010101;}</style></defs><g id="Capa_2" data-name="Capa 2"><g id="Capa_1-2" data-name="Capa 1"><rect class="cls-1" width="100" height="100" rx="5"/><path class="cls-2" d="M72.91,50,61.37,38.7a16.37,16.37,0,1,1,23.11,0L72.91,50Zm0-29.44a6.48,6.48,0,0,0-4.63,1.92,6.55,6.55,0,0,0,0,9.25l4.63,4.53,4.66-4.57a6.44,6.44,0,0,0,1.88-4.58,6.52,6.52,0,0,0-6.54-6.55ZM27.08,89.26,15.55,78a16.36,16.36,0,1,1,23.1-23.18,16.36,16.36,0,0,1,0,23.15L27.08,89.26Zm0-29.44A6.55,6.55,0,0,0,22.45,71l4.63,4.53L31.75,71a6.45,6.45,0,0,0,1.88-4.59,6.54,6.54,0,0,0-6.55-6.54Zm47.46,0H61.45a4.91,4.91,0,1,1,0-9.82h2.11l-6.77-6.62a23.26,23.26,0,0,1-1.57-1.74,14.68,14.68,0,0,0,6.23,28H74.54a4.91,4.91,0,0,1,0,9.82H45.88a23.17,23.17,0,0,1-2.6,3.11l-6.86,6.71H74.54a14.73,14.73,0,0,0,0-29.46Z"/></g></g></svg>