<svg width="64" height="64" viewBox="0 0 64 64" fill="none" xmlns="http://www.w3.org/2000/svg">
<g clip-path="url(#clip0_647_162)">
<path d="M34.6666 26.6667V53.3333H29.3333V35.696L27.2533 37.8533L23.416 34.1493L30.6373 26.6667H34.6693H34.6666ZM51.2453 25.6747C54.232 29.6747 56 34.6347 56 40C56 53.2347 45.232 64 32 64C18.768 64 7.99998 53.2347 7.99998 40C7.99998 34.6373 9.76797 29.68 12.752 25.68L0.0826416 0H24.3546L32.0186 15.536L39.7066 0H63.9466L51.2453 25.6747ZM37.4346 16.6187C41.1333 17.4773 44.5093 19.1973 47.336 21.5493L55.36 5.33067H43.0213L37.4346 16.6187ZM8.66131 5.33333L16.664 21.5547C19.5013 19.192 22.888 17.4693 26.6026 16.6133L21.04 5.33333H8.66131ZM50.6666 40C50.6666 29.7093 42.2933 21.3333 32 21.3333C21.7066 21.3333 13.3333 29.7093 13.3333 40C13.3333 50.2907 21.7066 58.6667 32 58.6667C42.2933 58.6667 50.6666 50.2907 50.6666 40Z" fill="#000D44"/>
</g>
<defs>
<clipPath id="clip0_647_162">
<rect width="64" height="64" fill="white"/>
</clipPath>
</defs>
</svg>
