<svg width="64" height="64" viewBox="0 0 64 64" fill="none" xmlns="http://www.w3.org/2000/svg">
<g clip-path="url(#clip0_647_160)">
<path d="M45.3333 14.9067V8L53.3333 0V10.6667H64L56 18.6667H49.0933L37.12 30.64C37.2267 31.0667 37.3067 31.52 37.3067 32C37.3067 34.9333 34.9067 37.3333 31.9733 37.3333C29.04 37.3333 26.64 34.9333 26.64 32C26.64 29.0667 29.04 26.6667 31.9733 26.6667C32.4533 26.6667 32.9067 26.7467 33.3333 26.8533L45.3067 14.88L45.3333 14.9067ZM58.2133 24H54.64C55.4933 26.48 56 29.12 56 31.8933C54.8 63.7867 9.2 63.7867 8 31.8933C8 18.6133 18.7733 7.81333 32 7.81333C34.8 7.81333 37.4933 8.32 40 9.22667V5.78667L43.7067 2.08C25.3333 -4.72 1.01333 5.2 0 31.8933C0 49.6 14.3467 64 32 64C49.6533 64 64 49.6 64 31.8933C63.84 27.6267 63.0667 23.7867 61.8133 20.3733L58.2133 23.9733V24ZM31.44 21.2533L38.4 14.2933C36.5067 13.6267 34.3733 13.2267 32 13.1733C7.33333 13.9467 7.33333 49.84 32 50.64C47.12 50.16 52.96 36.48 49.5467 25.7867L42.48 32.8533C42.08 37.7867 38.6133 42.4267 32 42.6133C17.68 42.2933 16.4267 22.2933 31.4133 21.28L31.44 21.2533Z" fill="#000D44"/>
</g>
<defs>
<clipPath id="clip0_647_160">
<rect width="64" height="64" fill="white"/>
</clipPath>
</defs>
</svg>
