<svg width="64" height="64" viewBox="0 0 64 64" fill="none" xmlns="http://www.w3.org/2000/svg">
<g clip-path="url(#clip0_647_154)">
<path d="M61.3333 58.6667H8C7.29276 58.6667 6.61448 58.3857 6.11438 57.8856C5.61428 57.3855 5.33333 56.7072 5.33333 56V2.66667C5.33333 1.95942 5.05238 1.28115 4.55229 0.781049C4.05219 0.280952 3.37391 0 2.66667 0C1.95942 0 1.28115 0.280952 0.781049 0.781049C0.280952 1.28115 0 1.95942 0 2.66667L0 56C0 58.1217 0.842855 60.1566 2.34315 61.6569C3.84344 63.1571 5.87827 64 8 64H61.3333C62.0406 64 62.7189 63.7191 63.219 63.219C63.7191 62.7189 64 62.0406 64 61.3333C64 60.6261 63.7191 59.9478 63.219 59.4477C62.7189 58.9476 62.0406 58.6667 61.3333 58.6667Z" fill="#000D44"/>
<path d="M40 53.3334C40.7073 53.3334 41.3856 53.0524 41.8857 52.5523C42.3858 52.0522 42.6667 51.374 42.6667 50.6667V32C42.6667 31.2928 42.3858 30.6145 41.8857 30.1144C41.3856 29.6143 40.7073 29.3334 40 29.3334C39.2928 29.3334 38.6145 29.6143 38.1144 30.1144C37.6143 30.6145 37.3334 31.2928 37.3334 32V50.6667C37.3334 51.374 37.6143 52.0522 38.1144 52.5523C38.6145 53.0524 39.2928 53.3334 40 53.3334Z" fill="#000D44"/>
<path d="M18.6667 53.3334C19.3739 53.3334 20.0522 53.0524 20.5523 52.5523C21.0524 52.0522 21.3333 51.374 21.3333 50.6667V32C21.3333 31.2928 21.0524 30.6145 20.5523 30.1144C20.0522 29.6143 19.3739 29.3334 18.6667 29.3334C17.9594 29.3334 17.2811 29.6143 16.781 30.1144C16.281 30.6145 16 31.2928 16 32V50.6667C16 51.374 16.281 52.0522 16.781 52.5523C17.2811 53.0524 17.9594 53.3334 18.6667 53.3334Z" fill="#000D44"/>
<path d="M50.6667 53.3333C51.3739 53.3333 52.0522 53.0524 52.5523 52.5523C53.0524 52.0522 53.3333 51.3739 53.3333 50.6667V18.6667C53.3333 17.9594 53.0524 17.2811 52.5523 16.781C52.0522 16.281 51.3739 16 50.6667 16C49.9594 16 49.2811 16.281 48.781 16.781C48.2809 17.2811 48 17.9594 48 18.6667V50.6667C48 51.3739 48.2809 52.0522 48.781 52.5523C49.2811 53.0524 49.9594 53.3333 50.6667 53.3333Z" fill="#000D44"/>
<path d="M29.3333 53.3333C30.0405 53.3333 30.7188 53.0524 31.2189 52.5523C31.719 52.0522 32 51.3739 32 50.6667V18.6667C32 17.9594 31.719 17.2811 31.2189 16.781C30.7188 16.281 30.0405 16 29.3333 16C28.626 16 27.9478 16.281 27.4477 16.781C26.9476 17.2811 26.6666 17.9594 26.6666 18.6667V50.6667C26.6666 51.3739 26.9476 52.0522 27.4477 52.5523C27.9478 53.0524 28.626 53.3333 29.3333 53.3333Z" fill="#000D44"/>
</g>
<defs>
<clipPath id="clip0_647_154">
<rect width="64" height="64" fill="white"/>
</clipPath>
</defs>
</svg>
