<svg width="42" height="42" viewBox="0 0 42 42" fill="none" xmlns="http://www.w3.org/2000/svg">
<circle cx="21" cy="21" r="21" fill="#FCE400"/>
<path d="M21.568 21.296L23.704 20.936L27.232 27.2C27.344 27.408 27.472 27.56 27.616 27.656C27.776 27.752 27.968 27.816 28.192 27.848C28.416 27.88 28.656 27.896 28.912 27.896H29.104V29H25.6L21.568 21.296ZM18.568 27.656C18.568 27.704 18.624 27.744 18.736 27.776C18.848 27.792 18.992 27.816 19.168 27.848C19.36 27.864 19.568 27.88 19.792 27.896C20.016 27.896 20.232 27.896 20.44 27.896H20.752V29H14.08V27.896H14.344C14.92 27.896 15.4 27.84 15.784 27.728C16.168 27.616 16.36 27.384 16.36 27.032V13.928C16.36 13.576 16.168 13.344 15.784 13.232C15.4 13.12 14.92 13.064 14.344 13.064H14.08V11.96H20.992C22.288 11.96 23.392 12.168 24.304 12.584C25.232 12.984 25.944 13.552 26.44 14.288C26.936 15.024 27.184 15.88 27.184 16.856C27.184 17.64 27.016 18.344 26.68 18.968C26.344 19.592 25.864 20.128 25.24 20.576C24.632 21.008 23.896 21.328 23.032 21.536C22.808 21.584 22.576 21.624 22.336 21.656C22.112 21.672 21.872 21.696 21.616 21.728C21.36 21.744 21.104 21.752 20.848 21.752H18.088V20.432H20.848C21.76 20.432 22.504 20.288 23.08 20C23.656 19.712 24.08 19.304 24.352 18.776C24.64 18.232 24.784 17.592 24.784 16.856C24.784 16.136 24.64 15.512 24.352 14.984C24.064 14.456 23.632 14.056 23.056 13.784C22.496 13.496 21.792 13.352 20.944 13.352H18.568V27.656Z" fill="black"/>
</svg>
