<svg width="42" height="42" viewBox="0 0 42 42" fill="none" xmlns="http://www.w3.org/2000/svg">
<circle cx="21" cy="21" r="21" fill="#FCE400"/>
<path d="M21.752 29.464C22.712 29.464 23.544 29.3253 24.248 29.048C24.952 28.7707 25.496 28.3333 25.88 27.736C26.2853 27.1387 26.488 26.3813 26.488 25.464C26.488 24.632 26.3173 23.9387 25.976 23.384C25.6347 22.8293 25.1653 22.3813 24.568 22.04C23.992 21.6773 23.3307 21.3787 22.584 21.144C21.8587 20.888 21.1013 20.6533 20.312 20.44C19.4587 20.2053 18.6053 19.9387 17.752 19.64C16.92 19.3413 16.1627 18.9467 15.48 18.456C14.8187 17.9653 14.2853 17.3467 13.88 16.6C13.4747 15.8533 13.272 14.9147 13.272 13.784C13.272 12.5893 13.5707 11.5653 14.168 10.712C14.7867 9.83733 15.5973 9.16533 16.6 8.696C17.624 8.20533 18.744 7.96 19.96 7.96C20.9413 7.96 21.8587 8.09867 22.712 8.376C23.5653 8.65333 24.344 9.13333 25.048 9.816C25.7733 10.4987 26.3813 11.4587 26.872 12.696L25.72 12.76L26.2 8.28H27.96V14.232H26.008C25.6667 13.2933 25.2187 12.4933 24.664 11.832C24.1093 11.1707 23.448 10.6693 22.68 10.328C21.9333 9.96533 21.1227 9.784 20.248 9.784C19.3307 9.784 18.552 9.93333 17.912 10.232C17.272 10.5307 16.7813 10.9573 16.44 11.512C16.0987 12.0453 15.928 12.7067 15.928 13.496C15.928 14.2213 16.0987 14.8293 16.44 15.32C16.7813 15.7893 17.2293 16.1947 17.784 16.536C18.36 16.856 19.0213 17.1333 19.768 17.368C20.5147 17.5813 21.2827 17.7947 22.072 18.008C22.968 18.2427 23.8427 18.52 24.696 18.84C25.5493 19.1387 26.3173 19.5333 27 20.024C27.704 20.5147 28.2587 21.144 28.664 21.912C29.0693 22.68 29.272 23.64 29.272 24.792C29.272 26.1787 28.9307 27.3627 28.248 28.344C27.5867 29.3253 26.6907 30.072 25.56 30.584C24.4507 31.0747 23.224 31.32 21.88 31.32C20.6427 31.32 19.4693 31.128 18.36 30.744C17.2507 30.3387 16.2587 29.72 15.384 28.888C14.5307 28.0347 13.8693 26.904 13.4 25.496L14.808 25.72L14.36 31H12.472V23.928H14.424C14.7867 25.0373 15.3093 26.0187 15.992 26.872C16.696 27.704 17.5387 28.344 18.52 28.792C19.5013 29.24 20.5787 29.464 21.752 29.464Z" fill="black"/>
</svg>
