<svg width="42" height="42" viewBox="0 0 42 42" fill="none" xmlns="http://www.w3.org/2000/svg">
<circle cx="21" cy="21" r="21" fill="#FCE400"/>
<path d="M19.888 27.032V13.28H18.496C17.808 13.28 17.248 13.304 16.816 13.352C16.384 13.4 16.064 13.504 15.856 13.664C15.648 13.824 15.528 14.048 15.496 14.336L15.28 16.688H13.96V11.96H28.072V16.688H26.752L26.536 14.336C26.504 14.048 26.376 13.824 26.152 13.664C25.944 13.504 25.624 13.4 25.192 13.352C24.76 13.304 24.2 13.28 23.512 13.28H22.12V27.032C22.12 27.384 22.312 27.616 22.696 27.728C23.08 27.84 23.568 27.896 24.16 27.896H24.544V29H17.464V27.896H17.848C18.44 27.896 18.928 27.84 19.312 27.728C19.696 27.616 19.888 27.384 19.888 27.032Z" fill="black"/>
</svg>
