<svg width="64" height="64" viewBox="0 0 64 64" fill="none" xmlns="http://www.w3.org/2000/svg">
<g clip-path="url(#clip0_647_152)">
<path d="M36 31.1733C36.6789 31.9431 37.1212 32.8925 37.2739 33.9074C37.4267 34.9224 37.2833 35.9599 36.861 36.8953C36.4387 37.8308 35.7554 38.6246 34.8932 39.1814C34.031 39.7382 33.0264 40.0343 32 40.0343C30.9736 40.0343 29.969 39.7382 29.1068 39.1814C28.2445 38.6246 27.5613 37.8308 27.139 36.8953C26.7167 35.9599 26.5733 34.9224 26.726 33.9074C26.8787 32.8925 27.3211 31.9431 28 31.1733V18.6667H36V31.1733ZM54.4 15.7627C58.0111 20.0337 60.3259 25.2482 61.0715 30.7914C61.8171 36.3345 60.9624 41.9753 58.6081 47.0487C56.2539 52.1222 52.4982 56.4168 47.7839 59.4264C43.0696 62.4359 37.5931 64.035 32 64.035C26.4069 64.035 20.9304 62.4359 16.2161 59.4264C11.5017 56.4168 7.74609 52.1222 5.39184 47.0487C3.03758 41.9753 2.18287 36.3345 2.92845 30.7914C3.67404 25.2482 5.98884 20.0337 9.59999 15.7627L7.83999 13.8107L5.82399 15.8293L0.170654 10.1707L10.1707 0.170667L15.8293 5.82933L13.512 8.144L15.544 10.4C19.2722 7.87187 23.5359 6.24254 28 5.64V0H36V5.64C40.4641 6.24254 44.7277 7.87187 48.456 10.4L50.488 8.144L48.1707 5.82933L53.8293 0.170667L63.8293 10.1707L58.1707 15.8293L56.1547 13.8107L54.4 15.7627ZM53.3333 34.6667C53.3333 30.4473 52.0821 26.3228 49.738 22.8145C47.3939 19.3063 44.0621 16.5719 40.1639 14.9572C36.2657 13.3426 31.9763 12.9201 27.8381 13.7432C23.6998 14.5664 19.8986 16.5982 16.915 19.5817C13.9315 22.5652 11.8997 26.3665 11.0766 30.5047C10.2534 34.643 10.6759 38.9324 12.2906 42.8306C13.9052 46.7287 16.6396 50.0606 20.1478 52.4047C23.6561 54.7488 27.7807 56 32 56C37.656 55.9937 43.0785 53.744 47.0779 49.7446C51.0773 45.7452 53.327 40.3227 53.3333 34.6667Z" fill="#000D44"/>
</g>
<defs>
<clipPath id="clip0_647_152">
<rect width="64" height="64" fill="white"/>
</clipPath>
</defs>
</svg>
