<svg width="71" height="64" viewBox="0 0 71 64" fill="none" xmlns="http://www.w3.org/2000/svg">
<g clip-path="url(#clip0_647_4)">
<path d="M70.8816 30.6667C70.4766 28.7728 69.346 27.0674 67.6875 25.8488C66.0289 24.6302 63.948 23.9758 61.8084 24H52.0459L39.7777 4.168C39.014 2.90638 37.8873 1.85352 36.5161 1.12009C35.1449 0.386653 33.5799 -0.000265879 31.9855 1.37077e-07H20.9124L29.8998 24H20.6639L17.4097 19.5813C16.6026 18.4807 15.5055 17.5775 14.2164 16.9525C12.9273 16.3275 11.4865 16.0003 10.0228 16H0.079834L6.62663 32L0.118292 48H10.0583C11.5247 48.0006 12.9683 47.6726 14.2593 47.0456C15.5503 46.4187 16.6481 45.5123 17.4541 44.408L20.6728 40H29.8998L20.9124 64H31.9855C33.5758 64.0002 35.137 63.6152 36.5057 62.8852C37.8744 62.1553 39.0004 61.1072 39.7659 59.8507L52.0311 40H62.125C63.4161 40.0008 64.6919 39.7476 65.8633 39.2581C67.0347 38.7686 68.0735 38.0546 68.9073 37.166C69.741 36.2773 70.3496 35.2354 70.6906 34.1128C71.0316 32.9903 71.0968 31.8142 70.8816 30.6667ZM64.3733 33.7173C64.0972 34.013 63.7532 34.251 63.3649 34.4149C62.9767 34.5788 62.5536 34.6647 62.125 34.6667H48.5521L34.5829 57.2773C34.3283 57.6979 33.9527 58.0488 33.4957 58.2933C33.0386 58.5378 32.5169 58.6668 31.9855 58.6667H29.1514L38.1417 34.6667H17.4778L12.5226 41.472C12.2531 41.839 11.887 42.1401 11.457 42.3486C11.027 42.557 10.5465 42.6663 10.0583 42.6667H8.59687L12.9308 32L8.57913 21.3333H10.0346C10.5228 21.3337 11.0034 21.443 11.4334 21.6514C11.8633 21.8599 12.2294 22.161 12.4989 22.528L17.4867 29.3333H38.1417L29.1514 5.33333H31.9855C32.5213 5.3334 33.0471 5.46467 33.5067 5.71312C33.9662 5.96158 34.3423 6.31789 34.5947 6.744L48.5521 29.3333H61.8084C62.5455 29.3088 63.2695 29.5142 63.858 29.9151C64.4466 30.3159 64.8637 30.8875 65.0389 31.5333C65.1151 31.9198 65.0958 32.3166 64.9823 32.6955C64.8688 33.0744 64.6638 33.426 64.3822 33.7253L64.3733 33.7173Z" fill="black"/>
</g>
<defs>
<clipPath id="clip0_647_4">
<rect width="71" height="64" fill="white"/>
</clipPath>
</defs>
</svg>
