<svg width="69" height="62" viewBox="0 0 69 62" fill="none" xmlns="http://www.w3.org/2000/svg">
<g clip-path="url(#clip0_599_205)">
<path d="M66.125 51.6667C65.3625 51.6667 64.6312 51.9388 64.0921 52.4233C63.5529 52.9078 63.25 53.5649 63.25 54.25C63.25 55.1387 61.2892 56.8333 58.2188 56.8333C57.3562 56.8606 56.4977 56.715 55.7056 56.4071C54.9134 56.0993 54.2075 55.6368 53.6389 55.0534C53.7512 54.8887 53.8741 54.73 54.0069 54.5781C58.6955 50.1598 61.8487 44.6091 63.0804 38.6053C63.445 36.799 63.0842 34.9351 62.0623 33.3455C61.0403 31.7559 59.4236 30.5439 57.5 29.9253V23.25C57.5 20.5094 56.2884 17.8811 54.1317 15.9432C51.9751 14.0054 49.05 12.9167 46 12.9167V10.3333C46 7.59276 44.7884 4.96444 42.6317 3.02656C40.4751 1.08869 37.55 0 34.5 0C31.45 0 28.5249 1.08869 26.3683 3.02656C24.2116 4.96444 23 7.59276 23 10.3333V12.9167C19.95 12.9167 17.0249 14.0054 14.8683 15.9432C12.7116 17.8811 11.5 20.5094 11.5 23.25V29.8917C9.55246 30.4962 7.91009 31.7072 6.87014 33.3055C5.8302 34.9038 5.4614 36.7839 5.8305 38.6053C7.09307 44.6163 10.277 50.1666 14.9931 54.5781C15.1311 54.734 15.2588 54.897 15.3755 55.0663C14.8064 55.6518 14.0979 56.1146 13.3026 56.4205C12.5073 56.7263 11.6455 56.8675 10.7812 56.8333C7.65037 56.8333 5.75 55.0405 5.75 54.25C5.75 53.5649 5.4471 52.9078 4.90793 52.4233C4.36876 51.9388 3.6375 51.6667 2.875 51.6667C2.1125 51.6667 1.38124 51.9388 0.842068 52.4233C0.302901 52.9078 0 53.5649 0 54.25C0 58.4505 4.93925 62 10.7812 62C13.6884 62.0236 16.508 61.1067 18.7249 59.4167C20.936 61.076 23.7233 61.9884 26.6041 61.9959C29.485 62.0035 32.2781 61.1057 34.5 59.458C36.73 61.1041 39.5286 62.0004 42.4145 61.9929C45.3004 61.9853 48.0932 61.0744 50.3125 59.4167C52.5161 61.0976 55.3167 62.014 58.2073 62C64.0608 62 69 58.4505 69 54.25C69 53.5649 68.6971 52.9078 68.1579 52.4233C67.6188 51.9388 66.8875 51.6667 66.125 51.6667ZM28.75 10.3333C28.75 8.96305 29.3558 7.64889 30.4341 6.67995C31.5125 5.71101 32.975 5.16667 34.5 5.16667C36.025 5.16667 37.4875 5.71101 38.5659 6.67995C39.6442 7.64889 40.25 8.96305 40.25 10.3333V12.9167H28.75V10.3333ZM23 18.0833H46C47.525 18.0833 48.9875 18.6277 50.0659 19.5966C51.1442 20.5656 51.75 21.8797 51.75 23.25V28.21L37.2255 23.9268C35.4598 23.405 33.5546 23.405 31.7889 23.9268L17.25 28.1919V23.25C17.25 21.8797 17.8558 20.5656 18.9341 19.5966C20.0125 18.6277 21.475 18.0833 23 18.0833ZM26.5938 56.8333C25.6328 56.8806 24.6747 56.7034 23.8126 56.3191C22.9505 55.9347 22.214 55.3563 21.6746 54.6401C21.0758 53.3502 20.2529 52.1539 19.2366 51.0957C15.2732 47.4086 12.5856 42.7673 11.5 37.7347C11.3673 37.1157 11.4864 36.4744 11.8357 35.9277C12.1851 35.381 12.7414 34.9652 13.4033 34.7562L31.625 29.4061V54.25C31.625 55.1387 29.6642 56.8333 26.5938 56.8333ZM42.4062 56.8333C39.2754 56.8333 37.375 55.0405 37.375 54.25V29.4087L55.5019 34.7536C56.166 34.9622 56.7247 35.3782 57.0761 35.9259C57.4275 36.4735 57.5484 37.1163 57.4166 37.7373C56.3623 42.7631 53.7031 47.4047 49.7634 51.0957C48.7406 52.1553 47.9171 53.3577 47.3254 54.6556C46.7858 55.3705 46.0487 55.9472 45.1863 56.329C44.3239 56.7108 43.3659 56.8846 42.4062 56.8333Z" fill="black"/>
</g>
<defs>
<clipPath id="clip0_599_205">
<rect width="69" height="62" fill="white"/>
</clipPath>
</defs>
</svg>
