<svg width="69" height="62" viewBox="0 0 69 62" fill="none" xmlns="http://www.w3.org/2000/svg">
<path d="M69 25.8333C69 18.711 62.5514 12.9166 54.625 12.9166H48.875V10.3333C48.875 6.06042 45.0052 2.58325 40.25 2.58325H8.625C3.86975 2.58325 0 6.06042 0 10.3333V18.0833H5.75V10.3333C5.75 8.90983 7.04087 7.74992 8.625 7.74992H40.25C41.837 7.74992 43.125 8.90983 43.125 10.3333V43.9166H5.75V33.5833H0V49.0833H5.86787C5.79887 49.5095 5.75 49.9383 5.75 50.3749C5.75 55.3607 10.2638 59.4166 15.8125 59.4166C21.3612 59.4166 25.875 55.3607 25.875 50.3749C25.875 49.9383 25.8261 49.5095 25.7571 49.0833H43.2429C43.1739 49.5095 43.125 49.9383 43.125 50.3749C43.125 55.3607 47.6388 59.4166 53.1875 59.4166C58.7362 59.4166 63.25 55.3607 63.25 50.3749C63.25 49.9383 63.2011 49.5095 63.1321 49.0833H69V25.8333ZM20.125 50.3749C20.125 52.5113 18.1901 54.2499 15.8125 54.2499C13.4349 54.2499 11.5 52.5113 11.5 50.3749C11.5 49.8867 11.6121 49.4578 11.7674 49.0833H19.8605C20.0158 49.4578 20.125 49.8867 20.125 50.3749ZM54.625 18.0833C59.3802 18.0833 63.25 21.5604 63.25 25.8333V28.4166H48.875V18.0833H54.625ZM57.5 50.3749C57.5 52.5113 55.5651 54.2499 53.1875 54.2499C50.8099 54.2499 48.875 52.5113 48.875 50.3749C48.875 49.8841 48.9871 49.4552 49.1424 49.0833H57.2326C57.3879 49.4552 57.5 49.8841 57.5 50.3749ZM48.875 43.9166V33.5833H63.25V43.9166H48.875ZM23.1035 28.4166H0V23.2499H23.1035L15.8643 16.7451L19.9295 13.0923L30.0437 22.1804C32.2863 24.1954 32.2863 27.4711 30.0437 29.4861L19.9295 38.5743L15.8643 34.9214L23.1035 28.4166Z" fill="black"/>
</svg>
