<svg width="69" height="62" viewBox="0 0 69 62" fill="none" xmlns="http://www.w3.org/2000/svg">
<g clip-path="url(#clip0_598_177)">
<path d="M21.5625 33.5833C19.0037 33.5833 16.5024 32.9015 14.3748 31.6242C12.2472 30.3468 10.589 28.5312 9.60981 26.407C8.6306 24.2828 8.37439 21.9454 8.87359 19.6904C9.37279 17.4354 10.605 15.364 12.4143 13.7382C14.2236 12.1124 16.5289 11.0053 19.0385 10.5567C21.5481 10.1082 24.1494 10.3384 26.5135 11.2182C28.8775 12.0981 30.898 13.5881 32.3196 15.4998C33.7412 17.4116 34.5 19.6591 34.5 21.9583C34.4962 25.0404 33.1319 27.9953 30.7065 30.1747C28.2811 32.354 24.9926 33.5799 21.5625 33.5833ZM21.5625 15.5C20.1409 15.5 18.7513 15.8788 17.5693 16.5884C16.3874 17.2981 15.4661 18.3067 14.9221 19.4868C14.3781 20.6669 14.2358 21.9655 14.5131 23.2183C14.7904 24.4711 15.475 25.6219 16.4802 26.5251C17.4854 27.4283 18.7661 28.0434 20.1603 28.2926C21.5545 28.5418 22.9997 28.4139 24.313 27.9251C25.6264 27.4362 26.7489 26.6085 27.5387 25.5464C28.3285 24.4843 28.75 23.2357 28.75 21.9583C28.75 20.2455 27.9927 18.6028 26.6448 17.3916C25.2969 16.1804 23.4687 15.5 21.5625 15.5ZM43.125 59.4167V58.125C43.125 52.9864 40.8532 48.0583 36.8095 44.4248C32.7657 40.7913 27.2812 38.75 21.5625 38.75C15.8438 38.75 10.3593 40.7913 6.31551 44.4248C2.27176 48.0583 0 52.9864 0 58.125L0 59.4167C0 60.1018 0.302901 60.7589 0.842068 61.2434C1.38124 61.7278 2.1125 62 2.875 62C3.6375 62 4.36876 61.7278 4.90793 61.2434C5.4471 60.7589 5.75 60.1018 5.75 59.4167V58.125C5.75 54.3567 7.41596 50.7428 10.3814 48.0782C13.3468 45.4136 17.3688 43.9167 21.5625 43.9167C25.7562 43.9167 29.7782 45.4136 32.7436 48.0782C35.709 50.7428 37.375 54.3567 37.375 58.125V59.4167C37.375 60.1018 37.6779 60.7589 38.2171 61.2434C38.7562 61.7278 39.4875 62 40.25 62C41.0125 62 41.7438 61.7278 42.2829 61.2434C42.8221 60.7589 43.125 60.1018 43.125 59.4167ZM69 46.5C68.9999 43.0091 67.8753 39.5928 65.7619 36.6636C63.6485 33.7344 60.6368 31.4174 57.0902 29.9924C53.5435 28.5674 49.6137 28.0953 45.775 28.633C41.9364 29.1707 38.3529 30.6953 35.4574 33.0228C35.1721 33.248 34.9393 33.5218 34.7724 33.8284C34.6056 34.135 34.508 34.4682 34.4853 34.8089C34.4626 35.1495 34.5152 35.4908 34.6401 35.8131C34.7651 36.1354 34.9598 36.4322 35.2132 36.6865C35.4665 36.9407 35.7734 37.1474 36.1161 37.2944C36.4588 37.4415 36.8306 37.5261 37.2099 37.5434C37.5892 37.5606 37.9685 37.5101 38.326 37.3949C38.6835 37.2797 39.012 37.1019 39.2926 36.8719C41.361 35.2099 43.9206 34.1212 46.6624 33.7375C49.4042 33.3537 52.211 33.6912 54.7441 34.7092C57.2771 35.7271 59.4281 37.3821 60.9375 39.4744C62.4468 41.5666 63.25 44.0067 63.25 46.5C63.25 47.1852 63.5529 47.8422 64.0921 48.3267C64.6312 48.8112 65.3625 49.0833 66.125 49.0833C66.8875 49.0833 67.6188 48.8112 68.1579 48.3267C68.6971 47.8422 69 47.1852 69 46.5ZM50.3125 23.25C47.7537 23.25 45.2524 22.5682 43.1248 21.2908C40.9972 20.0135 39.339 18.1979 38.3598 16.0737C37.3806 13.9495 37.1244 11.6121 37.6236 9.35708C38.1228 7.10205 39.355 5.03067 41.1643 3.40489C42.9736 1.7791 45.2789 0.67193 47.7885 0.223376C50.2981 -0.225177 52.8994 0.00503695 55.2635 0.884906C57.6275 1.76477 59.648 3.25478 61.0696 5.1665C62.4912 7.07822 63.25 9.3258 63.25 11.625C63.2462 14.7071 61.8819 17.662 59.4565 19.8413C57.0311 22.0207 53.7426 23.2466 50.3125 23.25ZM50.3125 5.16667C48.8909 5.16667 47.5013 5.54545 46.3193 6.2551C45.1374 6.96475 44.2161 7.9734 43.6721 9.15351C43.1281 10.3336 42.9858 11.6322 43.2631 12.885C43.5404 14.1378 44.225 15.2885 45.2302 16.1917C46.2354 17.095 47.516 17.71 48.9103 17.9592C50.3045 18.2084 51.7497 18.0805 53.063 17.5917C54.3764 17.1029 55.4989 16.2751 56.2887 15.2131C57.0785 14.151 57.5 12.9023 57.5 11.625C57.5 9.91215 56.7427 8.26945 55.3948 7.05827C54.0469 5.8471 52.2187 5.16667 50.3125 5.16667Z" fill="black"/>
</g>
<defs>
<clipPath id="clip0_598_177">
<rect width="69" height="62" fill="white"/>
</clipPath>
</defs>
</svg>
